SplineFontDB: 3.0
FontName: FiraCodemScript-Medium
FullName: Fira Code mScript Medium
FamilyName: Fira Code mScript
Weight: Medium
Copyright: Copyright (c) 2015 by Nikita Prokopov
Version: 1.205
ItalicAngle: 0
UnderlinePosition: -100
UnderlineWidth: 50
Ascent: 800
Descent: 200
InvalidEm: 0
sfntRevision: 0x0001347a
LayerCount: 2
Layer: 0 1 "Back" 1
Layer: 1 1 "Fore" 0
XUID: [1021 102 -1850447114 12875]
StyleMap: 0x0040
FSType: 0
OS2Version: 4
OS2_WeightWidthSlopeOnly: 0
OS2_UseTypoMetrics: 1
CreationTime: 1519723474
ModificationTime: 1530244237
PfmFamily: 49
TTFWeight: 500
TTFWidth: 5
LineGap: 0
VLineGap: 0
Panose: 2 11 6 9 5 0 0 2 0 4
OS2TypoAscent: 935
OS2TypoAOffset: 0
OS2TypoDescent: -265
OS2TypoDOffset: 0
OS2TypoLinegap: 0
OS2WinAscent: 935
OS2WinAOffset: 0
OS2WinDescent: 265
OS2WinDOffset: 0
HheadAscent: 935
HheadAOffset: 0
HheadDescent: -265
HheadDOffset: 0
OS2SubXSize: 650
OS2SubYSize: 600
OS2SubXOff: 0
OS2SubYOff: 75
OS2SupXSize: 650
OS2SupYSize: 600
OS2SupXOff: 0
OS2SupYOff: 350
OS2StrikeYSize: 50
OS2StrikeYPos: 316
OS2CapHeight: 690
OS2XHeight: 528
OS2Vendor: 'CTDB'
OS2CodePages: 6000009f.00000000
OS2UnicodeRanges: 40000287.02003801.00000000.00000000
Lookup: 1 0 0 "'aalt' Access All Alternates lookup 0" { "'aalt' Access All Alternates lookup 0 subtable"  } ['aalt' ('DFLT' <'dflt' > 'cyrl' <'dflt' > 'grek' <'dflt' > 'latn' <'AFK ' 'AZE ' 'CAT ' 'CRT ' 'KAZ ' 'MOL ' 'PLK ' 'ROM ' 'TAT ' 'TRK ' 'dflt' > 'zinh' <'dflt' > 'zyyy' <'dflt' > ) ]
Lookup: 3 0 0 "'aalt' Access All Alternates lookup 1" { "'aalt' Access All Alternates lookup 1 subtable"  } ['aalt' ('DFLT' <'dflt' > 'cyrl' <'dflt' > 'grek' <'dflt' > 'latn' <'AFK ' 'AZE ' 'CAT ' 'CRT ' 'KAZ ' 'MOL ' 'PLK ' 'ROM ' 'TAT ' 'TRK ' 'dflt' > 'zinh' <'dflt' > 'zyyy' <'dflt' > ) ]

StartChar: .notdef
Encoding: 1114112 -1 0
Width: 600
Flags: W
LayerCount: 2
Fore
SplineSet
90 1050 m 1,0,-1
 510 1050 l 1,1,-1
 510 -350 l 1,2,-1
 90 -350 l 1,3,-1
 90 1050 l 1,0,-1
456 -298 m 1,4,-1
 456 998 l 1,5,-1
 145 998 l 1,6,-1
 145 -298 l 1,7,-1
 456 -298 l 1,4,-1
299.5 155.5 m 128,-1,9
 292 149 292 149 282 149 c 256,10,11
 272 149 272 149 264.5 155.5 c 128,-1,12
 257 162 257 162 257 173 c 2,13,-1
 257 257 l 1,14,15
 310 260 310 260 329 276.5 c 128,-1,16
 348 293 348 293 348 334 c 0,17,18
 348 367 348 367 335 385 c 128,-1,19
 322 403 322 403 287 403 c 0,20,21
 258 403 258 403 235 392 c 0,22,23
 228 389 228 389 222 389 c 0,24,25
 211 389 211 389 204.5 395.5 c 128,-1,26
 198 402 198 402 198 412 c 0,27,28
 198 431 198 431 227.5 441 c 128,-1,29
 257 451 257 451 291 451 c 0,30,31
 351 451 351 451 376.5 419 c 128,-1,32
 402 387 402 387 402 336 c 0,33,34
 402 283 402 283 379.5 254 c 128,-1,35
 357 225 357 225 307 218 c 1,36,-1
 307 173 l 2,37,8
 307 162 307 162 299.5 155.5 c 128,-1,9
257 110 m 128,-1,39
 267 120 267 120 282 120 c 256,40,41
 297 120 297 120 307 110 c 128,-1,42
 317 100 317 100 317 85 c 0,43,44
 317 69 317 69 307 58.5 c 128,-1,45
 297 48 297 48 282 48 c 256,46,47
 267 48 267 48 257 58.5 c 128,-1,48
 247 69 247 69 247 85 c 0,49,38
 247 100 247 100 257 110 c 128,-1,39
EndSplineSet
EndChar

StartChar: A
Encoding: 65 65 4
Width: 600
GlyphClass: 2
Flags: W
AnchorPoint: "Anchor-7" 300 690 basechar 0
AnchorPoint: "Anchor-6" 298 0 basechar 0
LayerCount: 2
Fore
SplineSet
421 166 m 1,0,-1
 175 166 l 1,1,-1
 127 0 l 1,2,-1
 8 0 l 1,3,-1
 228 690 l 1,4,-1
 372 690 l 1,5,-1
 592 0 l 1,6,-1
 469 0 l 1,7,-1
 421 166 l 1,0,-1
199 256 m 1,8,-1
 397 256 l 1,9,-1
 298 600 l 1,10,-1
 199 256 l 1,8,-1
EndSplineSet
Substitution2: "Single Substitution lookup 159 subtable" ordfeminine
Substitution2: "'aalt' Access All Alternates lookup 0 subtable" ordfeminine
EndChar

StartChar: Aogonek
Encoding: 260 260 11
Width: 600
GlyphClass: 2
Flags: W
AnchorPoint: "Anchor-7" 300 690 basechar 0
AnchorPoint: "Anchor-6" 298 0 basechar 0
LayerCount: 2
Fore
SplineSet
442.5 -54.5 m 128,-1,1
 417 -81 417 -81 417 -113 c 0,2,3
 417 -161 417 -161 473 -161 c 0,4,5
 501 -161 501 -161 532 -154 c 1,6,-1
 522 -231 l 1,7,8
 489 -238 489 -238 460 -238 c 0,9,10
 401 -238 401 -238 364 -208.5 c 128,-1,11
 327 -179 327 -179 327 -131 c 0,12,13
 327 -80 327 -80 361 -44 c 128,-1,14
 395 -8 395 -8 464 19 c 1,15,-1
 421 166 l 1,16,-1
 175 166 l 1,17,-1
 127 0 l 1,18,-1
 8 0 l 1,19,-1
 228 690 l 1,20,-1
 372 690 l 1,21,-1
 592 0 l 1,22,-1
 537 0 l 1,23,0
 468 -28 468 -28 442.5 -54.5 c 128,-1,1
199 256 m 1,24,-1
 397 256 l 1,25,-1
 298 600 l 1,26,-1
 199 256 l 1,24,-1
EndSplineSet
EndChar

StartChar: AE
Encoding: 198 198 14
Width: 600
GlyphClass: 2
Flags: W
AnchorPoint: "Anchor-7" 357 690 basechar 0
AnchorPoint: "Anchor-6" 300 0 basechar 0
LayerCount: 2
Fore
SplineSet
324 167 m 1,0,-1
 144 167 l 1,1,-1
 103 0 l 1,2,-1
 -12 0 l 1,3,-1
 180 690 l 1,4,-1
 566 690 l 1,5,-1
 553 604 l 1,6,-1
 337 604 l 1,7,-1
 382 393 l 1,8,-1
 557 393 l 1,9,-1
 557 307 l 1,10,-1
 397 307 l 1,11,-1
 443 86 l 1,12,-1
 606 86 l 1,13,-1
 606 0 l 1,14,-1
 355 0 l 1,15,-1
 324 167 l 1,0,-1
164 254 m 1,16,-1
 307 254 l 1,17,-1
 242 606 l 1,18,-1
 164 254 l 1,16,-1
EndSplineSet
EndChar

StartChar: B
Encoding: 66 66 16
Width: 600
GlyphClass: 2
Flags: W
AnchorPoint: "Anchor-7" 300 690 basechar 0
AnchorPoint: "Anchor-6" 300 0 basechar 0
LayerCount: 2
Fore
SplineSet
476 46 m 128,-1,1
 400 0 400 0 283 0 c 2,2,-1
 81 0 l 1,3,-1
 81 690 l 1,4,-1
 270 690 l 2,5,6
 380 690 380 690 451 649.5 c 128,-1,7
 522 609 522 609 522 515 c 0,8,9
 522 455 522 455 485.5 416.5 c 128,-1,10
 449 378 449 378 394 366 c 1,11,12
 462 354 462 354 507 315.5 c 128,-1,13
 552 277 552 277 552 199 c 0,14,0
 552 92 552 92 476 46 c 128,-1,1
372.5 580 m 128,-1,16
 341 603 341 603 280 603 c 2,17,-1
 197 603 l 1,18,-1
 197 404 l 1,19,-1
 287 404 l 2,20,21
 346 404 346 404 375 428.5 c 128,-1,22
 404 453 404 453 404 506 c 0,23,15
 404 557 404 557 372.5 580 c 128,-1,16
395 290.5 m 128,-1,25
 359 317 359 317 295 317 c 2,26,-1
 197 317 l 1,27,-1
 197 90 l 1,28,-1
 291 90 l 2,29,30
 431 90 431 90 431 199 c 0,31,24
 431 264 431 264 395 290.5 c 128,-1,25
EndSplineSet
EndChar

StartChar: C
Encoding: 67 67 17
Width: 600
GlyphClass: 2
Flags: W
AnchorPoint: "Anchor-7" 364 690 basechar 0
AnchorPoint: "Anchor-6" 351 0 basechar 0
LayerCount: 2
Fore
SplineSet
474 687 m 128,-1,1
 522 670 522 670 566 634 c 1,2,-1
 506 562 l 1,3,4
 443 613 443 613 363 613 c 0,5,6
 279 613 279 613 226 548.5 c 128,-1,7
 173 484 173 484 173 346 c 0,8,9
 173 210 173 210 225 145.5 c 128,-1,10
 277 81 277 81 364 81 c 0,11,12
 414 81 414 81 449.5 96.5 c 128,-1,13
 485 112 485 112 520 140 c 1,14,-1
 576 69 l 1,15,16
 492 -13 492 -13 360 -13 c 0,17,18
 271 -13 271 -13 201 28.5 c 128,-1,19
 131 70 131 70 91.5 151 c 128,-1,20
 52 232 52 232 52 346 c 0,21,22
 52 458 52 458 92.5 539 c 128,-1,23
 133 620 133 620 203 662 c 128,-1,24
 273 704 273 704 358 704 c 0,25,0
 426 704 426 704 474 687 c 128,-1,1
EndSplineSet
EndChar

StartChar: Ccedilla
Encoding: 199 199 20
Width: 600
GlyphClass: 2
Flags: W
AnchorPoint: "Anchor-7" 364 690 basechar 0
AnchorPoint: "Anchor-6" 351 0 basechar 0
LayerCount: 2
Fore
SplineSet
447.5 -82.5 m 128,-1,1
 472 -107 472 -107 472 -143 c 0,2,3
 472 -191 472 -191 434 -219 c 128,-1,4
 396 -247 396 -247 339 -247 c 0,5,6
 308 -247 308 -247 279 -240 c 128,-1,7
 250 -233 250 -233 230 -221 c 1,8,-1
 260 -163 l 1,9,10
 294 -180 294 -180 326 -180 c 0,11,12
 383 -180 383 -180 383 -142 c 0,13,14
 383 -119 383 -119 361.5 -111 c 128,-1,15
 340 -103 340 -103 295 -103 c 1,16,-1
 303 -8 l 1,17,18
 189 11 189 11 120.5 102.5 c 128,-1,19
 52 194 52 194 52 346 c 0,20,21
 52 458 52 458 92.5 539 c 128,-1,22
 133 620 133 620 203 662 c 128,-1,23
 273 704 273 704 358 704 c 0,24,25
 426 704 426 704 474 687 c 128,-1,26
 522 670 522 670 566 634 c 1,27,-1
 506 562 l 1,28,29
 443 613 443 613 363 613 c 0,30,31
 279 613 279 613 226 548.5 c 128,-1,32
 173 484 173 484 173 346 c 0,33,34
 173 210 173 210 225 145.5 c 128,-1,35
 277 81 277 81 364 81 c 0,36,37
 414 81 414 81 449.5 96.5 c 128,-1,38
 485 112 485 112 520 140 c 1,39,-1
 576 69 l 1,40,41
 497 -8 497 -8 375 -13 c 1,42,-1
 375 -54 l 1,43,0
 423 -58 423 -58 447.5 -82.5 c 128,-1,1
EndSplineSet
EndChar

StartChar: D
Encoding: 68 68 23
Width: 600
GlyphClass: 2
Flags: W
AnchorPoint: "Anchor-7" 285 690 basechar 0
AnchorPoint: "Anchor-6" 300 0 basechar 0
LayerCount: 2
Fore
SplineSet
470 76.5 m 128,-1,1
 379 0 379 0 240 0 c 2,2,-1
 71 0 l 1,3,-1
 71 690 l 1,4,-1
 229 690 l 2,5,6
 379 690 379 690 470 617.5 c 128,-1,7
 561 545 561 545 561 349 c 256,8,0
 561 153 561 153 470 76.5 c 128,-1,1
387.5 549 m 128,-1,10
 336 601 336 601 251 601 c 2,11,-1
 187 601 l 1,12,-1
 187 88 l 1,13,-1
 252 88 l 2,14,15
 439 88 439 88 439 349 c 0,16,9
 439 497 439 497 387.5 549 c 128,-1,10
EndSplineSet
EndChar

StartChar: Eth
Encoding: 208 208 24
Width: 600
GlyphClass: 2
Flags: W
AnchorPoint: "Anchor-7" 296 690 basechar 0
AnchorPoint: "Anchor-6" 311 0 basechar 0
LayerCount: 2
Fore
SplineSet
481 617.5 m 128,-1,1
 572 545 572 545 572 349 c 256,2,3
 572 153 572 153 481 76.5 c 128,-1,4
 390 0 390 0 251 0 c 2,5,-1
 82 0 l 1,6,-1
 82 314 l 1,7,-1
 16 314 l 1,8,-1
 16 392 l 1,9,-1
 82 392 l 1,10,-1
 82 690 l 1,11,-1
 240 690 l 2,12,0
 390 690 390 690 481 617.5 c 128,-1,1
450 349 m 0,14,15
 450 497 450 497 398.5 549 c 128,-1,16
 347 601 347 601 262 601 c 2,17,-1
 198 601 l 1,18,-1
 198 392 l 1,19,-1
 342 392 l 1,20,-1
 342 314 l 1,21,-1
 198 314 l 1,22,-1
 198 88 l 1,23,-1
 263 88 l 2,24,13
 450 88 450 88 450 349 c 0,14,15
EndSplineSet
EndChar

StartChar: E
Encoding: 69 69 27
Width: 600
GlyphClass: 2
Flags: W
AnchorPoint: "Anchor-7" 321 690 basechar 0
AnchorPoint: "Anchor-6" 324 0 basechar 0
LayerCount: 2
Fore
SplineSet
229 602 m 1,0,-1
 229 394 l 1,1,-1
 479 394 l 1,2,-1
 479 307 l 1,3,-1
 229 307 l 1,4,-1
 229 88 l 1,5,-1
 534 88 l 1,6,-1
 534 0 l 1,7,-1
 113 0 l 1,8,-1
 113 690 l 1,9,-1
 528 690 l 1,10,-1
 515 602 l 1,11,-1
 229 602 l 1,0,-1
EndSplineSet
EndChar

StartChar: Eogonek
Encoding: 280 280 36
Width: 600
GlyphClass: 2
Flags: W
AnchorPoint: "Anchor-7" 321 690 basechar 0
AnchorPoint: "Anchor-6" 324 0 basechar 0
LayerCount: 2
Fore
SplineSet
534 88 m 1,0,-1
 534 0 l 1,1,-1
 468 0 l 1,2,3
 399 -28 399 -28 373.5 -54.5 c 128,-1,4
 348 -81 348 -81 348 -113 c 0,5,6
 348 -161 348 -161 404 -161 c 0,7,8
 432 -161 432 -161 463 -154 c 1,9,-1
 453 -231 l 1,10,11
 420 -238 420 -238 391 -238 c 0,12,13
 332 -238 332 -238 295 -208.5 c 128,-1,14
 258 -179 258 -179 258 -131 c 0,15,16
 258 -88 258 -88 281.5 -56.5 c 128,-1,17
 305 -25 305 -25 353 0 c 1,18,-1
 113 0 l 1,19,-1
 113 690 l 1,20,-1
 528 690 l 1,21,-1
 515 602 l 1,22,-1
 229 602 l 1,23,-1
 229 394 l 1,24,-1
 479 394 l 1,25,-1
 479 307 l 1,26,-1
 229 307 l 1,27,-1
 229 88 l 1,28,-1
 534 88 l 1,0,-1
EndSplineSet
EndChar

StartChar: F
Encoding: 70 70 37
Width: 600
GlyphClass: 2
Flags: W
AnchorPoint: "Anchor-7" 300 690 basechar 0
AnchorPoint: "Anchor-6" 300 0 basechar 0
LayerCount: 2
Fore
SplineSet
243 602 m 1,0,-1
 243 382 l 1,1,-1
 503 382 l 1,2,-1
 503 294 l 1,3,-1
 243 294 l 1,4,-1
 243 0 l 1,5,-1
 127 0 l 1,6,-1
 127 690 l 1,7,-1
 551 690 l 1,8,-1
 539 602 l 1,9,-1
 243 602 l 1,0,-1
EndSplineSet
EndChar

StartChar: G
Encoding: 71 71 38
Width: 600
GlyphClass: 2
Flags: W
AnchorPoint: "Anchor-7" 330 690 basechar 0
AnchorPoint: "Anchor-6" 329 0 basechar 0
LayerCount: 2
Fore
SplineSet
110.5 78.5 m 128,-1,1
 37 170 37 170 37 346 c 0,2,3
 37 460 37 460 77.5 541 c 128,-1,4
 118 622 118 622 186.5 663 c 128,-1,5
 255 704 255 704 338 704 c 0,6,7
 405 704 405 704 452.5 684.5 c 128,-1,8
 500 665 500 665 543 624 c 1,9,-1
 478 557 l 1,10,11
 446 586 446 586 413.5 599.5 c 128,-1,12
 381 613 381 613 341 613 c 0,13,14
 261 613 261 613 209.5 548.5 c 128,-1,15
 158 484 158 484 158 346 c 0,16,17
 158 204 158 204 198.5 140.5 c 128,-1,18
 239 77 239 77 323 77 c 0,19,20
 387 77 387 77 437 106 c 1,21,-1
 437 296 l 1,22,-1
 320 296 l 1,23,-1
 308 385 l 1,24,-1
 550 385 l 1,25,-1
 550 50 l 1,26,27
 497 20 497 20 441.5 3.5 c 128,-1,28
 386 -13 386 -13 318 -13 c 0,29,0
 184 -13 184 -13 110.5 78.5 c 128,-1,1
EndSplineSet
EndChar

StartChar: H
Encoding: 72 72 43
Width: 600
GlyphClass: 2
Flags: W
AnchorPoint: "Anchor-7" 300 690 basechar 0
AnchorPoint: "Anchor-6" 300 0 basechar 0
LayerCount: 2
Fore
SplineSet
413 0 m 1,0,-1
 413 314 l 1,1,-1
 187 314 l 1,2,-1
 187 0 l 1,3,-1
 71 0 l 1,4,-1
 71 690 l 1,5,-1
 187 690 l 1,6,-1
 187 409 l 1,7,-1
 413 409 l 1,8,-1
 413 690 l 1,9,-1
 529 690 l 1,10,-1
 529 0 l 1,11,-1
 413 0 l 1,0,-1
EndSplineSet
EndChar

StartChar: Hbar
Encoding: 294 294 44
Width: 600
Flags: W
LayerCount: 2
Fore
SplineSet
598 581 m 1,0,-1
 598 506 l 1,1,-1
 527 506 l 1,2,-1
 527 0 l 1,3,-1
 411 0 l 1,4,-1
 411 315 l 1,5,-1
 189 315 l 1,6,-1
 189 0 l 1,7,-1
 73 0 l 1,8,-1
 73 506 l 1,9,-1
 2 506 l 1,10,-1
 2 581 l 1,11,-1
 73 581 l 1,12,-1
 73 690 l 1,13,-1
 189 690 l 1,14,-1
 189 581 l 1,15,-1
 411 581 l 1,16,-1
 411 690 l 1,17,-1
 527 690 l 1,18,-1
 527 581 l 1,19,-1
 598 581 l 1,0,-1
411 408 m 1,20,-1
 411 506 l 1,21,-1
 189 506 l 1,22,-1
 189 408 l 1,23,-1
 411 408 l 1,20,-1
EndSplineSet
EndChar

StartChar: I
Encoding: 73 73 46
Width: 600
GlyphClass: 2
Flags: W
AnchorPoint: "Anchor-7" 300 690 basechar 0
AnchorPoint: "Anchor-6" 300 0 basechar 0
LayerCount: 2
Fore
SplineSet
508 690 m 1,0,-1
 508 602 l 1,1,-1
 358 602 l 1,2,-1
 358 89 l 1,3,-1
 508 89 l 1,4,-1
 508 0 l 1,5,-1
 92 0 l 1,6,-1
 92 89 l 1,7,-1
 242 89 l 1,8,-1
 242 602 l 1,9,-1
 92 602 l 1,10,-1
 92 690 l 1,11,-1
 508 690 l 1,0,-1
EndSplineSet
EndChar

StartChar: IJ
Encoding: 306 306 47
Width: 600
Flags: W
LayerCount: 2
Fore
SplineSet
336 -27.5 m 128,-1,1
 388 4 388 4 407.5 54.5 c 128,-1,2
 427 105 427 105 427 182 c 2,3,-1
 427 607 l 1,4,-1
 213 607 l 1,5,-1
 213 83 l 1,6,-1
 282 83 l 1,7,-1
 282 0 l 1,8,-1
 10 0 l 1,9,-1
 10 83 l 1,10,-1
 100 83 l 1,11,-1
 100 607 l 1,12,-1
 10 607 l 1,13,-1
 10 690 l 1,14,-1
 541 690 l 1,15,-1
 541 181 l 2,16,17
 541 42 541 42 465 -45 c 128,-1,18
 389 -132 389 -132 203 -154 c 1,19,-1
 189 -71 l 1,20,0
 284 -59 284 -59 336 -27.5 c 128,-1,1
EndSplineSet
EndChar

StartChar: Iogonek
Encoding: 302 302 55
Width: 600
GlyphClass: 2
Flags: W
AnchorPoint: "Anchor-7" 300 690 basechar 0
AnchorPoint: "Anchor-6" 300 0 basechar 0
LayerCount: 2
Fore
SplineSet
358 602 m 1,0,-1
 358 89 l 1,1,-1
 508 89 l 1,2,-1
 508 0 l 1,3,-1
 358 0 l 1,4,5
 289 -28 289 -28 263.5 -54.5 c 128,-1,6
 238 -81 238 -81 238 -113 c 0,7,8
 238 -161 238 -161 294 -161 c 0,9,10
 322 -161 322 -161 353 -154 c 1,11,-1
 343 -231 l 1,12,13
 310 -238 310 -238 281 -238 c 0,14,15
 222 -238 222 -238 185 -208.5 c 128,-1,16
 148 -179 148 -179 148 -131 c 0,17,18
 148 -88 148 -88 171.5 -56.5 c 128,-1,19
 195 -25 195 -25 243 0 c 1,20,-1
 92 0 l 1,21,-1
 92 89 l 1,22,-1
 242 89 l 1,23,-1
 242 602 l 1,24,-1
 92 602 l 1,25,-1
 92 690 l 1,26,-1
 508 690 l 1,27,-1
 508 602 l 1,28,-1
 358 602 l 1,0,-1
EndSplineSet
EndChar

StartChar: J
Encoding: 74 74 57
Width: 600
GlyphClass: 2
Flags: W
AnchorPoint: "Anchor-7" 351 690 basechar 0
AnchorPoint: "Anchor-6" 300 0 basechar 0
LayerCount: 2
Fore
SplineSet
508 237 m 2,0,1
 508 128 508 128 445.5 57.5 c 128,-1,2
 383 -13 383 -13 256 -13 c 0,3,4
 147 -13 147 -13 60 51 c 1,5,-1
 107 124 l 1,6,7
 146 99 146 99 181 88.5 c 128,-1,8
 216 78 216 78 252 78 c 0,9,10
 317 78 317 78 354.5 120 c 128,-1,11
 392 162 392 162 392 239 c 2,12,-1
 392 601 l 1,13,-1
 185 601 l 1,14,-1
 185 690 l 1,15,-1
 508 690 l 1,16,-1
 508 237 l 2,0,1
EndSplineSet
EndChar

StartChar: K
Encoding: 75 75 59
Width: 600
GlyphClass: 2
Flags: W
AnchorPoint: "Anchor-7" 317 690 basechar 0
AnchorPoint: "Anchor-6" 314 0 basechar 0
LayerCount: 2
Fore
SplineSet
204 0 m 1,0,-1
 88 0 l 1,1,-1
 88 690 l 1,2,-1
 204 690 l 1,3,-1
 204 0 l 1,0,-1
209 369 m 1,4,-1
 448 690 l 1,5,-1
 576 690 l 1,6,-1
 335 376 l 1,7,-1
 595 0 l 1,8,-1
 456 0 l 1,9,-1
 209 369 l 1,4,-1
EndSplineSet
EndChar

StartChar: L
Encoding: 76 76 61
Width: 600
GlyphClass: 2
Flags: W
AnchorPoint: "Anchor-7" 178 690 basechar 0
AnchorPoint: "Anchor-6" 326 0 basechar 0
LayerCount: 2
Fore
SplineSet
120 0 m 1,0,-1
 120 690 l 1,1,-1
 235 690 l 1,2,-1
 235 97 l 1,3,-1
 545 97 l 1,4,-1
 532 0 l 1,5,-1
 120 0 l 1,0,-1
EndSplineSet
EndChar

StartChar: Lslash
Encoding: 321 321 66
Width: 600
GlyphClass: 2
Flags: W
AnchorPoint: "Anchor-7" 182 690 basechar 0
AnchorPoint: "Anchor-6" 330 0 basechar 0
LayerCount: 2
Fore
SplineSet
239 97 m 1,0,-1
 549 97 l 1,1,-1
 536 0 l 1,2,-1
 124 0 l 1,3,-1
 124 253 l 1,4,-1
 71 220 l 1,5,-1
 28 289 l 1,6,-1
 124 347 l 1,7,-1
 124 690 l 1,8,-1
 239 690 l 1,9,-1
 239 419 l 1,10,-1
 389 512 l 1,11,-1
 433 445 l 1,12,-1
 239 324 l 1,13,-1
 239 97 l 1,0,-1
EndSplineSet
EndChar

StartChar: M
Encoding: 77 77 67
Width: 600
GlyphClass: 2
Flags: W
AnchorPoint: "Anchor-7" 300 690 basechar 0
AnchorPoint: "Anchor-6" 300 0 basechar 0
LayerCount: 2
Fore
SplineSet
575 0 m 1,0,-1
 468 0 l 1,1,-1
 452 336 l 2,2,3
 449 402 449 402 449 463 c 0,4,5
 449 542 449 542 452 588 c 1,6,-1
 350 122 l 1,7,-1
 249 122 l 1,8,-1
 140 588 l 1,9,10
 144 537 144 537 144 431 c 0,11,12
 144 367 144 367 143 335 c 2,13,-1
 129 0 l 1,14,-1
 25 0 l 1,15,-1
 64 690 l 1,16,-1
 203 690 l 1,17,-1
 302 228 l 1,18,-1
 396 690 l 1,19,-1
 536 690 l 1,20,-1
 575 0 l 1,0,-1
EndSplineSet
EndChar

StartChar: N
Encoding: 78 78 68
Width: 600
GlyphClass: 2
Flags: W
AnchorPoint: "Anchor-7" 303 690 basechar 0
AnchorPoint: "Anchor-6" 300 0 basechar 0
LayerCount: 2
Fore
SplineSet
158 587 m 1,0,1
 174 423 174 423 174 313 c 2,2,-1
 174 0 l 1,3,-1
 71 0 l 1,4,-1
 71 690 l 1,5,-1
 222 690 l 1,6,-1
 442 103 l 1,7,8
 435 177 435 177 430.5 236.5 c 128,-1,9
 426 296 426 296 426 376 c 2,10,-1
 426 690 l 1,11,-1
 529 690 l 1,12,-1
 529 0 l 1,13,-1
 378 0 l 1,14,-1
 158 587 l 1,0,1
EndSplineSet
EndChar

StartChar: Eng
Encoding: 330 330 72
Width: 600
GlyphClass: 2
Flags: W
AnchorPoint: "Anchor-7" 303 690 basechar 0
AnchorPoint: "Anchor-6" 300 0 basechar 0
LayerCount: 2
Fore
SplineSet
529 690 m 1,0,-1
 529 -49 l 2,1,2
 529 -132 529 -132 485.5 -175 c 128,-1,3
 442 -218 442 -218 363 -218 c 0,4,5
 295 -218 295 -218 242 -178 c 1,6,-1
 285 -108 l 1,7,8
 305 -119 305 -119 319.5 -124 c 128,-1,9
 334 -129 334 -129 355 -129 c 0,10,11
 413 -129 413 -129 413 -57 c 2,12,-1
 413 0 l 1,13,-1
 378 0 l 1,14,-1
 158 587 l 1,15,16
 174 423 174 423 174 313 c 2,17,-1
 174 0 l 1,18,-1
 71 0 l 1,19,-1
 71 690 l 1,20,-1
 222 690 l 1,21,-1
 442 103 l 1,22,23
 435 177 435 177 430.5 236.5 c 128,-1,24
 426 296 426 296 426 376 c 2,25,-1
 426 690 l 1,26,-1
 529 690 l 1,0,-1
EndSplineSet
EndChar

StartChar: O
Encoding: 79 79 74
Width: 600
GlyphClass: 2
Flags: W
AnchorPoint: "Anchor-7" 300 690 basechar 0
AnchorPoint: "Anchor-6" 300 0 basechar 0
LayerCount: 2
Fore
SplineSet
494.5 84 m 128,-1,1
 427 -13 427 -13 300 -13 c 256,2,3
 173 -13 173 -13 105.5 82.5 c 128,-1,4
 38 178 38 178 38 344 c 0,5,6
 38 508 38 508 105.5 606 c 128,-1,7
 173 704 173 704 300 704 c 256,8,9
 427 704 427 704 494.5 607.5 c 128,-1,10
 562 511 562 511 562 345 c 0,11,0
 562 181 562 181 494.5 84 c 128,-1,1
409 547 m 128,-1,13
 375 613 375 613 300 613 c 256,14,15
 225 613 225 613 191 547 c 128,-1,16
 157 481 157 481 157 344 c 0,17,18
 157 209 157 209 191.5 143 c 128,-1,19
 226 77 226 77 300 77 c 0,20,21
 375 77 375 77 409 143 c 128,-1,22
 443 209 443 209 443 345 c 256,23,12
 443 481 443 481 409 547 c 128,-1,13
EndSplineSet
Substitution2: "Single Substitution lookup 159 subtable" ordmasculine
Substitution2: "'aalt' Access All Alternates lookup 0 subtable" ordmasculine
EndChar

StartChar: Oslash
Encoding: 216 216 82
Width: 600
GlyphClass: 2
Flags: W
AnchorPoint: "Anchor-7" 300 690 basechar 0
AnchorPoint: "Anchor-6" 300 0 basechar 0
LayerCount: 2
Fore
SplineSet
531.5 535 m 128,-1,1
 562 454 562 454 562 345 c 0,2,3
 562 181 562 181 494.5 84 c 128,-1,4
 427 -13 427 -13 300 -13 c 0,5,6
 270 -13 270 -13 241 -7 c 1,7,-1
 210 -110 l 1,8,-1
 121 -85 l 1,9,-1
 158 31 l 1,10,11
 100 74 100 74 69 154.5 c 128,-1,12
 38 235 38 235 38 344 c 0,13,14
 38 508 38 508 105.5 606 c 128,-1,15
 173 704 173 704 300 704 c 0,16,17
 333 704 333 704 360 697 c 1,18,-1
 391 803 l 1,19,-1
 479 778 l 1,20,-1
 443 659 l 1,21,0
 501 616 501 616 531.5 535 c 128,-1,1
190 548 m 128,-1,23
 156 482 156 482 156 344 c 0,24,25
 156 261 156 261 167 206 c 128,-1,26
 178 151 178 151 201 120 c 1,27,-1
 342 609 l 1,28,29
 322 614 322 614 300 614 c 0,30,22
 224 614 224 614 190 548 c 128,-1,23
410 142 m 128,-1,32
 444 208 444 208 444 345 c 0,33,34
 444 429 444 429 433 484 c 128,-1,35
 422 539 422 539 399 570 c 1,36,-1
 258 81 l 1,37,38
 280 76 280 76 300 76 c 0,39,31
 376 76 376 76 410 142 c 128,-1,32
EndSplineSet
EndChar

StartChar: OE
Encoding: 338 338 85
Width: 600
GlyphClass: 2
Flags: W
AnchorPoint: "Anchor-7" 300 690 basechar 0
AnchorPoint: "Anchor-6" 300 0 basechar 0
LayerCount: 2
Fore
SplineSet
297 690 m 1,1,-1
 604 690 l 1,2,-1
 591 604 l 1,3,-1
 371 604 l 1,4,5
 419 538 419 538 426 393 c 1,6,-1
 567 393 l 1,7,-1
 567 307 l 1,8,-1
 426 307 l 1,9,10
 422 159 422 159 366 86 c 1,11,-1
 609 86 l 1,12,-1
 609 0 l 1,13,-1
 294 0 l 1,14,15
 253 -13 253 -13 217 -13 c 0,16,17
 108 -13 108 -13 55.5 77 c 128,-1,18
 3 167 3 167 3 344 c 0,19,20
 3 519 3 519 56 611.5 c 128,-1,21
 109 704 109 704 217 704 c 0,22,0
 255 704 255 704 297 690 c 1,1,-1
138 554 m 128,-1,24
 114 491 114 491 114 344 c 0,25,26
 114 199 114 199 139 135.5 c 128,-1,27
 164 72 164 72 217 72 c 0,28,29
 273 72 273 72 297.5 135.5 c 128,-1,30
 322 199 322 199 322 345 c 0,31,32
 322 445 322 445 311.5 504 c 128,-1,33
 301 563 301 563 278 590 c 128,-1,34
 255 617 255 617 217 617 c 0,35,23
 162 617 162 617 138 554 c 128,-1,24
EndSplineSet
EndChar

StartChar: P
Encoding: 80 80 86
Width: 600
GlyphClass: 2
Flags: W
AnchorPoint: "Anchor-7" 300 690 basechar 0
AnchorPoint: "Anchor-6" 300 0 basechar 0
LayerCount: 2
Fore
SplineSet
492 301.5 m 128,-1,1
 420 246 420 246 295 246 c 2,2,-1
 211 246 l 1,3,-1
 211 0 l 1,4,-1
 96 0 l 1,5,-1
 96 690 l 1,6,-1
 287 690 l 2,7,8
 420 690 420 690 492 635.5 c 128,-1,9
 564 581 564 581 564 473 c 0,10,0
 564 357 564 357 492 301.5 c 128,-1,1
295 603 m 2,12,-1
 211 603 l 1,13,-1
 211 334 l 1,14,-1
 296 334 l 2,15,16
 366 334 366 334 404.5 366 c 128,-1,17
 443 398 443 398 443 473 c 0,18,11
 443 603 443 603 295 603 c 2,12,-1
EndSplineSet
EndChar

StartChar: Thorn
Encoding: 222 222 87
Width: 600
GlyphClass: 2
Flags: W
AnchorPoint: "Anchor-7" 300 690 basechar 0
AnchorPoint: "Anchor-6" 300 0 basechar 0
LayerCount: 2
Fore
SplineSet
205 575 m 1,0,-1
 287 575 l 2,1,2
 420 575 420 575 492 520 c 128,-1,3
 564 465 564 465 564 355 c 0,4,5
 564 238 564 238 492.5 181 c 128,-1,6
 421 124 421 124 295 124 c 2,7,-1
 205 124 l 1,8,-1
 205 0 l 1,9,-1
 89 0 l 1,10,-1
 89 690 l 1,11,-1
 205 690 l 1,12,-1
 205 575 l 1,0,-1
205 488 m 1,13,-1
 205 212 l 1,14,-1
 298 212 l 2,15,16
 367 212 367 212 404.5 244 c 128,-1,17
 442 276 442 276 442 353 c 0,18,19
 442 423 442 423 404 455.5 c 128,-1,20
 366 488 366 488 296 488 c 2,21,-1
 205 488 l 1,13,-1
EndSplineSet
EndChar

StartChar: Q
Encoding: 81 81 88
Width: 600
GlyphClass: 2
Flags: W
AnchorPoint: "Anchor-7" 300 690 basechar 0
AnchorPoint: "Anchor-6" 300 0 basechar 0
LayerCount: 2
Fore
SplineSet
528.5 152.5 m 128,-1,1
 495 73 495 73 418 32 c 1,2,3
 495 17 495 17 538.5 -19.5 c 128,-1,4
 582 -56 582 -56 608 -133 c 1,5,-1
 501 -173 l 1,6,7
 478 -116 478 -116 452 -81.5 c 128,-1,8
 426 -47 426 -47 387 -29 c 128,-1,9
 348 -11 348 -11 290 -11 c 0,10,11
 169 -11 169 -11 104.5 83.5 c 128,-1,12
 40 178 40 178 40 344 c 0,13,14
 40 509 40 509 107.5 606.5 c 128,-1,15
 175 704 175 704 301 704 c 0,16,17
 428 704 428 704 495 608 c 128,-1,18
 562 512 562 512 562 345 c 0,19,0
 562 232 562 232 528.5 152.5 c 128,-1,1
408.5 547.5 m 128,-1,21
 376 613 376 613 301 613 c 256,22,23
 226 613 226 613 193.5 547 c 128,-1,24
 161 481 161 481 161 344 c 0,25,26
 161 208 161 208 194.5 142.5 c 128,-1,27
 228 77 228 77 301 77 c 0,28,29
 376 77 376 77 408.5 142.5 c 128,-1,30
 441 208 441 208 441 345 c 256,31,20
 441 482 441 482 408.5 547.5 c 128,-1,21
EndSplineSet
EndChar

StartChar: R
Encoding: 82 82 89
Width: 600
GlyphClass: 2
Flags: W
AnchorPoint: "Anchor-7" 300 690 basechar 0
AnchorPoint: "Anchor-6" 303 0 basechar 0
LayerCount: 2
Fore
SplineSet
503 370 m 128,-1,1
 460 322 460 322 389 300 c 1,2,-1
 585 0 l 1,3,-1
 450 0 l 1,4,-1
 276 284 l 1,5,-1
 201 284 l 1,6,-1
 201 0 l 1,7,-1
 85 0 l 1,8,-1
 85 690 l 1,9,-1
 277 690 l 2,10,11
 546 690 546 690 546 490 c 0,12,0
 546 418 546 418 503 370 c 128,-1,1
390.5 577 m 128,-1,14
 356 604 356 604 284 604 c 2,15,-1
 201 604 l 1,16,-1
 201 369 l 1,17,-1
 287 369 l 2,18,19
 355 369 355 369 390 398 c 128,-1,20
 425 427 425 427 425 490 c 0,21,13
 425 550 425 550 390.5 577 c 128,-1,14
EndSplineSet
EndChar

StartChar: S
Encoding: 83 83 93
Width: 600
GlyphClass: 2
Flags: W
AnchorPoint: "Anchor-7" 307 690 basechar 0
AnchorPoint: "Anchor-6" 298 0 basechar 0
LayerCount: 2
Fore
SplineSet
517.5 86 m 128,-1,1
 486 39 486 39 426.5 13 c 128,-1,2
 367 -13 367 -13 285 -13 c 0,3,4
 125 -13 125 -13 31 79 c 1,5,-1
 95 150 l 1,6,7
 173 78 173 78 285 78 c 0,8,9
 347 78 347 78 387.5 107 c 128,-1,10
 428 136 428 136 428 189 c 0,11,12
 428 220 428 220 415.5 241 c 128,-1,13
 403 262 403 262 373 278.5 c 128,-1,14
 343 295 343 295 287 312 c 0,15,16
 172 346 172 346 118 393 c 128,-1,17
 64 440 64 440 64 517 c 0,18,19
 64 572 64 572 94.5 614.5 c 128,-1,20
 125 657 125 657 179 680.5 c 128,-1,21
 233 704 233 704 301 704 c 0,22,23
 440 704 440 704 532 621 c 1,24,-1
 471 552 l 1,25,26
 400 613 400 613 308 613 c 0,27,28
 252 613 252 613 217.5 590 c 128,-1,29
 183 567 183 567 183 524 c 0,30,31
 183 497 183 497 197.5 478 c 128,-1,32
 212 459 212 459 246.5 443.5 c 128,-1,33
 281 428 281 428 344 409 c 0,34,35
 444 379 444 379 496.5 332 c 128,-1,36
 549 285 549 285 549 195 c 0,37,0
 549 133 549 133 517.5 86 c 128,-1,1
EndSplineSet
EndChar

StartChar: Scedilla
Encoding: 350 350 96
Width: 600
GlyphClass: 2
Flags: W
AnchorPoint: "Anchor-7" 307 690 basechar 0
AnchorPoint: "Anchor-6" 298 0 basechar 0
LayerCount: 2
Fore
SplineSet
489 53 m 128,-1,1
 429 -3 429 -3 322 -12 c 1,2,-1
 322 -54 l 1,3,4
 370 -58 370 -58 394.5 -82.5 c 128,-1,5
 419 -107 419 -107 419 -143 c 0,6,7
 419 -191 419 -191 381 -219 c 128,-1,8
 343 -247 343 -247 286 -247 c 0,9,10
 255 -247 255 -247 226 -240 c 128,-1,11
 197 -233 197 -233 177 -221 c 1,12,-1
 207 -163 l 1,13,14
 241 -180 241 -180 273 -180 c 0,15,16
 330 -180 330 -180 330 -142 c 0,17,18
 330 -119 330 -119 308.5 -111 c 128,-1,19
 287 -103 287 -103 242 -103 c 1,20,-1
 250 -12 l 1,21,22
 114 -2 114 -2 31 79 c 1,23,-1
 95 150 l 1,24,25
 173 78 173 78 285 78 c 0,26,27
 347 78 347 78 387.5 107 c 128,-1,28
 428 136 428 136 428 189 c 0,29,30
 428 220 428 220 415.5 241 c 128,-1,31
 403 262 403 262 373 278.5 c 128,-1,32
 343 295 343 295 287 312 c 0,33,34
 172 346 172 346 118 393 c 128,-1,35
 64 440 64 440 64 517 c 0,36,37
 64 572 64 572 94.5 614.5 c 128,-1,38
 125 657 125 657 179 680.5 c 128,-1,39
 233 704 233 704 301 704 c 0,40,41
 440 704 440 704 532 621 c 1,42,-1
 471 552 l 1,43,44
 400 613 400 613 308 613 c 0,45,46
 252 613 252 613 217.5 590 c 128,-1,47
 183 567 183 567 183 524 c 0,48,49
 183 497 183 497 197.5 478 c 128,-1,50
 212 459 212 459 246.5 443.5 c 128,-1,51
 281 428 281 428 344 409 c 0,52,53
 444 379 444 379 496.5 332 c 128,-1,54
 549 285 549 285 549 195 c 0,55,0
 549 109 549 109 489 53 c 128,-1,1
EndSplineSet
Substitution2: "'locl' Localized Forms in Latin lookup 16 subtable" Scommaaccent
Substitution2: "'locl' Localized Forms in Latin lookup 15 subtable" Scommaaccent
Substitution2: "'aalt' Access All Alternates lookup 0 subtable" Scommaaccent
EndChar

StartChar: T
Encoding: 84 84 99
Width: 600
GlyphClass: 2
Flags: W
AnchorPoint: "Anchor-7" 299 690 basechar 0
AnchorPoint: "Anchor-6" 299 0 basechar 0
LayerCount: 2
Fore
SplineSet
357 596 m 1,0,-1
 357 0 l 1,1,-1
 241 0 l 1,2,-1
 241 596 l 1,3,-1
 33 596 l 1,4,-1
 33 690 l 1,5,-1
 568 690 l 1,6,-1
 556 596 l 1,7,-1
 357 596 l 1,0,-1
EndSplineSet
EndChar

StartChar: Tbar
Encoding: 358 358 100
Width: 600
GlyphClass: 2
Flags: W
AnchorPoint: "Anchor-7" 299 690 basechar 0
AnchorPoint: "Anchor-6" 299 0 basechar 0
LayerCount: 2
Fore
SplineSet
556 596 m 1,0,-1
 357 596 l 1,1,-1
 357 413 l 1,2,-1
 483 413 l 1,3,-1
 483 336 l 1,4,-1
 357 336 l 1,5,-1
 357 0 l 1,6,-1
 241 0 l 1,7,-1
 241 336 l 1,8,-1
 116 336 l 1,9,-1
 116 413 l 1,10,-1
 241 413 l 1,11,-1
 241 596 l 1,12,-1
 33 596 l 1,13,-1
 33 690 l 1,14,-1
 568 690 l 1,15,-1
 556 596 l 1,0,-1
EndSplineSet
EndChar

StartChar: uni0162
Encoding: 354 354 102
Width: 600
GlyphClass: 2
Flags: W
AnchorPoint: "Anchor-7" 299 690 basechar 0
AnchorPoint: "Anchor-6" 299 0 basechar 0
LayerCount: 2
Fore
SplineSet
335 0 m 1,0,-1
 335 -54 l 1,1,2
 383 -58 383 -58 407.5 -82.5 c 128,-1,3
 432 -107 432 -107 432 -143 c 0,4,5
 432 -191 432 -191 394 -219 c 128,-1,6
 356 -247 356 -247 299 -247 c 0,7,8
 268 -247 268 -247 239 -240 c 128,-1,9
 210 -233 210 -233 190 -221 c 1,10,-1
 220 -163 l 1,11,12
 254 -180 254 -180 286 -180 c 0,13,14
 343 -180 343 -180 343 -142 c 0,15,16
 343 -119 343 -119 321.5 -111 c 128,-1,17
 300 -103 300 -103 255 -103 c 1,18,-1
 264 0 l 1,19,-1
 241 0 l 1,20,-1
 241 596 l 1,21,-1
 33 596 l 1,22,-1
 33 690 l 1,23,-1
 568 690 l 1,24,-1
 556 596 l 1,25,-1
 357 596 l 1,26,-1
 357 0 l 1,27,-1
 335 0 l 1,0,-1
EndSplineSet
Substitution2: "'locl' Localized Forms in Latin lookup 16 subtable" uni021A
Substitution2: "'locl' Localized Forms in Latin lookup 15 subtable" uni021A
Substitution2: "'aalt' Access All Alternates lookup 0 subtable" uni021A
EndChar

StartChar: U
Encoding: 85 85 104
Width: 600
GlyphClass: 2
Flags: W
AnchorPoint: "Anchor-7" 300 690 basechar 0
AnchorPoint: "Anchor-6" 300 0 basechar 0
LayerCount: 2
Fore
SplineSet
539 226 m 2,0,1
 539 156 539 156 510.5 102 c 128,-1,2
 482 48 482 48 428 17.5 c 128,-1,3
 374 -13 374 -13 299 -13 c 0,4,5
 186 -13 186 -13 123.5 52 c 128,-1,6
 61 117 61 117 61 226 c 2,7,-1
 61 690 l 1,8,-1
 177 690 l 1,9,-1
 177 248 l 2,10,11
 177 162 177 162 206.5 120.5 c 128,-1,12
 236 79 236 79 299 79 c 0,13,14
 363 79 363 79 392.5 120.5 c 128,-1,15
 422 162 422 162 422 248 c 2,16,-1
 422 690 l 1,17,-1
 539 690 l 1,18,-1
 539 226 l 2,0,1
EndSplineSet
EndChar

StartChar: Uogonek
Encoding: 370 370 112
Width: 600
GlyphClass: 2
Flags: W
AnchorPoint: "Anchor-7" 300 690 basechar 0
AnchorPoint: "Anchor-6" 300 0 basechar 0
LayerCount: 2
Fore
SplineSet
539 690 m 1,0,-1
 539 226 l 2,1,2
 539 142 539 142 499 82 c 128,-1,3
 459 22 459 22 385 -1 c 1,4,5
 317 -28 317 -28 292 -54.5 c 128,-1,6
 267 -81 267 -81 267 -113 c 0,7,8
 267 -161 267 -161 323 -161 c 0,9,10
 351 -161 351 -161 382 -154 c 1,11,-1
 372 -231 l 1,12,13
 339 -238 339 -238 310 -238 c 0,14,15
 251 -238 251 -238 214 -208.5 c 128,-1,16
 177 -179 177 -179 177 -131 c 0,17,18
 177 -93 177 -93 196.5 -63.5 c 128,-1,19
 216 -34 216 -34 254 -10 c 1,20,21
 162 3 162 3 111.5 66 c 128,-1,22
 61 129 61 129 61 226 c 2,23,-1
 61 690 l 1,24,-1
 177 690 l 1,25,-1
 177 248 l 2,26,27
 177 162 177 162 206.5 120.5 c 128,-1,28
 236 79 236 79 299 79 c 0,29,30
 363 79 363 79 392.5 120.5 c 128,-1,31
 422 162 422 162 422 248 c 2,32,-1
 422 690 l 1,33,-1
 539 690 l 1,0,-1
EndSplineSet
EndChar

StartChar: V
Encoding: 86 86 115
Width: 600
GlyphClass: 2
Flags: W
AnchorPoint: "Anchor-7" 300 690 basechar 0
AnchorPoint: "Anchor-6" 300 0 basechar 0
LayerCount: 2
Fore
SplineSet
302 110 m 1,0,-1
 467 690 l 1,1,-1
 585 690 l 1,2,-1
 366 0 l 1,3,-1
 234 0 l 1,4,-1
 15 690 l 1,5,-1
 139 690 l 1,6,-1
 302 110 l 1,0,-1
EndSplineSet
EndChar

StartChar: W
Encoding: 87 87 116
Width: 600
GlyphClass: 2
Flags: W
AnchorPoint: "Anchor-7" 300 690 basechar 0
AnchorPoint: "Anchor-6" 300 0 basechar 0
LayerCount: 2
Fore
SplineSet
598 690 m 1,0,-1
 503 0 l 1,1,-1
 367 0 l 1,2,-1
 299 511 l 1,3,-1
 228 0 l 1,4,-1
 90 0 l 1,5,-1
 2 690 l 1,6,-1
 114 690 l 1,7,-1
 168 112 l 1,8,-1
 242 610 l 1,9,-1
 361 610 l 1,10,-1
 430 112 l 1,11,-1
 494 690 l 1,12,-1
 598 690 l 1,0,-1
EndSplineSet
EndChar

StartChar: X
Encoding: 88 88 121
Width: 600
GlyphClass: 2
Flags: W
AnchorPoint: "Anchor-7" 300 690 basechar 0
AnchorPoint: "Anchor-6" 300 0 basechar 0
LayerCount: 2
Fore
SplineSet
38 690 m 1,0,-1
 167 690 l 1,1,-1
 300 442 l 1,2,-1
 435 690 l 1,3,-1
 558 690 l 1,4,-1
 367 373 l 1,5,-1
 580 0 l 1,6,-1
 451 0 l 1,7,-1
 298 293 l 1,8,-1
 144 0 l 1,9,-1
 21 0 l 1,10,-1
 229 367 l 1,11,-1
 38 690 l 1,0,-1
EndSplineSet
EndChar

StartChar: Y
Encoding: 89 89 122
Width: 600
GlyphClass: 2
Flags: W
AnchorPoint: "Anchor-7" 302 690 basechar 0
AnchorPoint: "Anchor-6" 300 0 basechar 0
LayerCount: 2
Fore
SplineSet
358 264 m 1,0,-1
 358 0 l 1,1,-1
 242 0 l 1,2,-1
 242 263 l 1,3,-1
 11 690 l 1,4,-1
 139 690 l 1,5,-1
 302 363 l 1,6,-1
 467 690 l 1,7,-1
 589 690 l 1,8,-1
 358 264 l 1,0,-1
EndSplineSet
EndChar

StartChar: Z
Encoding: 90 90 127
Width: 600
GlyphClass: 2
Flags: W
AnchorPoint: "Anchor-7" 317 690 basechar 0
AnchorPoint: "Anchor-6" 300 0 basechar 0
LayerCount: 2
Fore
SplineSet
192 96 m 1,0,-1
 540 96 l 1,1,-1
 528 0 l 1,2,-1
 59 0 l 1,3,-1
 59 90 l 1,4,-1
 410 596 l 1,5,-1
 95 596 l 1,6,-1
 95 690 l 1,7,-1
 538 690 l 1,8,-1
 538 599 l 1,9,-1
 192 96 l 1,0,-1
EndSplineSet
EndChar

StartChar: a
Encoding: 97 97 136
Width: 600
GlyphClass: 2
Flags: W
AnchorPoint: "Anchor-7" 292 528 basechar 0
AnchorPoint: "Anchor-6" 300 0 basechar 0
LayerCount: 2
Fore
SplineSet
502 84.5 m 128,-1,1
 511 70 511 70 533 63 c 1,2,-1
 507 -13 l 1,3,4
 424 -3 424 -3 398 60 c 1,5,6
 369 24 369 24 325.5 5.5 c 128,-1,7
 282 -13 282 -13 230 -13 c 0,8,9
 150 -13 150 -13 103 32 c 128,-1,10
 56 77 56 77 56 151 c 0,11,12
 56 234 56 234 121.5 279 c 128,-1,13
 187 324 187 324 307 324 c 2,14,-1
 382 324 l 1,15,-1
 382 358 l 2,16,17
 382 408 382 408 352 431 c 128,-1,18
 322 454 322 454 265 454 c 0,19,20
 237 454 237 454 200 447 c 128,-1,21
 163 440 163 440 125 427 c 1,22,-1
 97 506 l 1,23,24
 192 542 192 542 282 542 c 0,25,26
 387 542 387 542 440 496 c 128,-1,27
 493 450 493 450 493 365 c 2,28,-1
 493 129 l 2,29,0
 493 99 493 99 502 84.5 c 128,-1,1
330.5 87 m 128,-1,31
 363 105 363 105 382 137 c 1,32,-1
 382 254 l 1,33,-1
 320 254 l 2,34,35
 244 254 244 254 209 228.5 c 128,-1,36
 174 203 174 203 174 155 c 0,37,38
 174 113 174 113 196.5 91 c 128,-1,39
 219 69 219 69 263 69 c 0,40,30
 298 69 298 69 330.5 87 c 128,-1,31
EndSplineSet
Substitution2: "Single Substitution lookup 159 subtable" ordfeminine
Substitution2: "'aalt' Access All Alternates lookup 0 subtable" ordfeminine
EndChar

StartChar: aogonek
Encoding: 261 261 143
Width: 600
GlyphClass: 2
Flags: W
AnchorPoint: "Anchor-7" 292 528 basechar 0
AnchorPoint: "Anchor-6" 300 0 basechar 0
LayerCount: 2
Fore
SplineSet
412.5 -67.5 m 128,-1,1
 387 -94 387 -94 387 -126 c 0,2,3
 387 -174 387 -174 443 -174 c 0,4,5
 471 -174 471 -174 502 -167 c 1,6,-1
 492 -244 l 1,7,8
 459 -251 459 -251 430 -251 c 0,9,10
 371 -251 371 -251 334 -221.5 c 128,-1,11
 297 -192 297 -192 297 -144 c 0,12,13
 297 -92 297 -92 332.5 -55.5 c 128,-1,14
 368 -19 368 -19 440 9 c 1,15,16
 411 27 411 27 398 60 c 1,17,18
 369 24 369 24 325.5 5.5 c 128,-1,19
 282 -13 282 -13 230 -13 c 0,20,21
 150 -13 150 -13 103 32 c 128,-1,22
 56 77 56 77 56 151 c 0,23,24
 56 234 56 234 121.5 279 c 128,-1,25
 187 324 187 324 307 324 c 2,26,-1
 382 324 l 1,27,-1
 382 358 l 2,28,29
 382 408 382 408 352 431 c 128,-1,30
 322 454 322 454 265 454 c 0,31,32
 237 454 237 454 200 447 c 128,-1,33
 163 440 163 440 125 427 c 1,34,-1
 97 506 l 1,35,36
 192 542 192 542 282 542 c 0,37,38
 387 542 387 542 440 496 c 128,-1,39
 493 450 493 450 493 365 c 2,40,-1
 493 129 l 2,41,42
 493 99 493 99 502 84.5 c 128,-1,43
 511 70 511 70 533 63 c 1,44,-1
 507 -13 l 1,45,0
 438 -41 438 -41 412.5 -67.5 c 128,-1,1
382 254 m 1,46,-1
 320 254 l 2,47,48
 244 254 244 254 209 228.5 c 128,-1,49
 174 203 174 203 174 155 c 0,50,51
 174 113 174 113 196.5 91 c 128,-1,52
 219 69 219 69 263 69 c 0,53,54
 298 69 298 69 330.5 87 c 128,-1,55
 363 105 363 105 382 137 c 1,56,-1
 382 254 l 1,46,-1
EndSplineSet
EndChar

StartChar: ae
Encoding: 230 230 146
Width: 600
GlyphClass: 2
Flags: W
AnchorPoint: "Anchor-7" 306 528 basechar 0
AnchorPoint: "Anchor-6" 0 0 basechar 0
LayerCount: 2
Fore
SplineSet
604 278 m 0,1,2
 604 258 604 258 602 230 c 1,3,-1
 344 230 l 1,4,5
 351 147 351 147 376 108.5 c 128,-1,6
 401 70 401 70 450 70 c 0,7,8
 476 70 476 70 498 79 c 128,-1,9
 520 88 520 88 545 107 c 1,10,-1
 592 41 l 1,11,12
 560 15 560 15 525 1 c 128,-1,13
 490 -13 490 -13 446 -13 c 0,14,15
 344 -13 344 -13 293 74 c 1,16,17
 260 27 260 27 227 7 c 128,-1,18
 194 -13 194 -13 145 -13 c 0,19,20
 76 -13 76 -13 35 32 c 128,-1,21
 -6 77 -6 77 -6 151 c 0,22,23
 -6 235 -6 235 47 279 c 128,-1,24
 100 323 100 323 204 323 c 2,25,-1
 248 323 l 1,26,-1
 248 358 l 2,27,28
 248 462 248 462 157 462 c 0,29,30
 133 462 133 462 111.5 456 c 128,-1,31
 90 450 90 450 57 435 c 1,32,-1
 30 507 l 1,33,34
 105 542 105 542 168 542 c 0,35,36
 223 542 223 542 255.5 521 c 128,-1,37
 288 500 288 500 306 461 c 1,38,39
 322 499 322 499 354.5 520.5 c 128,-1,40
 387 542 387 542 432 542 c 0,41,0
 604 542 604 542 604 278 c 0,1,2
368 425.5 m 128,-1,43
 348 390 348 390 344 304 c 1,44,-1
 508 304 l 1,45,46
 507 385 507 385 489.5 423 c 128,-1,47
 472 461 472 461 428 461 c 0,48,42
 388 461 388 461 368 425.5 c 128,-1,43
213 254 m 2,49,50
 152 254 152 254 126 229.5 c 128,-1,51
 100 205 100 205 100 157 c 0,52,53
 100 113 100 113 117 89.5 c 128,-1,54
 134 66 134 66 164 66 c 0,55,56
 191 66 191 66 212.5 86 c 128,-1,57
 234 106 234 106 258 149 c 1,58,59
 248 195 248 195 248 254 c 1,60,-1
 213 254 l 2,49,50
EndSplineSet
EndChar

StartChar: b
Encoding: 98 98 148
Width: 600
GlyphClass: 2
Flags: W
AnchorPoint: "Anchor-7" 300 740 basechar 0
AnchorPoint: "Anchor-6" 300 0 basechar 0
LayerCount: 2
Fore
SplineSet
265.5 522 m 128,-1,1
 303 542 303 542 346 542 c 0,2,3
 447 542 447 542 495 469 c 128,-1,4
 543 396 543 396 543 265 c 0,5,6
 543 141 543 141 487.5 64 c 128,-1,7
 432 -13 432 -13 332 -13 c 0,8,9
 244 -13 244 -13 194 52 c 1,10,-1
 188 0 l 1,11,-1
 89 0 l 1,12,-1
 89 740 l 1,13,-1
 201 753 l 1,14,-1
 201 465 l 1,15,0
 228 502 228 502 265.5 522 c 128,-1,1
393.5 119.5 m 128,-1,17
 424 167 424 167 424 264 c 0,18,19
 424 364 424 364 396.5 410 c 128,-1,20
 369 456 369 456 315 456 c 0,21,22
 281 456 281 456 251.5 435 c 128,-1,23
 222 414 222 414 201 380 c 1,24,-1
 201 133 l 1,25,26
 241 72 241 72 305 72 c 0,27,16
 363 72 363 72 393.5 119.5 c 128,-1,17
EndSplineSet
EndChar

StartChar: c
Encoding: 99 99 149
Width: 600
GlyphClass: 2
Flags: W
AnchorPoint: "Anchor-7" 344 518 basechar 0
AnchorPoint: "Anchor-6" 339 0 basechar 0
LayerCount: 2
Fore
SplineSet
474 124 m 1,1,-1
 525 52 l 1,2,3
 490 22 490 22 441 4.5 c 128,-1,4
 392 -13 392 -13 340 -13 c 0,5,6
 219 -13 219 -13 151 61.5 c 128,-1,7
 83 136 83 136 83 261 c 0,8,9
 83 342 83 342 114 405.5 c 128,-1,10
 145 469 145 469 203.5 505.5 c 128,-1,11
 262 542 262 542 342 542 c 0,12,13
 447 542 447 542 525 478 c 1,14,-1
 473 408 l 1,15,16
 409 452 409 452 344 452 c 0,17,18
 278 452 278 452 240 404.5 c 128,-1,19
 202 357 202 357 202 261 c 0,20,21
 202 167 202 167 240 123 c 128,-1,22
 278 79 278 79 344 79 c 0,23,0
 407 79 407 79 474 124 c 1,1,-1
EndSplineSet
EndChar

StartChar: ccedilla
Encoding: 231 231 152
Width: 600
GlyphClass: 2
Flags: W
AnchorPoint: "Anchor-7" 344 518 basechar 0
AnchorPoint: "Anchor-6" 339 0 basechar 0
LayerCount: 2
Fore
SplineSet
451.5 9 m 128,-1,1
 409 -8 409 -8 363 -12 c 1,2,-1
 363 -54 l 1,3,4
 411 -58 411 -58 435.5 -82.5 c 128,-1,5
 460 -107 460 -107 460 -143 c 0,6,7
 460 -191 460 -191 422 -219 c 128,-1,8
 384 -247 384 -247 327 -247 c 0,9,10
 296 -247 296 -247 267 -240 c 128,-1,11
 238 -233 238 -233 218 -221 c 1,12,-1
 248 -163 l 1,13,14
 282 -180 282 -180 314 -180 c 0,15,16
 371 -180 371 -180 371 -142 c 0,17,18
 371 -119 371 -119 349.5 -111 c 128,-1,19
 328 -103 328 -103 283 -103 c 1,20,-1
 291 -9 l 1,21,22
 192 6 192 6 137.5 77.5 c 128,-1,23
 83 149 83 149 83 261 c 0,24,25
 83 342 83 342 114 405.5 c 128,-1,26
 145 469 145 469 203.5 505.5 c 128,-1,27
 262 542 262 542 342 542 c 0,28,29
 447 542 447 542 525 478 c 1,30,-1
 473 408 l 1,31,32
 409 452 409 452 344 452 c 0,33,34
 278 452 278 452 240 404.5 c 128,-1,35
 202 357 202 357 202 261 c 0,36,37
 202 167 202 167 240 123 c 128,-1,38
 278 79 278 79 344 79 c 0,39,40
 407 79 407 79 474 124 c 1,41,-1
 525 52 l 1,42,0
 494 26 494 26 451.5 9 c 128,-1,1
EndSplineSet
EndChar

StartChar: d
Encoding: 100 100 155
Width: 600
GlyphClass: 2
Flags: W
AnchorPoint: "Anchor-7" 300 740 basechar 0
AnchorPoint: "Anchor-6" 300 0 basechar 0
LayerCount: 2
Fore
SplineSet
511 740 m 1,0,-1
 511 0 l 1,1,-1
 412 0 l 1,2,-1
 404 65 l 1,3,4
 378 27 378 27 340 7 c 128,-1,5
 302 -13 302 -13 256 -13 c 0,6,7
 157 -13 157 -13 107 61 c 128,-1,8
 57 135 57 135 57 264 c 0,9,10
 57 345 57 345 82.5 408 c 128,-1,11
 108 471 108 471 155 506.5 c 128,-1,12
 202 542 202 542 266 542 c 0,13,14
 347 542 347 542 399 484 c 1,15,-1
 399 753 l 1,16,-1
 511 740 l 1,0,-1
206.5 408.5 m 128,-1,18
 176 361 176 361 176 264 c 0,19,20
 176 72 176 72 286 72 c 0,21,22
 352 72 352 72 399 148 c 1,23,-1
 399 397 l 1,24,25
 358 456 358 456 295 456 c 0,26,17
 237 456 237 456 206.5 408.5 c 128,-1,18
EndSplineSet
EndChar

StartChar: eth
Encoding: 240 240 156
Width: 600
Flags: W
LayerCount: 2
Fore
SplineSet
225 641 m 1,0,1
 181 660 181 660 118 672 c 1,2,-1
 141 752 l 1,3,4
 226 737 226 737 289 708 c 1,5,-1
 360 782 l 1,6,-1
 423 728 l 1,7,-1
 364 668 l 1,8,9
 455 607 455 607 498 508.5 c 128,-1,10
 541 410 541 410 541 269 c 0,11,12
 541 186 541 186 511.5 122 c 128,-1,13
 482 58 482 58 426 22.5 c 128,-1,14
 370 -13 370 -13 295 -13 c 0,15,16
 228 -13 228 -13 174 16.5 c 128,-1,17
 120 46 120 46 88.5 102 c 128,-1,18
 57 158 57 158 57 235 c 0,19,20
 57 307 57 307 86 363 c 128,-1,21
 115 419 115 419 164 450 c 128,-1,22
 213 481 213 481 270 481 c 0,23,24
 317 481 317 481 353.5 465.5 c 128,-1,25
 390 450 390 450 419 419 c 1,26,27
 390 535 390 535 298 601 c 1,28,-1
 228 529 l 1,29,-1
 153 565 l 1,30,-1
 225 641 l 1,0,1
426 331 m 1,32,33
 403 363 403 363 368.5 380.5 c 128,-1,34
 334 398 334 398 292 398 c 0,35,36
 239 398 239 398 205 357.5 c 128,-1,37
 171 317 171 317 171 238 c 0,38,39
 171 157 171 157 204.5 114.5 c 128,-1,40
 238 72 238 72 295 72 c 0,41,42
 359 72 359 72 393.5 120.5 c 128,-1,43
 428 169 428 169 428 263 c 0,44,31
 428 287 428 287 426 331 c 1,32,33
EndSplineSet
EndChar

StartChar: dcroat
Encoding: 273 273 158
Width: 600
GlyphClass: 2
Flags: W
AnchorPoint: "Anchor-7" 294 740 basechar 0
AnchorPoint: "Anchor-6" 294 0 basechar 0
LayerCount: 2
Fore
SplineSet
585 596 m 1,0,-1
 505 596 l 1,1,-1
 505 0 l 1,2,-1
 406 0 l 1,3,-1
 398 65 l 1,4,5
 372 27 372 27 334 7 c 128,-1,6
 296 -13 296 -13 250 -13 c 0,7,8
 151 -13 151 -13 101 61 c 128,-1,9
 51 135 51 135 51 264 c 0,10,11
 51 345 51 345 76.5 408 c 128,-1,12
 102 471 102 471 149 506.5 c 128,-1,13
 196 542 196 542 260 542 c 0,14,15
 341 542 341 542 393 484 c 1,16,-1
 393 596 l 1,17,-1
 241 596 l 1,18,-1
 241 673 l 1,19,-1
 393 673 l 1,20,-1
 393 753 l 1,21,-1
 505 740 l 1,22,-1
 505 673 l 1,23,-1
 585 673 l 1,24,-1
 585 596 l 1,0,-1
393 397 m 1,25,26
 352 456 352 456 289 456 c 0,27,28
 231 456 231 456 200.5 408.5 c 128,-1,29
 170 361 170 361 170 264 c 0,30,31
 170 72 170 72 280 72 c 0,32,33
 346 72 346 72 393 148 c 1,34,-1
 393 397 l 1,25,26
EndSplineSet
EndChar

StartChar: e
Encoding: 101 101 159
Width: 600
GlyphClass: 2
Flags: W
AnchorPoint: "Anchor-7" 309 528 basechar 0
AnchorPoint: "Anchor-6" 300 0 basechar 0
LayerCount: 2
Fore
SplineSet
226.5 112.5 m 128,-1,1
 266 74 266 74 326 74 c 0,2,3
 363 74 363 74 396.5 85.5 c 128,-1,4
 430 97 430 97 465 120 c 1,5,-1
 513 52 l 1,6,7
 476 21 476 21 426 4 c 128,-1,8
 376 -13 376 -13 321 -13 c 0,9,10
 200 -13 200 -13 133 62.5 c 128,-1,11
 66 138 66 138 66 264 c 0,12,13
 66 343 66 343 95 406.5 c 128,-1,14
 124 470 124 470 179 506 c 128,-1,15
 234 542 234 542 307 542 c 0,16,17
 412 542 412 542 473.5 471.5 c 128,-1,18
 535 401 535 401 535 278 c 0,19,20
 535 248 535 248 532 228 c 1,21,-1
 182 228 l 1,22,0
 187 151 187 151 226.5 112.5 c 128,-1,1
220 420 m 128,-1,24
 186 381 186 381 181 304 c 1,25,-1
 426 304 l 1,26,27
 424 379 424 379 394 419 c 128,-1,28
 364 459 364 459 308 459 c 0,29,23
 254 459 254 459 220 420 c 128,-1,24
EndSplineSet
EndChar

StartChar: eogonek
Encoding: 281 281 168
Width: 600
GlyphClass: 2
Flags: W
AnchorPoint: "Anchor-7" 309 528 basechar 0
AnchorPoint: "Anchor-6" 300 0 basechar 0
LayerCount: 2
Fore
SplineSet
532 228 m 1,1,-1
 182 228 l 1,2,3
 187 151 187 151 226.5 112.5 c 128,-1,4
 266 74 266 74 326 74 c 0,5,6
 363 74 363 74 396.5 85.5 c 128,-1,7
 430 97 430 97 465 120 c 1,8,-1
 513 52 l 1,9,10
 470 16 470 16 413 0 c 1,11,12
 344 -28 344 -28 318.5 -54.5 c 128,-1,13
 293 -81 293 -81 293 -113 c 0,14,15
 293 -161 293 -161 349 -161 c 0,16,17
 377 -161 377 -161 408 -154 c 1,18,-1
 398 -231 l 1,19,20
 365 -238 365 -238 336 -238 c 0,21,22
 277 -238 277 -238 240 -208.5 c 128,-1,23
 203 -179 203 -179 203 -131 c 0,24,25
 203 -56 203 -56 291 -12 c 1,26,27
 183 -2 183 -2 124.5 72 c 128,-1,28
 66 146 66 146 66 264 c 0,29,30
 66 343 66 343 95 406.5 c 128,-1,31
 124 470 124 470 179 506 c 128,-1,32
 234 542 234 542 307 542 c 0,33,34
 412 542 412 542 473.5 471.5 c 128,-1,35
 535 401 535 401 535 278 c 0,36,0
 535 248 535 248 532 228 c 1,1,-1
426 304 m 1,37,38
 424 379 424 379 394 419 c 128,-1,39
 364 459 364 459 308 459 c 0,40,41
 254 459 254 459 220 420 c 128,-1,42
 186 381 186 381 181 304 c 1,43,-1
 426 304 l 1,37,38
EndSplineSet
EndChar

StartChar: f
Encoding: 102 102 169
Width: 600
GlyphClass: 2
Flags: W
AnchorPoint: "Anchor-7" 370 740 basechar 0
AnchorPoint: "Anchor-6" 263 0 basechar 0
LayerCount: 2
Fore
SplineSet
568 722 m 1,1,-1
 534 644 l 1,2,3
 483 666 483 666 421 666 c 0,4,5
 369 666 369 666 344 646 c 128,-1,6
 319 626 319 626 319 584 c 2,7,-1
 319 490 l 1,8,-1
 496 490 l 1,9,-1
 483 407 l 1,10,-1
 319 407 l 1,11,-1
 319 0 l 1,12,-1
 207 0 l 1,13,-1
 207 407 l 1,14,-1
 87 407 l 1,15,-1
 87 490 l 1,16,-1
 207 490 l 1,17,-1
 207 585 l 2,18,19
 207 635 207 635 232.5 673 c 128,-1,20
 258 711 258 711 304 732 c 128,-1,21
 350 753 350 753 410 753 c 0,22,0
 496 753 496 753 568 722 c 1,1,-1
EndSplineSet
EndChar

StartChar: g
Encoding: 103 103 170
Width: 600
GlyphClass: 2
Flags: W
AnchorPoint: "Anchor-7" 296 528 basechar 0
AnchorPoint: "Anchor-6" 0 0 basechar 0
LayerCount: 2
Fore
SplineSet
563 502 m 1,0,1
 534 492 534 492 497.5 488.5 c 128,-1,2
 461 485 461 485 410 485 c 1,3,4
 458 463 458 463 482 430 c 128,-1,5
 506 397 506 397 506 350 c 0,6,7
 506 298 506 298 480.5 258 c 128,-1,8
 455 218 455 218 408 195 c 128,-1,9
 361 172 361 172 297 172 c 0,10,11
 252 172 252 172 225 181 c 1,12,13
 214 173 214 173 208 161.5 c 128,-1,14
 202 150 202 150 202 137 c 0,15,16
 202 97 202 97 267 97 c 2,17,-1
 359 97 l 2,18,19
 415 97 415 97 459 78 c 128,-1,20
 503 59 503 59 527.5 25.5 c 128,-1,21
 552 -8 552 -8 552 -50 c 0,22,23
 552 -129 552 -129 484 -172.5 c 128,-1,24
 416 -216 416 -216 288 -216 c 0,25,26
 199 -216 199 -216 147.5 -197.5 c 128,-1,27
 96 -179 96 -179 74.5 -143.5 c 128,-1,28
 53 -108 53 -108 53 -52 c 1,29,-1
 153 -52 l 1,30,31
 153 -82 153 -82 164.5 -99.5 c 128,-1,32
 176 -117 176 -117 205 -125.5 c 128,-1,33
 234 -134 234 -134 289 -134 c 0,34,35
 369 -134 369 -134 404 -114.5 c 128,-1,36
 439 -95 439 -95 439 -57 c 0,37,38
 439 -25 439 -25 411.5 -7.5 c 128,-1,39
 384 10 384 10 337 10 c 2,40,-1
 246 10 l 2,41,42
 175 10 175 10 138.5 39 c 128,-1,43
 102 68 102 68 102 112 c 0,44,45
 102 139 102 139 117 164 c 128,-1,46
 132 189 132 189 160 207 c 1,47,48
 113 232 113 232 91.5 267.5 c 128,-1,49
 70 303 70 303 70 355 c 0,50,51
 70 410 70 410 98 452.5 c 128,-1,52
 126 495 126 495 176 518.5 c 128,-1,53
 226 542 226 542 290 542 c 0,54,55
 376 541 376 541 426.5 554 c 128,-1,56
 477 567 477 567 534 595 c 1,57,-1
 563 502 l 1,0,1
211 434.5 m 128,-1,59
 184 405 184 405 184 355 c 0,60,61
 184 304 184 304 211.5 274.5 c 128,-1,62
 239 245 239 245 292 245 c 0,63,64
 342 245 342 245 368 274 c 128,-1,65
 394 303 394 303 394 357 c 0,66,67
 394 464 394 464 291 464 c 0,68,58
 238 464 238 464 211 434.5 c 128,-1,59
EndSplineSet
EndChar

StartChar: gcommaaccent
Encoding: 291 291 173
Width: 600
GlyphClass: 2
Flags: W
AnchorPoint: "Anchor-7" 296 528 basechar 0
AnchorPoint: "Anchor-6" 0 0 basechar 0
LayerCount: 2
Fore
SplineSet
248.5 614.5 m 128,-1,1
 230 632 230 632 230 659 c 0,2,3
 230 687 230 687 248 724 c 2,4,-1
 298 828 l 1,5,-1
 360 828 l 1,6,-1
 331 711 l 1,7,8
 357 692 357 692 357 659 c 0,9,10
 357 633 357 633 339 615 c 128,-1,11
 321 597 321 597 294 597 c 256,12,0
 267 597 267 597 248.5 614.5 c 128,-1,1
563 502 m 1,13,14
 534 492 534 492 497.5 488.5 c 128,-1,15
 461 485 461 485 410 485 c 1,16,17
 458 463 458 463 482 430 c 128,-1,18
 506 397 506 397 506 350 c 0,19,20
 506 298 506 298 480.5 258 c 128,-1,21
 455 218 455 218 408 195 c 128,-1,22
 361 172 361 172 297 172 c 0,23,24
 252 172 252 172 225 181 c 1,25,26
 214 173 214 173 208 161.5 c 128,-1,27
 202 150 202 150 202 137 c 0,28,29
 202 97 202 97 267 97 c 2,30,-1
 359 97 l 2,31,32
 415 97 415 97 459 78 c 128,-1,33
 503 59 503 59 527.5 25.5 c 128,-1,34
 552 -8 552 -8 552 -50 c 0,35,36
 552 -129 552 -129 484 -172.5 c 128,-1,37
 416 -216 416 -216 288 -216 c 0,38,39
 199 -216 199 -216 147.5 -197.5 c 128,-1,40
 96 -179 96 -179 74.5 -143.5 c 128,-1,41
 53 -108 53 -108 53 -52 c 1,42,-1
 153 -52 l 1,43,44
 153 -82 153 -82 164.5 -99.5 c 128,-1,45
 176 -117 176 -117 205 -125.5 c 128,-1,46
 234 -134 234 -134 289 -134 c 0,47,48
 369 -134 369 -134 404 -114.5 c 128,-1,49
 439 -95 439 -95 439 -57 c 0,50,51
 439 -25 439 -25 411.5 -7.5 c 128,-1,52
 384 10 384 10 337 10 c 2,53,-1
 246 10 l 2,54,55
 175 10 175 10 138.5 39 c 128,-1,56
 102 68 102 68 102 112 c 0,57,58
 102 139 102 139 117 164 c 128,-1,59
 132 189 132 189 160 207 c 1,60,61
 113 232 113 232 91.5 267.5 c 128,-1,62
 70 303 70 303 70 355 c 0,63,64
 70 410 70 410 98 452.5 c 128,-1,65
 126 495 126 495 176 518.5 c 128,-1,66
 226 542 226 542 290 542 c 0,67,68
 376 541 376 541 426.5 554 c 128,-1,69
 477 567 477 567 534 595 c 1,70,-1
 563 502 l 1,13,14
211 434.5 m 128,-1,72
 184 405 184 405 184 355 c 0,73,74
 184 304 184 304 211.5 274.5 c 128,-1,75
 239 245 239 245 292 245 c 0,76,77
 342 245 342 245 368 274 c 128,-1,78
 394 303 394 303 394 357 c 0,79,80
 394 464 394 464 291 464 c 0,81,71
 238 464 238 464 211 434.5 c 128,-1,72
EndSplineSet
EndChar

StartChar: h
Encoding: 104 104 175
Width: 600
GlyphClass: 2
Flags: W
AnchorPoint: "Anchor-7" 300 740 basechar 0
AnchorPoint: "Anchor-6" 300 0 basechar 0
LayerCount: 2
Fore
SplineSet
201 463 m 1,0,1
 233 502 233 502 275.5 522 c 128,-1,2
 318 542 318 542 365 542 c 0,3,4
 438 542 438 542 475 501.5 c 128,-1,5
 512 461 512 461 512 385 c 2,6,-1
 512 0 l 1,7,-1
 400 0 l 1,8,-1
 400 368 l 2,9,10
 400 415 400 415 382 435.5 c 128,-1,11
 364 456 364 456 324 456 c 0,12,13
 289 456 289 456 256.5 433.5 c 128,-1,14
 224 411 224 411 201 378 c 1,15,-1
 201 0 l 1,16,-1
 89 0 l 1,17,-1
 89 739 l 1,18,-1
 201 751 l 1,19,-1
 201 463 l 1,0,1
EndSplineSet
EndChar

StartChar: hbar
Encoding: 295 295 176
Width: 600
GlyphClass: 2
Flags: W
AnchorPoint: "Anchor-7" 300 740 basechar 0
AnchorPoint: "Anchor-6" 300 0 basechar 0
LayerCount: 2
Fore
SplineSet
475 501.5 m 128,-1,1
 512 461 512 461 512 385 c 2,2,-1
 512 0 l 1,3,-1
 400 0 l 1,4,-1
 400 368 l 2,5,6
 400 415 400 415 382 435.5 c 128,-1,7
 364 456 364 456 324 456 c 0,8,9
 289 456 289 456 256.5 433.5 c 128,-1,10
 224 411 224 411 201 378 c 1,11,-1
 201 0 l 1,12,-1
 89 0 l 1,13,-1
 89 596 l 1,14,-1
 15 596 l 1,15,-1
 15 673 l 1,16,-1
 89 673 l 1,17,-1
 89 739 l 1,18,-1
 201 751 l 1,19,-1
 201 673 l 1,20,-1
 359 673 l 1,21,-1
 359 596 l 1,22,-1
 201 596 l 1,23,-1
 201 463 l 1,24,25
 233 502 233 502 275.5 522 c 128,-1,26
 318 542 318 542 365 542 c 0,27,0
 438 542 438 542 475 501.5 c 128,-1,1
EndSplineSet
EndChar

StartChar: i
Encoding: 105 105 178
Width: 600
GlyphClass: 2
Flags: W
AnchorPoint: "Anchor-7" 0 0 basechar 0
AnchorPoint: "Anchor-6" 300 0 basechar 0
LayerCount: 2
Fore
SplineSet
352.5 766.5 m 128,-1,1
 373 746 373 746 373 716 c 256,2,3
 373 686 373 686 352.5 666 c 128,-1,4
 332 646 332 646 300 646 c 0,5,6
 267 646 267 646 247 666 c 128,-1,7
 227 686 227 686 227 716 c 0,8,9
 227 747 227 747 247.5 767 c 128,-1,10
 268 787 268 787 300 787 c 256,11,0
 332 787 332 787 352.5 766.5 c 128,-1,1
377 528 m 1,12,-1
 377 82 l 1,13,-1
 521 82 l 1,14,-1
 521 0 l 1,15,-1
 108 0 l 1,16,-1
 108 82 l 1,17,-1
 265 82 l 1,18,-1
 265 446 l 1,19,-1
 113 446 l 1,20,-1
 113 528 l 1,21,-1
 377 528 l 1,12,-1
EndSplineSet
Substitution2: "'locl' Localized Forms in Latin lookup 21 subtable" i.loclTRK
Substitution2: "'locl' Localized Forms in Latin lookup 19 subtable" i.loclTRK
Substitution2: "'locl' Localized Forms in Latin lookup 17 subtable" i.loclTRK
Substitution2: "'locl' Localized Forms in Latin lookup 14 subtable" i.loclTRK
Substitution2: "'locl' Localized Forms in Latin lookup 13 subtable" i.loclTRK
Substitution2: "'aalt' Access All Alternates lookup 0 subtable" i.loclTRK
EndChar

StartChar: dotlessi
Encoding: 305 305 179
Width: 600
GlyphClass: 2
Flags: W
AnchorPoint: "Anchor-7" 300 528 basechar 0
AnchorPoint: "Anchor-6" 0 0 basechar 0
LayerCount: 2
Fore
SplineSet
377 528 m 1,0,-1
 377 82 l 1,1,-1
 521 82 l 1,2,-1
 521 0 l 1,3,-1
 108 0 l 1,4,-1
 108 82 l 1,5,-1
 265 82 l 1,6,-1
 265 446 l 1,7,-1
 113 446 l 1,8,-1
 113 528 l 1,9,-1
 377 528 l 1,0,-1
EndSplineSet
EndChar

StartChar: ij
Encoding: 307 307 186
Width: 600
Flags: W
LayerCount: 2
Fore
SplineSet
237 766.5 m 128,-1,1
 258 746 258 746 258 716 c 256,2,3
 258 686 258 686 237 666 c 128,-1,4
 216 646 216 646 183 646 c 0,5,6
 151 646 151 646 131 666 c 128,-1,7
 111 686 111 686 111 716 c 256,8,9
 111 746 111 746 131 766.5 c 128,-1,10
 151 787 151 787 183 787 c 0,11,0
 216 787 216 787 237 766.5 c 128,-1,1
504 766.5 m 128,-1,13
 525 746 525 746 525 716 c 256,14,15
 525 686 525 686 504 666 c 128,-1,16
 483 646 483 646 451 646 c 256,17,18
 419 646 419 646 398.5 666 c 128,-1,19
 378 686 378 686 378 716 c 256,20,21
 378 746 378 746 398.5 766.5 c 128,-1,22
 419 787 419 787 451 787 c 256,23,12
 483 787 483 787 504 766.5 c 128,-1,13
517 80 m 2,24,25
 517 -39 517 -39 447.5 -106.5 c 128,-1,26
 378 -174 378 -174 245 -216 c 1,27,-1
 210 -131 l 1,28,29
 273 -109 273 -109 314.5 -85 c 128,-1,30
 356 -61 356 -61 381.5 -22.5 c 128,-1,31
 407 16 407 16 407 72 c 2,32,-1
 407 448 l 1,33,-1
 237 448 l 1,34,-1
 237 82 l 1,35,-1
 316 82 l 1,36,-1
 316 0 l 1,37,-1
 43 0 l 1,38,-1
 43 82 l 1,39,-1
 128 82 l 1,40,-1
 128 448 l 1,41,-1
 48 448 l 1,42,-1
 48 528 l 1,43,-1
 517 528 l 1,44,-1
 517 80 l 2,24,25
EndSplineSet
EndChar

StartChar: iogonek
Encoding: 303 303 188
Width: 600
GlyphClass: 2
Flags: W
AnchorPoint: "Anchor-7" 300 528 basechar 0
AnchorPoint: "Anchor-6" 0 0 basechar 0
LayerCount: 2
Fore
SplineSet
246.5 666 m 128,-1,1
 226 686 226 686 226 716 c 256,2,3
 226 746 226 746 246.5 766.5 c 128,-1,4
 267 787 267 787 299 787 c 0,5,6
 332 787 332 787 352.5 766.5 c 128,-1,7
 373 746 373 746 373 716 c 256,8,9
 373 686 373 686 352.5 666 c 128,-1,10
 332 646 332 646 299 646 c 0,11,0
 267 646 267 646 246.5 666 c 128,-1,1
521 82 m 1,12,-1
 521 0 l 1,13,-1
 377 0 l 1,14,15
 308 -28 308 -28 282.5 -54.5 c 128,-1,16
 257 -81 257 -81 257 -113 c 0,17,18
 257 -161 257 -161 313 -161 c 0,19,20
 341 -161 341 -161 372 -154 c 1,21,-1
 362 -231 l 1,22,23
 329 -238 329 -238 300 -238 c 0,24,25
 241 -238 241 -238 204 -208.5 c 128,-1,26
 167 -179 167 -179 167 -131 c 0,27,28
 167 -88 167 -88 190.5 -56.5 c 128,-1,29
 214 -25 214 -25 262 0 c 1,30,-1
 108 0 l 1,31,-1
 108 82 l 1,32,-1
 265 82 l 1,33,-1
 265 446 l 1,34,-1
 113 446 l 1,35,-1
 113 528 l 1,36,-1
 377 528 l 1,37,-1
 377 82 l 1,38,-1
 521 82 l 1,12,-1
EndSplineSet
EndChar

StartChar: j
Encoding: 106 106 190
Width: 600
GlyphClass: 2
Flags: W
AnchorPoint: "Anchor-7" 369 528 basechar 0
AnchorPoint: "Anchor-6" 0 0 basechar 0
LayerCount: 2
Fore
SplineSet
421 767 m 128,-1,1
 441 747 441 747 441 716 c 0,2,3
 441 686 441 686 421 666 c 128,-1,4
 401 646 401 646 368 646 c 0,5,6
 336 646 336 646 315.5 666 c 128,-1,7
 295 686 295 686 295 716 c 256,8,9
 295 746 295 746 315.5 766.5 c 128,-1,10
 336 787 336 787 368 787 c 0,11,0
 401 787 401 787 421 767 c 128,-1,1
455 111 m 2,12,13
 455 -32 455 -32 368 -108 c 128,-1,14
 281 -184 281 -184 104 -216 c 1,15,-1
 86 -130 l 1,16,17
 214 -106 214 -106 278.5 -53 c 128,-1,18
 343 0 343 0 343 104 c 2,19,-1
 343 446 l 1,20,-1
 135 446 l 1,21,-1
 135 528 l 1,22,-1
 455 528 l 1,23,-1
 455 111 l 2,12,13
EndSplineSet
EndChar

StartChar: uni0237
Encoding: 567 567 191
Width: 600
GlyphClass: 2
Flags: W
AnchorPoint: "Anchor-7" 369 528 basechar 0
AnchorPoint: "Anchor-6" 0 0 basechar 0
LayerCount: 2
Fore
SplineSet
455 111 m 2,0,1
 455 -32 455 -32 368 -108 c 128,-1,2
 281 -184 281 -184 104 -216 c 1,3,-1
 86 -130 l 1,4,5
 214 -106 214 -106 278.5 -53 c 128,-1,6
 343 0 343 0 343 104 c 2,7,-1
 343 446 l 1,8,-1
 135 446 l 1,9,-1
 135 528 l 1,10,-1
 455 528 l 1,11,-1
 455 111 l 2,0,1
EndSplineSet
EndChar

StartChar: k
Encoding: 107 107 193
Width: 600
GlyphClass: 2
Flags: W
AnchorPoint: "Anchor-7" 300 740 basechar 0
AnchorPoint: "Anchor-6" 304 0 basechar 0
LayerCount: 2
Fore
SplineSet
204 753 m 1,0,-1
 204 0 l 1,1,-1
 92 0 l 1,2,-1
 92 740 l 1,3,-1
 204 753 l 1,0,-1
554 528 m 1,4,-1
 341 292 l 1,5,-1
 576 0 l 1,6,-1
 439 0 l 1,7,-1
 212 289 l 1,8,-1
 424 528 l 1,9,-1
 554 528 l 1,4,-1
EndSplineSet
EndChar

StartChar: kgreenlandic
Encoding: 312 312 195
Width: 600
GlyphClass: 2
Flags: W
AnchorPoint: "Anchor-7" 300 528 basechar 0
AnchorPoint: "Anchor-6" 300 0 basechar 0
LayerCount: 2
Fore
SplineSet
201 528 m 1,0,-1
 201 0 l 1,1,-1
 89 0 l 1,2,-1
 89 528 l 1,3,-1
 201 528 l 1,0,-1
550 528 m 1,4,-1
 335 288 l 1,5,-1
 573 0 l 1,6,-1
 436 0 l 1,7,-1
 209 280 l 1,8,-1
 420 528 l 1,9,-1
 550 528 l 1,4,-1
EndSplineSet
EndChar

StartChar: l
Encoding: 108 108 196
Width: 600
GlyphClass: 2
Flags: W
AnchorPoint: "Anchor-7" 262 740 basechar 0
AnchorPoint: "Anchor-6" 359 0 basechar 0
LayerCount: 2
Fore
SplineSet
321 144 m 2,0,1
 321 77 321 77 401 77 c 0,2,3
 441 77 441 77 485 95 c 1,4,-1
 513 17 l 1,5,6
 458 -13 458 -13 377 -13 c 0,7,8
 298 -13 298 -13 253.5 31.5 c 128,-1,9
 209 76 209 76 209 154 c 2,10,-1
 209 658 l 1,11,-1
 50 658 l 1,12,-1
 50 740 l 1,13,-1
 321 740 l 1,14,-1
 321 144 l 2,0,1
EndSplineSet
EndChar

StartChar: lslash
Encoding: 322 322 201
Width: 600
GlyphClass: 2
Flags: W
AnchorPoint: "Anchor-7" 262 740 basechar 0
AnchorPoint: "Anchor-6" 359 0 basechar 0
LayerCount: 2
Fore
SplineSet
513 17 m 1,0,1
 458 -13 458 -13 377 -13 c 0,2,3
 298 -13 298 -13 253.5 31.5 c 128,-1,4
 209 76 209 76 209 154 c 2,5,-1
 209 288 l 1,6,-1
 150 252 l 1,7,-1
 107 319 l 1,8,-1
 209 381 l 1,9,-1
 209 658 l 1,10,-1
 50 658 l 1,11,-1
 50 740 l 1,12,-1
 321 740 l 1,13,-1
 321 450 l 1,14,-1
 401 500 l 1,15,-1
 445 432 l 1,16,-1
 321 356 l 1,17,-1
 321 144 l 2,18,19
 321 77 321 77 401 77 c 0,20,21
 441 77 441 77 485 95 c 1,22,-1
 513 17 l 1,0,1
EndSplineSet
EndChar

StartChar: m
Encoding: 109 109 202
Width: 600
GlyphClass: 2
Flags: W
AnchorPoint: "Anchor-7" 300 528 basechar 0
AnchorPoint: "Anchor-6" 300 0 basechar 0
LayerCount: 2
Fore
SplineSet
530 508 m 128,-1,1
 558 474 558 474 558 392 c 2,2,-1
 558 0 l 1,3,-1
 459 0 l 1,4,-1
 459 377 l 2,5,6
 459 421 459 421 452.5 438 c 128,-1,7
 446 455 446 455 424 455 c 0,8,9
 382 455 382 455 346 402 c 1,10,-1
 346 0 l 1,11,-1
 255 0 l 1,12,-1
 255 377 l 2,13,14
 255 421 255 421 248.5 438 c 128,-1,15
 242 455 242 455 220 455 c 0,16,17
 178 455 178 455 142 402 c 1,18,-1
 142 0 l 1,19,-1
 42 0 l 1,20,-1
 42 528 l 1,21,-1
 126 528 l 1,22,-1
 134 471 l 1,23,24
 159 506 159 506 185 524 c 128,-1,25
 211 542 211 542 247 542 c 0,26,27
 317 542 317 542 337 475 c 1,28,29
 361 507 361 507 389 524.5 c 128,-1,30
 417 542 417 542 453 542 c 0,31,0
 502 542 502 542 530 508 c 128,-1,1
EndSplineSet
EndChar

StartChar: n
Encoding: 110 110 203
Width: 600
GlyphClass: 2
Flags: W
AnchorPoint: "Anchor-7" 300 528 basechar 0
AnchorPoint: "Anchor-6" 301 0 basechar 0
LayerCount: 2
Fore
SplineSet
89 528 m 1,0,-1
 186 528 l 1,1,-1
 194 459 l 1,2,3
 227 499 227 499 271.5 520.5 c 128,-1,4
 316 542 316 542 365 542 c 0,5,6
 438 542 438 542 475 501 c 128,-1,7
 512 460 512 460 512 385 c 2,8,-1
 512 0 l 1,9,-1
 400 0 l 1,10,-1
 400 329 l 2,11,12
 400 378 400 378 394.5 404.5 c 128,-1,13
 389 431 389 431 373 443.5 c 128,-1,14
 357 456 357 456 325 456 c 0,15,16
 289 456 289 456 256.5 434 c 128,-1,17
 224 412 224 412 201 379 c 1,18,-1
 201 0 l 1,19,-1
 89 0 l 1,20,-1
 89 528 l 1,0,-1
EndSplineSet
EndChar

StartChar: napostrophe
Encoding: 329 329 205
Width: 600
GlyphClass: 2
Flags: W
AnchorPoint: "Anchor-7" 313 528 basechar 0
AnchorPoint: "Anchor-6" 314 0 basechar 0
LayerCount: 2
Fore
SplineSet
106.5 738.5 m 128,-1,1
 125 721 125 721 125 695 c 0,2,3
 125 680 125 680 120 664.5 c 128,-1,4
 115 649 115 649 100 619 c 2,5,-1
 59 534 l 1,6,-1
 -2 534 l 1,7,-1
 25 643 l 1,8,9
 -2 665 -2 665 -2 695 c 0,10,11
 -2 721 -2 721 16.5 738.5 c 128,-1,12
 35 756 35 756 62 756 c 0,13,0
 88 756 88 756 106.5 738.5 c 128,-1,1
102 528 m 1,14,-1
 199 528 l 1,15,-1
 207 459 l 1,16,17
 240 499 240 499 284.5 520.5 c 128,-1,18
 329 542 329 542 378 542 c 0,19,20
 451 542 451 542 488 501 c 128,-1,21
 525 460 525 460 525 385 c 2,22,-1
 525 0 l 1,23,-1
 413 0 l 1,24,-1
 413 329 l 2,25,26
 413 378 413 378 407.5 404.5 c 128,-1,27
 402 431 402 431 386 443.5 c 128,-1,28
 370 456 370 456 338 456 c 0,29,30
 302 456 302 456 269.5 434 c 128,-1,31
 237 412 237 412 214 379 c 1,32,-1
 214 0 l 1,33,-1
 102 0 l 1,34,-1
 102 528 l 1,14,-1
EndSplineSet
Ligature2: "'locl' Localized Forms in Latin lookup 22 subtable" quoteright n
Ligature2: "'locl' Localized Forms in Latin lookup 22 subtable" quotesingle n
EndChar

StartChar: eng
Encoding: 331 331 208
Width: 600
Flags: W
LayerCount: 2
Fore
SplineSet
492 -83 m 128,-1,1
 472 -130 472 -130 435.5 -159 c 128,-1,2
 399 -188 399 -188 336 -215 c 1,3,-1
 295 -133 l 1,4,5
 334 -115 334 -115 355.5 -98 c 128,-1,6
 377 -81 377 -81 388.5 -50 c 128,-1,7
 400 -19 400 -19 400 33 c 2,8,-1
 400 329 l 2,9,10
 400 379 400 379 394.5 405 c 128,-1,11
 389 431 389 431 373 443.5 c 128,-1,12
 357 456 357 456 324 456 c 0,13,14
 289 456 289 456 256.5 433.5 c 128,-1,15
 224 411 224 411 201 378 c 1,16,-1
 201 0 l 1,17,-1
 89 0 l 1,18,-1
 89 528 l 1,19,-1
 186 528 l 1,20,-1
 194 459 l 1,21,22
 226 499 226 499 271.5 520.5 c 128,-1,23
 317 542 317 542 365 542 c 0,24,25
 438 542 438 542 475 501.5 c 128,-1,26
 512 461 512 461 512 385 c 2,27,-1
 512 41 l 2,28,0
 512 -36 512 -36 492 -83 c 128,-1,1
EndSplineSet
EndChar

StartChar: o
Encoding: 111 111 210
Width: 600
GlyphClass: 2
Flags: W
AnchorPoint: "Anchor-7" 300 528 basechar 0
AnchorPoint: "Anchor-6" 300 0 basechar 0
LayerCount: 2
Fore
SplineSet
477 467.5 m 128,-1,1
 539 393 539 393 539 265 c 256,2,3
 539 137 539 137 476 62 c 128,-1,4
 413 -13 413 -13 300 -13 c 0,5,6
 186 -13 186 -13 123.5 60.5 c 128,-1,7
 61 134 61 134 61 264 c 0,8,9
 61 390 61 390 124.5 466 c 128,-1,10
 188 542 188 542 301 542 c 0,11,0
 415 542 415 542 477 467.5 c 128,-1,1
209.5 408 m 128,-1,13
 179 361 179 361 179 264 c 0,14,15
 179 166 179 166 209 119.5 c 128,-1,16
 239 73 239 73 300 73 c 256,17,18
 361 73 361 73 391 120 c 128,-1,19
 421 167 421 167 421 265 c 0,20,21
 421 362 421 362 391 408.5 c 128,-1,22
 361 455 361 455 301 455 c 0,23,12
 240 455 240 455 209.5 408 c 128,-1,13
EndSplineSet
Substitution2: "Single Substitution lookup 159 subtable" ordmasculine
Substitution2: "'aalt' Access All Alternates lookup 0 subtable" ordmasculine
EndChar

StartChar: oslash
Encoding: 248 248 218
Width: 600
GlyphClass: 2
Flags: W
AnchorPoint: "Anchor-7" 300 528 basechar 0
AnchorPoint: "Anchor-6" 0 0 basechar 0
LayerCount: 2
Fore
SplineSet
510 413 m 128,-1,1
 539 350 539 350 539 265 c 0,2,3
 539 137 539 137 476 62 c 128,-1,4
 413 -13 413 -13 300 -13 c 0,5,6
 277 -13 277 -13 257 -10 c 1,7,-1
 220 -133 l 1,8,-1
 133 -107 l 1,9,-1
 174 19 l 1,10,11
 119 52 119 52 90 115 c 128,-1,12
 61 178 61 178 61 264 c 0,13,14
 61 390 61 390 124.5 466 c 128,-1,15
 188 542 188 542 301 542 c 0,16,17
 323 542 323 542 343 539 c 1,18,-1
 381 657 l 1,19,-1
 468 632 l 1,20,-1
 427 509 l 1,21,0
 481 476 481 476 510 413 c 128,-1,1
208.5 409 m 128,-1,23
 178 362 178 362 178 264 c 0,24,25
 178 142 178 142 217 102 c 1,26,-1
 327 454 l 1,27,28
 311 456 311 456 301 456 c 0,29,22
 239 456 239 456 208.5 409 c 128,-1,23
392 119 m 128,-1,31
 422 166 422 166 422 265 c 0,32,33
 422 383 422 383 384 425 c 1,34,-1
 274 74 l 1,35,36
 290 72 290 72 300 72 c 0,37,30
 362 72 362 72 392 119 c 128,-1,31
EndSplineSet
EndChar

StartChar: oe
Encoding: 339 339 221
Width: 600
Flags: W
LayerCount: 2
Fore
SplineSet
572 474.5 m 128,-1,1
 612 407 612 407 612 278 c 0,2,3
 612 251 612 251 609 230 c 1,4,-1
 357 230 l 1,5,6
 364 146 364 146 388.5 108 c 128,-1,7
 413 70 413 70 461 70 c 0,8,9
 486 70 486 70 506.5 79 c 128,-1,10
 527 88 527 88 552 107 c 1,11,-1
 599 41 l 1,12,13
 567 14 567 14 533 0.5 c 128,-1,14
 499 -13 499 -13 457 -13 c 0,15,16
 351 -13 351 -13 306 80 c 1,17,18
 287 35 287 35 255 11 c 128,-1,19
 223 -13 223 -13 170 -13 c 0,20,21
 82 -13 82 -13 39 59.5 c 128,-1,22
 -4 132 -4 132 -4 264 c 0,23,24
 -4 394 -4 394 39 468 c 128,-1,25
 82 542 82 542 170 542 c 0,26,27
 226 542 226 542 258 517.5 c 128,-1,28
 290 493 290 493 308 446 c 1,29,30
 349 542 349 542 445 542 c 0,31,0
 532 542 532 542 572 474.5 c 128,-1,1
381.5 425.5 m 128,-1,33
 362 390 362 390 357 304 c 1,34,-1
 516 304 l 1,35,36
 514 386 514 386 498 423.5 c 128,-1,37
 482 461 482 461 441 461 c 0,38,32
 401 461 401 461 381.5 425.5 c 128,-1,33
119 410.5 m 128,-1,40
 101 365 101 365 101 264 c 0,41,42
 101 161 101 161 118.5 117 c 128,-1,43
 136 73 136 73 179 73 c 0,44,45
 208 73 208 73 224.5 91.5 c 128,-1,46
 241 110 241 110 248.5 151.5 c 128,-1,47
 256 193 256 193 256 265 c 0,48,49
 256 366 256 366 238.5 411 c 128,-1,50
 221 456 221 456 179 456 c 256,51,39
 137 456 137 456 119 410.5 c 128,-1,40
EndSplineSet
EndChar

StartChar: p
Encoding: 112 112 222
Width: 600
GlyphClass: 2
Flags: W
AnchorPoint: "Anchor-7" 300 528 basechar 0
AnchorPoint: "Anchor-6" 300 0 basechar 0
LayerCount: 2
Fore
SplineSet
539 265 m 0,1,2
 539 140 539 140 486 63.5 c 128,-1,3
 433 -13 433 -13 335 -13 c 0,4,5
 252 -13 252 -13 201 45 c 1,6,-1
 201 -203 l 1,7,-1
 89 -216 l 1,8,-1
 89 528 l 1,9,-1
 186 528 l 1,10,-1
 193 460 l 1,11,12
 223 500 223 500 262.5 521 c 128,-1,13
 302 542 302 542 347 542 c 0,14,0
 539 542 539 542 539 265 c 0,1,2
252 435 m 128,-1,16
 223 414 223 414 201 380 c 1,17,-1
 201 133 l 1,18,19
 240 74 240 74 305 74 c 0,20,21
 363 74 363 74 392 120 c 128,-1,22
 421 166 421 166 421 264 c 0,23,24
 421 365 421 365 395 410.5 c 128,-1,25
 369 456 369 456 316 456 c 0,26,15
 281 456 281 456 252 435 c 128,-1,16
EndSplineSet
EndChar

StartChar: thorn
Encoding: 254 254 223
Width: 600
GlyphClass: 2
Flags: W
AnchorPoint: "Anchor-7" 300 740 basechar 0
AnchorPoint: "Anchor-6" 300 -208 basechar 0
LayerCount: 2
Fore
SplineSet
201 467 m 1,0,1
 228 503 228 503 266 522.5 c 128,-1,2
 304 542 304 542 347 542 c 0,3,4
 539 542 539 542 539 265 c 0,5,6
 539 140 539 140 486 63.5 c 128,-1,7
 433 -13 433 -13 335 -13 c 0,8,9
 252 -13 252 -13 201 45 c 1,10,-1
 201 -203 l 1,11,-1
 89 -216 l 1,12,-1
 89 740 l 1,13,-1
 201 753 l 1,14,-1
 201 467 l 1,0,1
252 435 m 128,-1,16
 223 414 223 414 201 380 c 1,17,-1
 201 133 l 1,18,19
 240 74 240 74 305 74 c 0,20,21
 363 74 363 74 392 120 c 128,-1,22
 421 166 421 166 421 264 c 0,23,24
 421 365 421 365 395 410.5 c 128,-1,25
 369 456 369 456 316 456 c 0,26,15
 281 456 281 456 252 435 c 128,-1,16
EndSplineSet
EndChar

StartChar: q
Encoding: 113 113 224
Width: 600
GlyphClass: 2
Flags: W
AnchorPoint: "Anchor-7" 300 528 basechar 0
AnchorPoint: "Anchor-6" 300 0 basechar 0
LayerCount: 2
Fore
SplineSet
407 476 m 1,1,-1
 414 528 l 1,2,-1
 511 528 l 1,3,-1
 511 -216 l 1,4,-1
 399 -203 l 1,5,-1
 399 58 l 1,6,7
 345 -13 345 -13 255 -13 c 0,8,9
 155 -13 155 -13 108 59.5 c 128,-1,10
 61 132 61 132 61 264 c 0,11,12
 61 388 61 388 115.5 465 c 128,-1,13
 170 542 170 542 267 542 c 0,14,0
 355 542 355 542 407 476 c 1,1,-1
179 264 m 0,16,17
 179 165 179 165 205.5 119.5 c 128,-1,18
 232 74 232 74 285 74 c 0,19,20
 321 74 321 74 349.5 94 c 128,-1,21
 378 114 378 114 399 148 c 1,22,-1
 399 397 l 1,23,24
 359 456 359 456 295 456 c 0,25,15
 179 456 179 456 179 264 c 0,16,17
EndSplineSet
EndChar

StartChar: r
Encoding: 114 114 225
Width: 600
GlyphClass: 2
Flags: W
AnchorPoint: "Anchor-7" 329 528 basechar 0
AnchorPoint: "Anchor-6" 228 0 basechar 0
LayerCount: 2
Fore
SplineSet
543 528 m 1,1,-1
 524 333 l 1,2,-1
 444 333 l 1,3,-1
 444 441 l 1,4,5
 389 440 389 440 348 397 c 128,-1,6
 307 354 307 354 284 276 c 1,7,-1
 284 80 l 1,8,-1
 390 80 l 1,9,-1
 390 0 l 1,10,-1
 94 0 l 1,11,-1
 94 80 l 1,12,-1
 172 80 l 1,13,-1
 172 448 l 1,14,-1
 94 448 l 1,15,-1
 94 528 l 1,16,-1
 257 528 l 1,17,-1
 277 406 l 1,18,19
 308 474 308 474 352.5 507.5 c 128,-1,20
 397 541 397 541 463 541 c 0,21,0
 504 541 504 541 543 528 c 1,1,-1
EndSplineSet
EndChar

StartChar: s
Encoding: 115 115 229
Width: 600
GlyphClass: 2
Flags: W
AnchorPoint: "Anchor-7" 309 528 basechar 0
AnchorPoint: "Anchor-6" 298 0 basechar 0
LayerCount: 2
Fore
SplineSet
364.5 91 m 128,-1,1
 395 110 395 110 395 143 c 0,2,3
 395 166 395 166 386 180.5 c 128,-1,4
 377 195 377 195 350 207.5 c 128,-1,5
 323 220 323 220 269 234 c 0,6,7
 182 256 182 256 138.5 290.5 c 128,-1,8
 95 325 95 325 95 390 c 0,9,10
 95 459 95 459 152 500.5 c 128,-1,11
 209 542 209 542 306 542 c 0,12,13
 423 542 423 542 507 481 c 1,14,-1
 459 410 l 1,15,16
 388 457 388 457 309 457 c 0,17,18
 209 457 209 457 209 399 c 0,19,20
 209 379 209 379 220.5 366 c 128,-1,21
 232 353 232 353 260 341.5 c 128,-1,22
 288 330 288 330 343 315 c 0,23,24
 429 291 429 291 471.5 256 c 128,-1,25
 514 221 514 221 514 151 c 0,26,27
 514 70 514 70 447 28.5 c 128,-1,28
 380 -13 380 -13 281 -13 c 0,29,30
 150 -13 150 -13 64 61 c 1,31,-1
 123 129 l 1,32,33
 156 103 156 103 196.5 87.5 c 128,-1,34
 237 72 237 72 281 72 c 0,35,0
 334 72 334 72 364.5 91 c 128,-1,1
EndSplineSet
EndChar

StartChar: scedilla
Encoding: 351 351 232
Width: 600
GlyphClass: 2
Flags: W
AnchorPoint: "Anchor-7" 309 528 basechar 0
AnchorPoint: "Anchor-6" 298 0 basechar 0
LayerCount: 2
Fore
SplineSet
460 38 m 128,-1,1
 406 -3 406 -3 322 -11 c 1,2,-1
 322 -54 l 1,3,4
 370 -58 370 -58 394.5 -82.5 c 128,-1,5
 419 -107 419 -107 419 -143 c 0,6,7
 419 -191 419 -191 381 -219 c 128,-1,8
 343 -247 343 -247 286 -247 c 0,9,10
 255 -247 255 -247 226 -240 c 128,-1,11
 197 -233 197 -233 177 -221 c 1,12,-1
 207 -163 l 1,13,14
 241 -180 241 -180 273 -180 c 0,15,16
 330 -180 330 -180 330 -142 c 0,17,18
 330 -119 330 -119 308.5 -111 c 128,-1,19
 287 -103 287 -103 242 -103 c 1,20,-1
 250 -12 l 1,21,22
 141 -4 141 -4 64 61 c 1,23,-1
 123 129 l 1,24,25
 156 103 156 103 196.5 87.5 c 128,-1,26
 237 72 237 72 281 72 c 0,27,28
 334 72 334 72 364.5 91 c 128,-1,29
 395 110 395 110 395 143 c 0,30,31
 395 166 395 166 386 180.5 c 128,-1,32
 377 195 377 195 350 207.5 c 128,-1,33
 323 220 323 220 269 234 c 0,34,35
 182 256 182 256 138.5 290.5 c 128,-1,36
 95 325 95 325 95 390 c 0,37,38
 95 459 95 459 152 500.5 c 128,-1,39
 209 542 209 542 306 542 c 0,40,41
 423 542 423 542 507 481 c 1,42,-1
 459 410 l 1,43,44
 388 457 388 457 309 457 c 0,45,46
 209 457 209 457 209 399 c 0,47,48
 209 379 209 379 220.5 366 c 128,-1,49
 232 353 232 353 260 341.5 c 128,-1,50
 288 330 288 330 343 315 c 0,51,52
 429 291 429 291 471.5 256 c 128,-1,53
 514 221 514 221 514 151 c 0,54,0
 514 79 514 79 460 38 c 128,-1,1
EndSplineSet
Substitution2: "'locl' Localized Forms in Latin lookup 16 subtable" scommaaccent
Substitution2: "'locl' Localized Forms in Latin lookup 15 subtable" scommaaccent
Substitution2: "'aalt' Access All Alternates lookup 0 subtable" scommaaccent
EndChar

StartChar: germandbls
Encoding: 223 223 235
Width: 600
Flags: W
LayerCount: 2
Fore
SplineSet
429 711 m 128,-1,1
 479 669 479 669 479 604 c 0,2,3
 479 569 479 569 463.5 546.5 c 128,-1,4
 448 524 448 524 418 497 c 0,5,6
 395 476 395 476 384.5 462.5 c 128,-1,7
 374 449 374 449 374 430 c 0,8,9
 374 407 374 407 391 390 c 128,-1,10
 408 373 408 373 444 349 c 0,11,12
 482 323 482 323 506 302 c 128,-1,13
 530 281 530 281 547.5 247.5 c 128,-1,14
 565 214 565 214 565 167 c 0,15,16
 565 111 565 111 539.5 70 c 128,-1,17
 514 29 514 29 470.5 8 c 128,-1,18
 427 -13 427 -13 373 -13 c 0,19,20
 300 -13 300 -13 245 20 c 1,21,-1
 285 96 l 1,22,23
 322 75 322 75 361 75 c 0,24,25
 404 75 404 75 427 97.5 c 128,-1,26
 450 120 450 120 450 164 c 0,27,28
 450 203 450 203 428 228 c 128,-1,29
 406 253 406 253 363 283 c 0,30,31
 333 304 333 304 314.5 319.5 c 128,-1,32
 296 335 296 335 283.5 358.5 c 128,-1,33
 271 382 271 382 271 413 c 0,34,35
 271 446 271 446 285 468.5 c 128,-1,36
 299 491 299 491 325 517 c 0,37,38
 348 539 348 539 359.5 556.5 c 128,-1,39
 371 574 371 574 371 597 c 0,40,41
 371 627 371 627 352 648 c 128,-1,42
 333 669 333 669 293 669 c 0,43,44
 243 669 243 669 218.5 638 c 128,-1,45
 194 607 194 607 194 539 c 2,46,-1
 194 0 l 1,47,-1
 82 0 l 1,48,-1
 82 532 l 2,49,50
 82 639 82 639 137.5 696 c 128,-1,51
 193 753 193 753 295 753 c 0,52,0
 379 753 379 753 429 711 c 128,-1,1
EndSplineSet
EndChar

StartChar: t
Encoding: 116 116 236
Width: 600
GlyphClass: 2
Flags: W
AnchorPoint: "Anchor-7" 244 652 basechar 0
AnchorPoint: "Anchor-6" 367 0 basechar 0
LayerCount: 2
Fore
SplineSet
460 -2 m 128,-1,1
 420 -13 420 -13 376 -13 c 0,2,3
 286 -13 286 -13 237 33.5 c 128,-1,4
 188 80 188 80 188 160 c 2,5,-1
 188 446 l 1,6,-1
 71 446 l 1,7,-1
 71 528 l 1,8,-1
 188 528 l 1,9,-1
 188 646 l 1,10,-1
 300 659 l 1,11,-1
 300 528 l 1,12,-1
 479 528 l 1,13,-1
 466 446 l 1,14,-1
 300 446 l 1,15,-1
 300 161 l 2,16,17
 300 118 300 118 322 97.5 c 128,-1,18
 344 77 344 77 392 77 c 0,19,20
 445 77 445 77 490 102 c 1,21,-1
 530 28 l 1,22,0
 500 9 500 9 460 -2 c 128,-1,1
EndSplineSet
EndChar

StartChar: tbar
Encoding: 359 359 237
Width: 600
GlyphClass: 2
Flags: W
AnchorPoint: "Anchor-7" 244 652 basechar 0
AnchorPoint: "Anchor-6" 367 0 basechar 0
LayerCount: 2
Fore
SplineSet
530 28 m 1,0,1
 500 9 500 9 460 -2 c 128,-1,2
 420 -13 420 -13 376 -13 c 0,3,4
 286 -13 286 -13 237 33.5 c 128,-1,5
 188 80 188 80 188 160 c 2,6,-1
 188 278 l 1,7,-1
 82 278 l 1,8,-1
 82 355 l 1,9,-1
 188 355 l 1,10,-1
 188 446 l 1,11,-1
 71 446 l 1,12,-1
 71 528 l 1,13,-1
 188 528 l 1,14,-1
 188 646 l 1,15,-1
 300 659 l 1,16,-1
 300 528 l 1,17,-1
 479 528 l 1,18,-1
 466 446 l 1,19,-1
 300 446 l 1,20,-1
 300 355 l 1,21,-1
 466 355 l 1,22,-1
 466 278 l 1,23,-1
 300 278 l 1,24,-1
 300 161 l 2,25,26
 300 118 300 118 322 97.5 c 128,-1,27
 344 77 344 77 392 77 c 0,28,29
 445 77 445 77 490 102 c 1,30,-1
 530 28 l 1,0,1
EndSplineSet
EndChar

StartChar: uni0163
Encoding: 355 355 239
Width: 600
GlyphClass: 2
Flags: W
AnchorPoint: "Anchor-7" 244 652 basechar 0
AnchorPoint: "Anchor-6" 367 0 basechar 0
LayerCount: 2
Fore
SplineSet
463.5 -82.5 m 128,-1,1
 488 -107 488 -107 488 -143 c 0,2,3
 488 -191 488 -191 450 -219 c 128,-1,4
 412 -247 412 -247 355 -247 c 0,5,6
 324 -247 324 -247 295 -240 c 128,-1,7
 266 -233 266 -233 246 -221 c 1,8,-1
 276 -163 l 1,9,10
 310 -180 310 -180 342 -180 c 0,11,12
 399 -180 399 -180 399 -142 c 0,13,14
 399 -119 399 -119 377.5 -111 c 128,-1,15
 356 -103 356 -103 311 -103 c 1,16,-1
 319 -7 l 1,17,18
 255 6 255 6 221.5 50 c 128,-1,19
 188 94 188 94 188 160 c 2,20,-1
 188 446 l 1,21,-1
 71 446 l 1,22,-1
 71 528 l 1,23,-1
 188 528 l 1,24,-1
 188 646 l 1,25,-1
 300 659 l 1,26,-1
 300 528 l 1,27,-1
 479 528 l 1,28,-1
 466 446 l 1,29,-1
 300 446 l 1,30,-1
 300 161 l 2,31,32
 300 118 300 118 322 97.5 c 128,-1,33
 344 77 344 77 392 77 c 0,34,35
 445 77 445 77 490 102 c 1,36,-1
 530 28 l 1,37,38
 503 11 503 11 467 0 c 128,-1,39
 431 -11 431 -11 391 -13 c 1,40,-1
 391 -54 l 1,41,0
 439 -58 439 -58 463.5 -82.5 c 128,-1,1
EndSplineSet
Substitution2: "'locl' Localized Forms in Latin lookup 16 subtable" uni021B
Substitution2: "'locl' Localized Forms in Latin lookup 15 subtable" uni021B
Substitution2: "'aalt' Access All Alternates lookup 0 subtable" uni021B
EndChar

StartChar: u
Encoding: 117 117 241
Width: 600
GlyphClass: 2
Flags: W
AnchorPoint: "Anchor-7" 300 528 basechar 0
AnchorPoint: "Anchor-6" 0 0 basechar 0
LayerCount: 2
Fore
SplineSet
201 159 m 2,0,1
 201 113 201 113 219.5 92.5 c 128,-1,2
 238 72 238 72 276 72 c 0,3,4
 312 72 312 72 345.5 93 c 128,-1,5
 379 114 379 114 399 146 c 1,6,-1
 399 528 l 1,7,-1
 511 528 l 1,8,-1
 511 0 l 1,9,-1
 414 0 l 1,10,-1
 407 68 l 1,11,12
 379 29 379 29 334 8 c 128,-1,13
 289 -13 289 -13 241 -13 c 0,14,15
 165 -13 165 -13 127 28 c 128,-1,16
 89 69 89 69 89 145 c 2,17,-1
 89 528 l 1,18,-1
 201 528 l 1,19,-1
 201 159 l 2,0,1
EndSplineSet
EndChar

StartChar: uogonek
Encoding: 371 371 249
Width: 600
GlyphClass: 2
Flags: W
AnchorPoint: "Anchor-7" 300 528 basechar 0
AnchorPoint: "Anchor-6" 0 0 basechar 0
LayerCount: 2
Fore
SplineSet
416.5 -54.5 m 128,-1,1
 391 -81 391 -81 391 -113 c 0,2,3
 391 -161 391 -161 447 -161 c 0,4,5
 475 -161 475 -161 506 -154 c 1,6,-1
 496 -231 l 1,7,8
 463 -238 463 -238 434 -238 c 0,9,10
 375 -238 375 -238 338 -208.5 c 128,-1,11
 301 -179 301 -179 301 -131 c 0,12,13
 301 -85 301 -85 329 -51 c 128,-1,14
 357 -17 357 -17 413 8 c 1,15,-1
 407 68 l 1,16,17
 379 29 379 29 334 8 c 128,-1,18
 289 -13 289 -13 241 -13 c 0,19,20
 165 -13 165 -13 127 28 c 128,-1,21
 89 69 89 69 89 145 c 2,22,-1
 89 528 l 1,23,-1
 201 528 l 1,24,-1
 201 159 l 2,25,26
 201 113 201 113 219.5 92.5 c 128,-1,27
 238 72 238 72 276 72 c 0,28,29
 312 72 312 72 345.5 93 c 128,-1,30
 379 114 379 114 399 146 c 1,31,-1
 399 528 l 1,32,-1
 511 528 l 1,33,-1
 511 0 l 1,34,0
 442 -28 442 -28 416.5 -54.5 c 128,-1,1
EndSplineSet
EndChar

StartChar: v
Encoding: 118 118 252
Width: 600
GlyphClass: 2
Flags: W
AnchorPoint: "Anchor-7" 300 528 basechar 0
AnchorPoint: "Anchor-6" 300 0 basechar 0
LayerCount: 2
Fore
SplineSet
552 528 m 1,0,-1
 365 0 l 1,1,-1
 235 0 l 1,2,-1
 48 528 l 1,3,-1
 169 528 l 1,4,-1
 302 93 l 1,5,-1
 437 528 l 1,6,-1
 552 528 l 1,0,-1
EndSplineSet
EndChar

StartChar: w
Encoding: 119 119 253
Width: 600
GlyphClass: 2
Flags: W
AnchorPoint: "Anchor-7" 300 528 basechar 0
AnchorPoint: "Anchor-6" 300 0 basechar 0
LayerCount: 2
Fore
SplineSet
502 0 m 1,0,-1
 362 0 l 1,1,-1
 302 375 l 1,2,-1
 238 0 l 1,3,-1
 101 0 l 1,4,-1
 12 528 l 1,5,-1
 120 528 l 1,6,-1
 175 70 l 1,7,-1
 249 461 l 1,8,-1
 361 461 l 1,9,-1
 429 70 l 1,10,-1
 484 528 l 1,11,-1
 588 528 l 1,12,-1
 502 0 l 1,0,-1
EndSplineSet
Substitution2: "Single Substitution lookup 174 subtable" LIG
Substitution2: "Single Substitution lookup 173 subtable" w_w_w.liga
AlternateSubs2: "'aalt' Access All Alternates lookup 1 subtable" w_w_w.liga LIG
EndChar

StartChar: x
Encoding: 120 120 258
Width: 600
GlyphClass: 2
Flags: W
AnchorPoint: "Anchor-7" 300 528 basechar 0
AnchorPoint: "Anchor-6" 300 0 basechar 0
LayerCount: 2
Fore
SplineSet
167 0 m 1,0,-1
 43 0 l 1,1,-1
 233 278 l 1,2,-1
 64 528 l 1,3,-1
 193 528 l 1,4,-1
 301 342 l 1,5,-1
 409 528 l 1,6,-1
 532 528 l 1,7,-1
 367 283 l 1,8,-1
 557 0 l 1,9,-1
 426 0 l 1,10,-1
 296 216 l 1,11,-1
 167 0 l 1,0,-1
EndSplineSet
Substitution2: "Single Substitution lookup 240 subtable" x.multiply
Substitution2: "'aalt' Access All Alternates lookup 0 subtable" x.multiply
EndChar

StartChar: y
Encoding: 121 121 259
Width: 600
GlyphClass: 2
Flags: W
AnchorPoint: "Anchor-7" 300 528 basechar 0
AnchorPoint: "Anchor-6" 0 0 basechar 0
LayerCount: 2
Fore
SplineSet
369 -2 m 2,0,1
 337 -98 337 -98 276.5 -152.5 c 128,-1,2
 216 -207 216 -207 110 -216 c 1,3,-1
 96 -132 l 1,4,5
 148 -124 148 -124 180 -107.5 c 128,-1,6
 212 -91 212 -91 231 -66 c 128,-1,7
 250 -41 250 -41 265 0 c 1,8,-1
 227 0 l 1,9,-1
 49 528 l 1,10,-1
 168 528 l 1,11,-1
 301 78 l 1,12,-1
 436 528 l 1,13,-1
 551 528 l 1,14,-1
 369 -2 l 2,0,1
EndSplineSet
EndChar

StartChar: z
Encoding: 122 122 264
Width: 600
GlyphClass: 2
Flags: W
AnchorPoint: "Anchor-7" 309 528 basechar 0
AnchorPoint: "Anchor-6" 300 0 basechar 0
LayerCount: 2
Fore
SplineSet
225 90 m 1,0,-1
 508 90 l 1,1,-1
 496 0 l 1,2,-1
 91 0 l 1,3,-1
 91 82 l 1,4,-1
 372 438 l 1,5,-1
 113 438 l 1,6,-1
 113 528 l 1,7,-1
 504 528 l 1,8,-1
 504 446 l 1,9,-1
 225 90 l 1,0,-1
EndSplineSet
EndChar

StartChar: x.multiply
Encoding: 1114125 -1 273
Width: 600
Flags: W
LayerCount: 2
Fore
SplineSet
442 533 m 1,0,-1
 508 467 l 1,1,-1
 366 325 l 1,2,-1
 508 182 l 1,3,-1
 442 116 l 1,4,-1
 300 260 l 1,5,-1
 157 116 l 1,6,-1
 91 182 l 1,7,-1
 234 325 l 1,8,-1
 91 467 l 1,9,-1
 157 533 l 1,10,-1
 300 391 l 1,11,-1
 442 533 l 1,0,-1
EndSplineSet
EndChar

StartChar: w_w_w.liga
Encoding: 1114126 -1 274
Width: 600
Flags: W
LayerCount: 2
Fore
SplineSet
405 528 m 1,0,-1
 510 528 l 1,1,-1
 423 0 l 1,2,-1
 284 0 l 1,3,-1
 223 375 l 1,4,-1
 147 0 l 1,5,-1
 22 0 l 1,6,-1
 -41 375 l 1,7,-1
 -104 0 l 1,8,-1
 -232 0 l 1,9,-1
 -297 375 l 1,10,-1
 -366 0 l 1,11,-1
 -492 0 l 1,12,-1
 -557 375 l 1,13,-1
 -625 0 l 1,14,-1
 -752 0 l 1,15,-1
 -817 375 l 1,16,-1
 -882 0 l 1,17,-1
 -1019 0 l 1,18,-1
 -1109 528 l 1,19,-1
 -1001 528 l 1,20,-1
 -946 70 l 1,21,-1
 -872 461 l 1,22,-1
 -760 461 l 1,23,-1
 -689 70 l 1,24,-1
 -612 461 l 1,25,-1
 -499 461 l 1,26,-1
 -429 70 l 1,27,-1
 -351 461 l 1,28,-1
 -241 461 l 1,29,-1
 -167 70 l 1,30,-1
 -97 461 l 1,31,-1
 16 461 l 1,32,-1
 86 70 l 1,33,-1
 168 461 l 1,34,-1
 280 461 l 1,35,-1
 350 70 l 1,36,-1
 405 528 l 1,0,-1
EndSplineSet
EndChar

StartChar: ordfeminine
Encoding: 170 170 275
Width: 600
Flags: W
LayerCount: 2
Fore
SplineSet
422.5 715.5 m 128,-1,1
 466 678 466 678 466 608 c 2,2,-1
 466 423 l 2,3,4
 466 402 466 402 473.5 390.5 c 128,-1,5
 481 379 481 379 498 374 c 1,6,-1
 475 307 l 1,7,8
 439 311 439 311 416.5 324.5 c 128,-1,9
 394 338 394 338 381 365 c 1,10,11
 356 337 356 337 321 321.5 c 128,-1,12
 286 306 286 306 247 306 c 0,13,14
 179 306 179 306 137 343 c 128,-1,15
 95 380 95 380 95 441 c 0,16,17
 95 508 95 508 152 545 c 128,-1,18
 209 582 209 582 312 582 c 2,19,-1
 369 582 l 1,20,-1
 369 605 l 2,21,22
 369 643 369 643 346 659.5 c 128,-1,23
 323 676 323 676 276 676 c 0,24,25
 254 676 254 676 222 670 c 128,-1,26
 190 664 190 664 156 652 c 1,27,-1
 129 722 l 1,28,29
 214 753 214 753 290 753 c 0,30,0
 379 753 379 753 422.5 715.5 c 128,-1,1
321 515 m 2,31,32
 259 515 259 515 230.5 497.5 c 128,-1,33
 202 480 202 480 202 445 c 0,34,35
 202 412 202 412 220.5 395 c 128,-1,36
 239 378 239 378 274 378 c 0,37,38
 301 378 301 378 326 392 c 128,-1,39
 351 406 351 406 369 431 c 1,40,-1
 369 515 l 1,41,-1
 321 515 l 2,31,32
504 88 m 1,42,-1
 504 0 l 1,43,-1
 104 0 l 1,44,-1
 104 88 l 1,45,-1
 504 88 l 1,42,-1
EndSplineSet
EndChar

StartChar: ordmasculine
Encoding: 186 186 276
Width: 600
Flags: W
LayerCount: 2
Fore
SplineSet
453.5 692 m 128,-1,1
 510 631 510 631 510 530 c 0,2,3
 510 464 510 464 484.5 413.5 c 128,-1,4
 459 363 459 363 411 334.5 c 128,-1,5
 363 306 363 306 300 306 c 0,6,7
 203 306 203 306 146 367 c 128,-1,8
 89 428 89 428 89 530 c 0,9,10
 89 595 89 595 115 645.5 c 128,-1,11
 141 696 141 696 189 724.5 c 128,-1,12
 237 753 237 753 300 753 c 0,13,0
 397 753 397 753 453.5 692 c 128,-1,1
222 640 m 128,-1,15
 194 604 194 604 194 530 c 256,16,17
 194 456 194 456 222 420 c 128,-1,18
 250 384 250 384 300 384 c 256,19,20
 350 384 350 384 377.5 420 c 128,-1,21
 405 456 405 456 405 530 c 256,22,23
 405 604 405 604 377.5 640 c 128,-1,24
 350 676 350 676 300 676 c 256,25,14
 250 676 250 676 222 640 c 128,-1,15
501 88 m 1,26,-1
 501 0 l 1,27,-1
 100 0 l 1,28,-1
 100 88 l 1,29,-1
 501 88 l 1,26,-1
EndSplineSet
EndChar

StartChar: uni207F
Encoding: 8319 8319 277
Width: 600
Flags: W
LayerCount: 2
Fore
SplineSet
414 696.5 m 128,-1,1
 439 670 439 670 439 620 c 2,2,-1
 439 378 l 1,3,-1
 351 378 l 1,4,-1
 351 586 l 2,5,6
 351 626 351 626 344 640.5 c 128,-1,7
 337 655 337 655 314 655 c 0,8,9
 297 655 297 655 280 643.5 c 128,-1,10
 263 632 263 632 249 613 c 1,11,-1
 249 378 l 1,12,-1
 162 378 l 1,13,-1
 162 715 l 1,14,-1
 240 715 l 1,15,-1
 243 677 l 1,16,17
 262 701 262 701 287.5 712 c 128,-1,18
 313 723 313 723 339 723 c 0,19,0
 389 723 389 723 414 696.5 c 128,-1,1
EndSplineSet
EndChar

StartChar: uni052C
Encoding: 1324 1324 278
Width: 600
GlyphClass: 2
Flags: W
AnchorPoint: "Anchor-3" 300 690 basechar 0
AnchorPoint: "Anchor-2" 300 -208 basechar 0
LayerCount: 2
Fore
SplineSet
572 91 m 1,0,-1
 572 -157 l 1,1,-1
 481 -157 l 1,2,-1
 465 0 l 1,3,-1
 160 0 l 1,4,-1
 144 -157 l 1,5,-1
 53 -157 l 1,6,-1
 53 91 l 1,7,-1
 93 91 l 1,8,9
 160 171 160 171 195 329 c 1,10,11
 117 347 117 347 81 401 c 128,-1,12
 45 455 45 455 45 550 c 2,13,-1
 45 690 l 1,14,-1
 149 690 l 1,15,-1
 149 553 l 2,16,17
 149 498 149 498 163 466 c 128,-1,18
 177 434 177 434 211 420 c 1,19,-1
 220 492 l 1,20,-1
 240 690 l 1,21,-1
 531 690 l 1,22,-1
 531 91 l 1,23,-1
 572 91 l 1,0,-1
325 487 m 2,24,25
 320 437 320 437 315 407 c 1,26,-1
 426 407 l 1,27,-1
 426 602 l 1,28,-1
 336 602 l 1,29,-1
 325 487 l 2,24,25
426 91 m 1,30,-1
 426 319 l 1,31,-1
 301 319 l 1,32,33
 284 236 284 236 259.5 183.5 c 128,-1,34
 235 131 235 131 198 91 c 1,35,-1
 426 91 l 1,30,-1
EndSplineSet
EndChar

StartChar: uni052A
Encoding: 1322 1322 279
Width: 600
GlyphClass: 2
Flags: W
AnchorPoint: "Anchor-3" 300 690 basechar 0
AnchorPoint: "Anchor-2" 300 -208 basechar 0
LayerCount: 2
Fore
SplineSet
613 0 m 1,0,-1
 523 0 l 1,1,-1
 452 322 l 1,2,-1
 426 322 l 1,3,-1
 426 0 l 1,4,-1
 363 0 l 1,5,-1
 363 -157 l 1,6,-1
 294 -157 l 1,7,-1
 279 0 l 1,8,-1
 70 0 l 1,9,-1
 55 -157 l 1,10,-1
 -14 -157 l 1,11,-1
 -14 77 l 1,12,-1
 18 77 l 1,13,14
 40 130 40 130 54.5 208.5 c 128,-1,15
 69 287 69 287 79 450 c 2,16,-1
 94 690 l 1,17,-1
 299 690 l 1,18,-1
 299 398 l 1,19,-1
 346 398 l 1,20,-1
 346 690 l 1,21,-1
 426 690 l 1,22,-1
 426 398 l 1,23,-1
 452 398 l 1,24,-1
 516 690 l 1,25,-1
 597 690 l 1,26,-1
 523 368 l 1,27,-1
 613 0 l 1,0,-1
218 616 m 1,28,-1
 171 616 l 1,29,-1
 162 445 l 2,30,31
 155 285 155 285 139 207.5 c 128,-1,32
 123 130 123 130 91 77 c 1,33,-1
 218 77 l 1,34,-1
 218 616 l 1,28,-1
346 322 m 1,35,-1
 299 322 l 1,36,-1
 299 77 l 1,37,-1
 346 77 l 1,38,-1
 346 322 l 1,35,-1
EndSplineSet
EndChar

StartChar: uni052E
Encoding: 1326 1326 280
Width: 600
Flags: W
LayerCount: 2
Fore
SplineSet
557 91 m 1,0,-1
 557 -157 l 1,1,-1
 466 -157 l 1,2,-1
 450 0 l 1,3,-1
 384 0 l 1,4,-1
 384 597 l 1,5,-1
 251 597 l 1,6,-1
 231 428 l 2,7,8
 214 267 214 267 192 184 c 128,-1,9
 170 101 170 101 138 61 c 128,-1,10
 106 21 106 21 47 -14 c 1,11,-1
 -1 66 l 1,12,13
 31 91 31 91 49.5 120 c 128,-1,14
 68 149 68 149 85 218 c 128,-1,15
 102 287 102 287 117 419 c 2,16,-1
 149 690 l 1,17,-1
 500 690 l 1,18,-1
 500 91 l 1,19,-1
 557 91 l 1,0,-1
EndSplineSet
EndChar

StartChar: uni0528
Encoding: 1320 1320 281
Width: 600
GlyphClass: 2
Flags: W
AnchorPoint: "Anchor-3" 300 690 basechar 0
AnchorPoint: "Anchor-2" 300 0 basechar 0
LayerCount: 2
Fore
SplineSet
529 690 m 1,0,-1
 529 0 l 1,1,-1
 413 0 l 1,2,-1
 413 314 l 1,3,-1
 187 314 l 1,4,-1
 187 -49 l 2,5,6
 187 -132 187 -132 143.5 -175 c 128,-1,7
 100 -218 100 -218 21 -218 c 0,8,9
 -47 -218 -47 -218 -100 -178 c 1,10,-1
 -57 -108 l 1,11,12
 -37 -119 -37 -119 -22.5 -124 c 128,-1,13
 -8 -129 -8 -129 13 -129 c 0,14,15
 71 -129 71 -129 71 -57 c 2,16,-1
 71 690 l 1,17,-1
 187 690 l 1,18,-1
 187 409 l 1,19,-1
 413 409 l 1,20,-1
 413 690 l 1,21,-1
 529 690 l 1,0,-1
EndSplineSet
EndChar

StartChar: uni0411
Encoding: 1041 1041 283
Width: 600
GlyphClass: 2
Flags: W
AnchorPoint: "Anchor-3" 300 690 basechar 0
AnchorPoint: "Anchor-2" 300 0 basechar 0
LayerCount: 2
Fore
SplineSet
477 598 m 1,0,-1
 200 598 l 1,1,-1
 200 429 l 1,2,-1
 280 429 l 2,3,4
 411 429 411 429 481.5 377.5 c 128,-1,5
 552 326 552 326 552 220 c 0,6,7
 552 108 552 108 480 54 c 128,-1,8
 408 0 408 0 284 0 c 2,9,-1
 84 0 l 1,10,-1
 84 690 l 1,11,-1
 488 690 l 1,12,-1
 477 598 l 1,0,-1
200 342 m 1,13,-1
 200 90 l 1,14,-1
 285 90 l 2,15,16
 357 90 357 90 394.5 118.5 c 128,-1,17
 432 147 432 147 432 219 c 0,18,19
 432 342 432 342 284 342 c 2,20,-1
 200 342 l 1,13,-1
EndSplineSet
EndChar

StartChar: uni0413
Encoding: 1043 1043 285
Width: 600
GlyphClass: 2
Flags: W
AnchorPoint: "Anchor-3" 343 690 basechar 0
AnchorPoint: "Anchor-2" 177 0 basechar 0
LayerCount: 2
Fore
SplineSet
550 690 m 1,0,-1
 538 594 l 1,1,-1
 235 594 l 1,2,-1
 235 0 l 1,3,-1
 119 0 l 1,4,-1
 119 690 l 1,5,-1
 550 690 l 1,0,-1
EndSplineSet
EndChar

StartChar: uni0490
Encoding: 1168 1168 287
Width: 600
GlyphClass: 2
Flags: W
AnchorPoint: "Anchor-3" 343 690 basechar 0
AnchorPoint: "Anchor-2" 177 0 basechar 0
LayerCount: 2
Fore
SplineSet
440 840 m 1,0,-1
 550 840 l 1,1,-1
 550 690 l 1,2,-1
 538 594 l 1,3,-1
 235 594 l 1,4,-1
 235 0 l 1,5,-1
 119 0 l 1,6,-1
 119 690 l 1,7,-1
 440 690 l 1,8,-1
 440 840 l 1,0,-1
EndSplineSet
EndChar

StartChar: uni0414
Encoding: 1044 1044 288
Width: 600
GlyphClass: 2
Flags: W
AnchorPoint: "Anchor-3" 300 690 basechar 0
AnchorPoint: "Anchor-2" 300 -208 basechar 0
LayerCount: 2
Fore
SplineSet
570 91 m 1,0,-1
 570 -157 l 1,1,-1
 479 -157 l 1,2,-1
 463 0 l 1,3,-1
 103 0 l 1,4,-1
 87 -157 l 1,5,-1
 -4 -157 l 1,6,-1
 -4 91 l 1,7,-1
 37 91 l 1,8,9
 63 117 63 117 78 156 c 128,-1,10
 93 195 93 195 104.5 265 c 128,-1,11
 116 335 116 335 134 485 c 2,12,-1
 157 690 l 1,13,-1
 518 690 l 1,14,-1
 518 91 l 1,15,-1
 570 91 l 1,0,-1
406 601 m 1,16,-1
 257 601 l 1,17,-1
 245 486 l 2,18,19
 230 347 230 347 218 275 c 128,-1,20
 206 203 206 203 188 161 c 128,-1,21
 170 119 170 119 139 91 c 1,22,-1
 406 91 l 1,23,-1
 406 601 l 1,16,-1
EndSplineSet
EndChar

StartChar: uni0415
Encoding: 1045 1045 289
Width: 600
GlyphClass: 2
Flags: W
AnchorPoint: "Anchor-3" 321 690 basechar 0
AnchorPoint: "Anchor-2" 324 0 basechar 0
LayerCount: 2
Fore
SplineSet
229 602 m 1,0,-1
 229 394 l 1,1,-1
 479 394 l 1,2,-1
 479 307 l 1,3,-1
 229 307 l 1,4,-1
 229 88 l 1,5,-1
 534 88 l 1,6,-1
 534 0 l 1,7,-1
 113 0 l 1,8,-1
 113 690 l 1,9,-1
 528 690 l 1,10,-1
 515 602 l 1,11,-1
 229 602 l 1,0,-1
EndSplineSet
EndChar

StartChar: uni0416
Encoding: 1046 1046 292
Width: 600
GlyphClass: 2
Flags: W
AnchorPoint: "Anchor-3" 300 690 basechar 0
AnchorPoint: "Anchor-2" 300 0 basechar 0
LayerCount: 2
Fore
SplineSet
257 324 m 1,0,-1
 208 324 l 1,1,-1
 113 0 l 1,2,-1
 8 0 l 1,3,-1
 125 370 l 1,4,-1
 21 690 l 1,5,-1
 124 690 l 1,6,-1
 209 399 l 1,7,-1
 257 399 l 1,8,-1
 257 690 l 1,9,-1
 343 690 l 1,10,-1
 343 399 l 1,11,-1
 391 399 l 1,12,-1
 477 690 l 1,13,-1
 579 690 l 1,14,-1
 475 370 l 1,15,-1
 592 0 l 1,16,-1
 485 0 l 1,17,-1
 391 324 l 1,18,-1
 343 324 l 1,19,-1
 343 0 l 1,20,-1
 257 0 l 1,21,-1
 257 324 l 1,0,-1
EndSplineSet
EndChar

StartChar: uni0417
Encoding: 1047 1047 293
Width: 600
GlyphClass: 2
Flags: W
AnchorPoint: "Anchor-3" 295 690 basechar 0
AnchorPoint: "Anchor-2" 291 0 basechar 0
LayerCount: 2
Fore
SplineSet
411 681 m 128,-1,1
 466 658 466 658 496 616.5 c 128,-1,2
 526 575 526 575 526 522 c 0,3,4
 526 460 526 460 486 422 c 128,-1,5
 446 384 446 384 378 373 c 1,6,7
 453 366 453 366 501 321.5 c 128,-1,8
 549 277 549 277 549 202 c 0,9,10
 549 139 549 139 516 90.5 c 128,-1,11
 483 42 483 42 421 14.5 c 128,-1,12
 359 -13 359 -13 275 -13 c 0,13,14
 198 -13 198 -13 134 12 c 128,-1,15
 70 37 70 37 24 85 c 1,16,-1
 90 147 l 1,17,18
 169 77 169 77 274 77 c 0,19,20
 347 77 347 77 388 110.5 c 128,-1,21
 429 144 429 144 429 203 c 0,22,23
 429 264 429 264 388.5 294 c 128,-1,24
 348 324 348 324 278 324 c 2,25,-1
 159 324 l 1,26,-1
 173 413 l 1,27,-1
 274 413 l 2,28,29
 333 413 333 413 371.5 439 c 128,-1,30
 410 465 410 465 410 516 c 0,31,32
 410 563 410 563 372.5 589 c 128,-1,33
 335 615 335 615 274 615 c 0,34,35
 223 615 223 615 180.5 599.5 c 128,-1,36
 138 584 138 584 100 553 c 1,37,-1
 40 617 l 1,38,39
 142 704 142 704 282 704 c 0,40,0
 356 704 356 704 411 681 c 128,-1,1
EndSplineSet
EndChar

StartChar: uni0418
Encoding: 1048 1048 294
Width: 600
GlyphClass: 2
Flags: W
AnchorPoint: "Anchor-3" 300 690 basechar 0
AnchorPoint: "Anchor-2" 300 0 basechar 0
LayerCount: 2
Fore
SplineSet
71 690 m 1,0,-1
 182 690 l 1,1,-1
 182 385 l 2,2,3
 182 295 182 295 177 232 c 128,-1,4
 172 169 172 169 162 102 c 1,5,-1
 391 690 l 1,6,-1
 529 690 l 1,7,-1
 529 0 l 1,8,-1
 418 0 l 1,9,-1
 418 304 l 2,10,11
 418 449 418 449 437 584 c 1,12,-1
 212 0 l 1,13,-1
 71 0 l 1,14,-1
 71 690 l 1,0,-1
EndSplineSet
EndChar

StartChar: uni048A
Encoding: 1162 1162 297
Width: 600
GlyphClass: 2
Flags: W
AnchorPoint: "Anchor-3" 300 690 basechar 0
AnchorPoint: "Anchor-2" 300 0 basechar 0
LayerCount: 2
Fore
SplineSet
190 795.5 m 128,-1,1
 148 831 148 831 142 888 c 1,2,-1
 210 902 l 1,3,4
 229 841 229 841 298 841 c 0,5,6
 371 841 371 841 388 902 c 1,7,-1
 457 888 l 1,8,9
 451 831 451 831 408 795.5 c 128,-1,10
 365 760 365 760 298 760 c 0,11,0
 232 760 232 760 190 795.5 c 128,-1,1
619 100 m 1,12,-1
 533 -157 l 1,13,-1
 440 -157 l 1,14,-1
 477 0 l 1,15,-1
 418 0 l 1,16,-1
 418 304 l 2,17,18
 418 449 418 449 437 584 c 1,19,-1
 212 0 l 1,20,-1
 71 0 l 1,21,-1
 71 690 l 1,22,-1
 182 690 l 1,23,-1
 182 385 l 2,24,25
 182 295 182 295 177 232 c 128,-1,26
 172 169 172 169 162 102 c 1,27,-1
 391 690 l 1,28,-1
 529 690 l 1,29,-1
 529 100 l 1,30,-1
 619 100 l 1,12,-1
EndSplineSet
EndChar

StartChar: uni041A
Encoding: 1050 1050 298
Width: 600
GlyphClass: 2
Flags: W
AnchorPoint: "Anchor-3" 321 690 basechar 0
AnchorPoint: "Anchor-2" 300 0 basechar 0
LayerCount: 2
Fore
SplineSet
268 317 m 1,0,-1
 194 317 l 1,1,-1
 194 0 l 1,2,-1
 79 0 l 1,3,-1
 79 690 l 1,4,-1
 194 690 l 1,5,-1
 194 407 l 1,6,-1
 268 407 l 1,7,-1
 457 690 l 1,8,-1
 576 690 l 1,9,-1
 365 370 l 1,10,-1
 595 0 l 1,11,-1
 462 0 l 1,12,-1
 268 317 l 1,0,-1
EndSplineSet
EndChar

StartChar: uni041B
Encoding: 1051 1051 300
Width: 600
GlyphClass: 2
Flags: W
AnchorPoint: "Anchor-3" 300 690 basechar 0
AnchorPoint: "Anchor-2" 300 0 basechar 0
LayerCount: 2
Fore
SplineSet
529 0 m 1,0,-1
 413 0 l 1,1,-1
 413 597 l 1,2,-1
 256 597 l 1,3,-1
 237 428 l 2,4,5
 219 267 219 267 197.5 184 c 128,-1,6
 176 101 176 101 144 61 c 128,-1,7
 112 21 112 21 53 -14 c 1,8,-1
 5 66 l 1,9,10
 37 91 37 91 55.5 120 c 128,-1,11
 74 149 74 149 91 218 c 128,-1,12
 108 287 108 287 123 419 c 2,13,-1
 155 690 l 1,14,-1
 529 690 l 1,15,-1
 529 0 l 1,0,-1
EndSplineSet
EndChar

StartChar: uni041E
Encoding: 1054 1054 303
Width: 600
GlyphClass: 2
Flags: W
AnchorPoint: "Anchor-3" 300 690 basechar 0
AnchorPoint: "Anchor-2" 300 0 basechar 0
LayerCount: 2
Fore
SplineSet
494.5 84 m 128,-1,1
 427 -13 427 -13 300 -13 c 256,2,3
 173 -13 173 -13 105.5 82.5 c 128,-1,4
 38 178 38 178 38 344 c 0,5,6
 38 508 38 508 105.5 606 c 128,-1,7
 173 704 173 704 300 704 c 256,8,9
 427 704 427 704 494.5 607.5 c 128,-1,10
 562 511 562 511 562 345 c 0,11,0
 562 181 562 181 494.5 84 c 128,-1,1
409 547 m 128,-1,13
 375 613 375 613 300 613 c 256,14,15
 225 613 225 613 191 547 c 128,-1,16
 157 481 157 481 157 344 c 0,17,18
 157 209 157 209 191.5 143 c 128,-1,19
 226 77 226 77 300 77 c 0,20,21
 375 77 375 77 409 143 c 128,-1,22
 443 209 443 209 443 345 c 256,23,12
 443 481 443 481 409 547 c 128,-1,13
EndSplineSet
EndChar

StartChar: uni041F
Encoding: 1055 1055 304
Width: 600
GlyphClass: 2
Flags: W
AnchorPoint: "Anchor-3" 300 690 basechar 0
AnchorPoint: "Anchor-2" 300 0 basechar 0
LayerCount: 2
Fore
SplineSet
413 0 m 1,0,-1
 413 596 l 1,1,-1
 187 596 l 1,2,-1
 187 0 l 1,3,-1
 71 0 l 1,4,-1
 71 690 l 1,5,-1
 529 690 l 1,6,-1
 529 0 l 1,7,-1
 413 0 l 1,0,-1
EndSplineSet
EndChar

StartChar: uni0423
Encoding: 1059 1059 308
Width: 600
GlyphClass: 2
Flags: W
AnchorPoint: "Anchor-3" 310 690 basechar 0
AnchorPoint: "Anchor-2" 300 0 basechar 0
LayerCount: 2
Fore
SplineSet
393 201 m 2,0,1
 364 128 364 128 331 85.5 c 128,-1,2
 298 43 298 43 247 19 c 128,-1,3
 196 -5 196 -5 116 -13 c 1,4,-1
 100 72 l 1,5,6
 157 79 157 79 191 93 c 128,-1,7
 225 107 225 107 245 129 c 128,-1,8
 265 151 265 151 280 187 c 1,9,-1
 237 187 l 1,10,-1
 14 690 l 1,11,-1
 135 690 l 1,12,-1
 312 258 l 1,13,-1
 473 690 l 1,14,-1
 590 690 l 1,15,-1
 393 201 l 2,0,1
EndSplineSet
EndChar

StartChar: uni0424
Encoding: 1060 1060 310
Width: 600
GlyphClass: 2
Flags: W
AnchorPoint: "Anchor-3" 300 690 basechar 0
AnchorPoint: "Anchor-2" 300 0 basechar 0
LayerCount: 2
Fore
SplineSet
348 658 m 1,0,1
 471 649 471 649 530.5 572.5 c 128,-1,2
 590 496 590 496 590 348 c 0,3,4
 590 199 590 199 528.5 119.5 c 128,-1,5
 467 40 467 40 348 34 c 1,6,-1
 348 -33 l 1,7,-1
 252 -33 l 1,8,-1
 252 34 l 1,9,10
 132 40 132 40 71 119 c 128,-1,11
 10 198 10 198 10 348 c 0,12,13
 10 496 10 496 69.5 572.5 c 128,-1,14
 129 649 129 649 252 658 c 1,15,-1
 252 722 l 1,16,-1
 348 722 l 1,17,-1
 348 658 l 1,0,1
153.5 526 m 128,-1,19
 122 472 122 472 122 348 c 0,20,21
 122 226 122 226 153 170.5 c 128,-1,22
 184 115 184 115 257 108 c 1,23,-1
 257 585 l 1,24,18
 185 580 185 580 153.5 526 c 128,-1,19
343 108 m 1,25,26
 416 115 416 115 447 170.5 c 128,-1,27
 478 226 478 226 478 348 c 0,28,29
 478 472 478 472 446.5 526 c 128,-1,30
 415 580 415 580 343 585 c 1,31,-1
 343 108 l 1,25,26
EndSplineSet
EndChar

StartChar: uni0427
Encoding: 1063 1063 312
Width: 600
GlyphClass: 2
Flags: W
AnchorPoint: "Anchor-3" 288 690 basechar 0
AnchorPoint: "Anchor-2" 300 0 basechar 0
LayerCount: 2
Fore
SplineSet
529 690 m 1,0,-1
 529 0 l 1,1,-1
 413 0 l 1,2,-1
 413 267 l 1,3,4
 372 238 372 238 334 224.5 c 128,-1,5
 296 211 296 211 247 211 c 0,6,7
 152 211 152 211 96.5 268.5 c 128,-1,8
 41 326 41 326 41 427 c 2,9,-1
 41 690 l 1,10,-1
 157 690 l 1,11,-1
 157 433 l 2,12,13
 157 366 157 366 187 335 c 128,-1,14
 217 304 217 304 278 304 c 0,15,16
 357 304 357 304 413 356 c 1,17,-1
 413 690 l 1,18,-1
 529 690 l 1,0,-1
EndSplineSet
EndChar

StartChar: uni0426
Encoding: 1062 1062 313
Width: 600
GlyphClass: 2
Flags: W
AnchorPoint: "Anchor-3" 0 0 basechar 0
AnchorPoint: "Anchor-2" 300 0 basechar 0
LayerCount: 2
Fore
SplineSet
529 91 m 1,0,-1
 586 91 l 1,1,-1
 586 -157 l 1,2,-1
 495 -157 l 1,3,-1
 479 0 l 1,4,-1
 71 0 l 1,5,-1
 71 690 l 1,6,-1
 187 690 l 1,7,-1
 187 93 l 1,8,-1
 413 93 l 1,9,-1
 413 690 l 1,10,-1
 529 690 l 1,11,-1
 529 91 l 1,0,-1
EndSplineSet
EndChar

StartChar: uni0428
Encoding: 1064 1064 314
Width: 600
GlyphClass: 2
Flags: W
AnchorPoint: "Anchor-3" 300 690 basechar 0
AnchorPoint: "Anchor-2" 300 0 basechar 0
LayerCount: 2
Fore
SplineSet
558 690 m 1,0,-1
 558 0 l 1,1,-1
 42 0 l 1,2,-1
 42 690 l 1,3,-1
 142 690 l 1,4,-1
 142 88 l 1,5,-1
 254 88 l 1,6,-1
 254 690 l 1,7,-1
 346 690 l 1,8,-1
 346 88 l 1,9,-1
 458 88 l 1,10,-1
 458 690 l 1,11,-1
 558 690 l 1,0,-1
EndSplineSet
EndChar

StartChar: uni0429
Encoding: 1065 1065 315
Width: 600
GlyphClass: 2
Flags: W
AnchorPoint: "Anchor-3" 300 690 basechar 0
AnchorPoint: "Anchor-2" 300 0 basechar 0
LayerCount: 2
Fore
SplineSet
558 91 m 1,0,-1
 615 91 l 1,1,-1
 615 -157 l 1,2,-1
 524 -157 l 1,3,-1
 508 0 l 1,4,-1
 42 0 l 1,5,-1
 42 690 l 1,6,-1
 142 690 l 1,7,-1
 142 88 l 1,8,-1
 254 88 l 1,9,-1
 254 690 l 1,10,-1
 346 690 l 1,11,-1
 346 88 l 1,12,-1
 458 88 l 1,13,-1
 458 690 l 1,14,-1
 558 690 l 1,15,-1
 558 91 l 1,0,-1
EndSplineSet
EndChar

StartChar: uni040F
Encoding: 1039 1039 316
Width: 600
GlyphClass: 2
Flags: W
AnchorPoint: "Anchor-3" 0 0 basechar 0
AnchorPoint: "Anchor-2" 300 0 basechar 0
LayerCount: 2
Fore
SplineSet
529 690 m 1,0,-1
 529 0 l 1,1,-1
 354 0 l 1,2,-1
 354 -157 l 1,3,-1
 263 -157 l 1,4,-1
 247 0 l 1,5,-1
 71 0 l 1,6,-1
 71 690 l 1,7,-1
 187 690 l 1,8,-1
 187 93 l 1,9,-1
 413 93 l 1,10,-1
 413 690 l 1,11,-1
 529 690 l 1,0,-1
EndSplineSet
EndChar

StartChar: uni042C
Encoding: 1068 1068 317
Width: 600
GlyphClass: 2
Flags: W
AnchorPoint: "Anchor-3" 300 690 basechar 0
AnchorPoint: "Anchor-2" 300 0 basechar 0
LayerCount: 2
Fore
SplineSet
195 443 m 1,0,-1
 286 443 l 2,1,2
 418 443 418 443 489.5 390 c 128,-1,3
 561 337 561 337 561 227 c 0,4,5
 561 112 561 112 488.5 56 c 128,-1,6
 416 0 416 0 290 0 c 2,7,-1
 79 0 l 1,8,-1
 79 690 l 1,9,-1
 195 690 l 1,10,-1
 195 443 l 1,0,-1
195 356 m 1,11,-1
 195 89 l 1,12,-1
 293 89 l 2,13,14
 364 89 364 89 401.5 120 c 128,-1,15
 439 151 439 151 439 226 c 0,16,17
 439 356 439 356 291 356 c 2,18,-1
 195 356 l 1,11,-1
EndSplineSet
EndChar

StartChar: uni042A
Encoding: 1066 1066 318
Width: 600
Flags: W
LayerCount: 2
Fore
SplineSet
223 443 m 1,0,-1
 308 443 l 2,1,2
 440 443 440 443 511.5 390 c 128,-1,3
 583 337 583 337 583 227 c 0,4,5
 583 111 583 111 510.5 55.5 c 128,-1,6
 438 0 438 0 313 0 c 2,7,-1
 110 0 l 1,8,-1
 110 597 l 1,9,-1
 -1 597 l 1,10,-1
 -1 690 l 1,11,-1
 223 690 l 1,12,-1
 223 443 l 1,0,-1
223 357 m 1,13,-1
 223 88 l 1,14,-1
 311 88 l 2,15,16
 385 88 385 88 424.5 118.5 c 128,-1,17
 464 149 464 149 464 226 c 0,18,19
 464 357 464 357 315 357 c 2,20,-1
 223 357 l 1,13,-1
EndSplineSet
EndChar

StartChar: uni042B
Encoding: 1067 1067 319
Width: 600
GlyphClass: 2
Flags: W
AnchorPoint: "Anchor-3" 300 690 basechar 0
AnchorPoint: "Anchor-2" 300 0 basechar 0
LayerCount: 2
Fore
SplineSet
133 444 m 1,0,-1
 175 444 l 2,1,2
 299 444 299 444 362.5 389 c 128,-1,3
 426 334 426 334 426 227 c 0,4,5
 426 113 426 113 361 56.5 c 128,-1,6
 296 0 296 0 177 0 c 2,7,-1
 27 0 l 1,8,-1
 27 690 l 1,9,-1
 133 690 l 1,10,-1
 133 444 l 1,0,-1
573 690 m 1,11,-1
 573 0 l 1,12,-1
 467 0 l 1,13,-1
 467 690 l 1,14,-1
 573 690 l 1,11,-1
133 361 m 1,15,-1
 133 86 l 1,16,-1
 184 86 l 2,17,18
 250 86 250 86 283 118.5 c 128,-1,19
 316 151 316 151 316 226 c 0,20,21
 316 361 316 361 186 361 c 2,22,-1
 133 361 l 1,15,-1
EndSplineSet
EndChar

StartChar: uni0409
Encoding: 1033 1033 320
Width: 600
GlyphClass: 2
Flags: W
AnchorPoint: "Anchor-3" 300 690 basechar 0
AnchorPoint: "Anchor-2" 300 0 basechar 0
LayerCount: 2
Fore
SplineSet
358 443 m 1,0,1
 479 443 479 443 539.5 390 c 128,-1,2
 600 337 600 337 600 227 c 0,3,4
 600 111 600 111 538.5 55.5 c 128,-1,5
 477 0 477 0 364 0 c 2,6,-1
 258 0 l 1,7,-1
 258 606 l 1,8,-1
 178 606 l 1,9,-1
 158 308 l 2,10,11
 150 191 150 191 136.5 130 c 128,-1,12
 123 69 123 69 103 41 c 128,-1,13
 83 13 83 13 45 -14 c 1,14,-1
 -4 57 l 1,15,16
 13 74 13 74 23.5 98 c 128,-1,17
 34 122 34 122 43 173 c 128,-1,18
 52 224 52 224 58 316 c 2,19,-1
 85 690 l 1,20,-1
 358 690 l 1,21,-1
 358 443 l 1,0,1
358 362 m 1,22,-1
 358 84 l 1,23,-1
 373 84 l 2,24,25
 434 84 434 84 463.5 116.5 c 128,-1,26
 493 149 493 149 493 226 c 0,27,28
 493 297 493 297 463.5 329.5 c 128,-1,29
 434 362 434 362 372 362 c 2,30,-1
 358 362 l 1,22,-1
EndSplineSet
EndChar

StartChar: uni040A
Encoding: 1034 1034 321
Width: 600
GlyphClass: 2
Flags: W
AnchorPoint: "Anchor-3" 300 690 basechar 0
AnchorPoint: "Anchor-2" 300 0 basechar 0
LayerCount: 2
Fore
SplineSet
360 422 m 1,0,1
 479 421 479 421 539.5 371 c 128,-1,2
 600 321 600 321 600 218 c 0,3,4
 600 105 600 105 539 52.5 c 128,-1,5
 478 0 478 0 362 0 c 2,6,-1
 258 0 l 1,7,-1
 258 339 l 1,8,-1
 138 339 l 1,9,-1
 138 0 l 1,10,-1
 36 0 l 1,11,-1
 36 690 l 1,12,-1
 138 690 l 1,13,-1
 138 422 l 1,14,-1
 258 422 l 1,15,-1
 258 690 l 1,16,-1
 360 690 l 1,17,-1
 360 422 l 1,0,1
360 340 m 1,18,-1
 360 85 l 1,19,-1
 372 85 l 2,20,21
 436 86 436 86 465 114 c 128,-1,22
 494 142 494 142 494 217 c 0,23,24
 494 284 494 284 464.5 311.5 c 128,-1,25
 435 339 435 339 372 340 c 2,26,-1
 360 340 l 1,18,-1
EndSplineSet
EndChar

StartChar: uni0404
Encoding: 1028 1028 323
Width: 600
GlyphClass: 2
Flags: W
AnchorPoint: "Anchor-3" 300 690 basechar 0
AnchorPoint: "Anchor-2" 300 0 basechar 0
LayerCount: 2
Fore
SplineSet
469 686 m 128,-1,1
 518 668 518 668 563 633 c 1,2,-1
 506 567 l 1,3,4
 436 615 436 615 362 615 c 0,5,6
 283 615 283 615 230.5 562.5 c 128,-1,7
 178 510 178 510 169 400 c 1,8,-1
 455 400 l 1,9,-1
 455 308 l 1,10,-1
 167 308 l 1,11,12
 173 192 173 192 225.5 135 c 128,-1,13
 278 78 278 78 360 78 c 0,14,15
 411 78 411 78 447.5 93.5 c 128,-1,16
 484 109 484 109 516 136 c 1,17,-1
 572 67 l 1,18,19
 486 -13 486 -13 354 -13 c 0,20,21
 264 -13 264 -13 195 28.5 c 128,-1,22
 126 70 126 70 87.5 151 c 128,-1,23
 49 232 49 232 49 346 c 0,24,25
 49 459 49 459 89.5 539.5 c 128,-1,26
 130 620 130 620 199 662 c 128,-1,27
 268 704 268 704 354 704 c 0,28,0
 420 704 420 704 469 686 c 128,-1,1
EndSplineSet
EndChar

StartChar: uni042D
Encoding: 1069 1069 324
Width: 600
GlyphClass: 2
Flags: W
AnchorPoint: "Anchor-3" 285 689 basechar 0
AnchorPoint: "Anchor-2" 300 0 basechar 0
LayerCount: 2
Fore
SplineSet
473 614.5 m 128,-1,1
 547 525 547 525 547 352 c 0,2,3
 547 174 547 174 468.5 80.5 c 128,-1,4
 390 -13 390 -13 254 -13 c 0,5,6
 187 -13 187 -13 130 10 c 128,-1,7
 73 33 73 33 31 75 c 1,8,-1
 93 139 l 1,9,10
 129 108 129 108 166.5 93 c 128,-1,11
 204 78 204 78 250 78 c 0,12,13
 333 78 333 78 378 134 c 128,-1,14
 423 190 423 190 428 309 c 1,15,-1
 143 309 l 1,16,-1
 143 399 l 1,17,-1
 428 399 l 1,18,19
 422 513 422 513 379.5 564 c 128,-1,20
 337 615 337 615 258 615 c 0,21,22
 209 615 209 615 172 599 c 128,-1,23
 135 583 135 583 98 554 c 1,24,-1
 39 618 l 1,25,26
 87 658 87 658 141.5 681 c 128,-1,27
 196 704 196 704 266 704 c 0,28,0
 399 704 399 704 473 614.5 c 128,-1,1
EndSplineSet
EndChar

StartChar: uni040B
Encoding: 1035 1035 328
Width: 600
Flags: W
LayerCount: 2
Fore
SplineSet
411 601 m 1,0,-1
 259 601 l 1,1,-1
 259 404 l 1,2,3
 318 458 318 458 394 458 c 0,4,5
 483 458 483 458 527.5 405 c 128,-1,6
 572 352 572 352 572 248 c 2,7,-1
 572 0 l 1,8,-1
 460 0 l 1,9,-1
 460 250 l 2,10,11
 460 312 460 312 438.5 339 c 128,-1,12
 417 366 417 366 366 366 c 0,13,14
 331 366 331 366 306 353.5 c 128,-1,15
 281 341 281 341 259 321 c 1,16,-1
 259 0 l 1,17,-1
 147 0 l 1,18,-1
 147 601 l 1,19,-1
 -6 601 l 1,20,-1
 -6 690 l 1,21,-1
 423 690 l 1,22,-1
 411 601 l 1,0,-1
EndSplineSet
EndChar

StartChar: uni042E
Encoding: 1070 1070 329
Width: 600
GlyphClass: 2
Flags: W
AnchorPoint: "Anchor-3" 300 690 basechar 0
AnchorPoint: "Anchor-2" 300 0 basechar 0
LayerCount: 2
Fore
SplineSet
503.5 664 m 128,-1,1
 546 624 546 624 564 546 c 128,-1,2
 582 468 582 468 582 345 c 0,3,4
 582 165 582 165 537 76 c 128,-1,5
 492 -13 492 -13 390 -13 c 0,6,7
 289 -13 289 -13 245.5 70 c 128,-1,8
 202 153 202 153 199 314 c 1,9,-1
 140 314 l 1,10,-1
 140 0 l 1,11,-1
 41 0 l 1,12,-1
 41 690 l 1,13,-1
 140 690 l 1,14,-1
 140 401 l 1,15,-1
 200 401 l 1,16,17
 206 552 206 552 250.5 628 c 128,-1,18
 295 704 295 704 390 704 c 0,19,0
 461 704 461 704 503.5 664 c 128,-1,1
339.5 594 m 128,-1,21
 321 569 321 569 313 510.5 c 128,-1,22
 305 452 305 452 305 346 c 256,23,24
 305 240 305 240 313 181 c 128,-1,25
 321 122 321 122 339.5 97 c 128,-1,26
 358 72 358 72 390 72 c 0,27,28
 421 72 421 72 440 97 c 128,-1,29
 459 122 459 122 467.5 181.5 c 128,-1,30
 476 241 476 241 476 345 c 0,31,32
 476 450 476 450 467.5 509.5 c 128,-1,33
 459 569 459 569 440 594 c 128,-1,34
 421 619 421 619 390 619 c 0,35,20
 358 619 358 619 339.5 594 c 128,-1,21
EndSplineSet
EndChar

StartChar: uni042F
Encoding: 1071 1071 330
Width: 600
GlyphClass: 2
Flags: W
AnchorPoint: "Anchor-3" 300 690 basechar 0
AnchorPoint: "Anchor-2" 300 0 basechar 0
LayerCount: 2
Fore
SplineSet
529 0 m 1,0,-1
 413 0 l 1,1,-1
 413 267 l 1,2,-1
 285 267 l 1,3,-1
 149 0 l 1,4,-1
 21 0 l 1,5,-1
 180 291 l 1,6,7
 61 345 61 345 61 480 c 0,8,9
 61 582 61 582 129.5 636 c 128,-1,10
 198 690 198 690 330 690 c 2,11,-1
 529 690 l 1,12,-1
 529 0 l 1,0,-1
325 604 m 2,13,14
 253 604 253 604 217.5 573.5 c 128,-1,15
 182 543 182 543 182 479 c 0,16,17
 182 414 182 414 215.5 383.5 c 128,-1,18
 249 353 249 353 315 353 c 2,19,-1
 413 353 l 1,20,-1
 413 604 l 1,21,-1
 325 604 l 2,13,14
EndSplineSet
EndChar

StartChar: uni0402
Encoding: 1026 1026 331
Width: 600
GlyphClass: 2
Flags: W
AnchorPoint: "Anchor-3" 300 690 basechar 0
AnchorPoint: "Anchor-2" 300 -208 basechar 0
LayerCount: 2
Fore
SplineSet
259 404 m 1,0,1
 322 458 322 458 394 458 c 0,2,3
 483 458 483 458 527.5 405 c 128,-1,4
 572 352 572 352 572 248 c 2,5,-1
 572 97 l 2,6,7
 572 -8 572 -8 524.5 -62.5 c 128,-1,8
 477 -117 477 -117 385 -148 c 1,9,-1
 356 -63 l 1,10,11
 399 -45 399 -45 421 -25 c 128,-1,12
 443 -5 443 -5 451.5 23.5 c 128,-1,13
 460 52 460 52 460 98 c 2,14,-1
 460 250 l 2,15,16
 460 312 460 312 438.5 339 c 128,-1,17
 417 366 417 366 366 366 c 0,18,19
 331 366 331 366 306 353.5 c 128,-1,20
 281 341 281 341 259 321 c 1,21,-1
 259 0 l 1,22,-1
 147 0 l 1,23,-1
 147 601 l 1,24,-1
 -6 601 l 1,25,-1
 -6 690 l 1,26,-1
 423 690 l 1,27,-1
 411 601 l 1,28,-1
 259 601 l 1,29,-1
 259 404 l 1,0,1
EndSplineSet
EndChar

StartChar: uni0460
Encoding: 1120 1120 332
Width: 600
Flags: W
LayerCount: 2
Fore
SplineSet
566 515.5 m 128,-1,1
 586 427 586 427 586 300 c 0,2,3
 586 139 586 139 541 62.5 c 128,-1,4
 496 -14 496 -14 419 -14 c 0,5,6
 371 -14 371 -14 343 11 c 128,-1,7
 315 36 315 36 300 86 c 1,8,9
 284 36 284 36 256.5 11 c 128,-1,10
 229 -14 229 -14 184 -14 c 0,11,12
 137 -14 137 -14 99 18 c 128,-1,13
 61 50 61 50 38 120.5 c 128,-1,14
 15 191 15 191 15 300 c 0,15,16
 15 426 15 426 34.5 512 c 128,-1,17
 54 598 54 598 87 690 c 1,18,-1
 189 690 l 1,19,20
 157 590 157 590 140.5 504.5 c 128,-1,21
 124 419 124 419 124 303 c 0,22,23
 124 182 124 182 143.5 129.5 c 128,-1,24
 163 77 163 77 200 77 c 0,25,26
 222 77 222 77 236.5 98.5 c 128,-1,27
 251 120 251 120 251 166 c 2,28,-1
 251 398 l 1,29,-1
 350 398 l 1,30,-1
 350 166 l 2,31,32
 350 121 350 121 365 99 c 128,-1,33
 380 77 380 77 405 77 c 0,34,35
 439 77 439 77 458 126 c 128,-1,36
 477 175 477 175 477 302 c 0,37,38
 477 417 477 417 460.5 501 c 128,-1,39
 444 585 444 585 412 690 c 1,40,-1
 513 690 l 1,41,0
 546 604 546 604 566 515.5 c 128,-1,1
EndSplineSet
EndChar

StartChar: uni0462
Encoding: 1122 1122 333
Width: 600
GlyphClass: 2
Flags: W
AnchorPoint: "Anchor-3" 300 690 basechar 0
AnchorPoint: "Anchor-2" 300 0 basechar 0
LayerCount: 2
Fore
SplineSet
505 380.5 m 128,-1,1
 575 327 575 327 575 224 c 0,2,3
 575 112 575 112 503 56 c 128,-1,4
 431 0 431 0 311 0 c 2,5,-1
 143 0 l 1,6,-1
 143 526 l 1,7,-1
 10 526 l 1,8,-1
 10 602 l 1,9,-1
 143 602 l 1,10,-1
 143 690 l 1,11,-1
 259 690 l 1,12,-1
 259 602 l 1,13,-1
 401 602 l 1,14,-1
 401 526 l 1,15,-1
 259 526 l 1,16,-1
 259 434 l 1,17,-1
 314 434 l 2,18,0
 435 434 435 434 505 380.5 c 128,-1,1
454 223 m 0,20,21
 454 347 454 347 313 347 c 2,22,-1
 259 347 l 1,23,-1
 259 89 l 1,24,-1
 313 89 l 2,25,19
 454 89 454 89 454 223 c 0,20,21
EndSplineSet
EndChar

StartChar: uni0464
Encoding: 1124 1124 334
Width: 600
GlyphClass: 2
Flags: W
AnchorPoint: "Anchor-3" 300 690 basechar 0
AnchorPoint: "Anchor-2" 300 0 basechar 0
LayerCount: 2
Fore
SplineSet
600 30 m 1,0,1
 570 9 570 9 536 -2 c 128,-1,2
 502 -13 502 -13 456 -13 c 0,3,4
 343 -13 343 -13 278.5 69 c 128,-1,5
 214 151 214 151 207 308 c 1,6,-1
 146 308 l 1,7,-1
 146 0 l 1,8,-1
 33 0 l 1,9,-1
 33 691 l 1,10,-1
 146 691 l 1,11,-1
 146 401 l 1,12,-1
 208 401 l 1,13,14
 219 548 219 548 286 626 c 128,-1,15
 353 704 353 704 464 704 c 0,16,17
 506 704 506 704 536 695 c 128,-1,18
 566 686 566 686 595 666 c 1,19,-1
 550 595 l 1,20,21
 529 607 529 607 509.5 612 c 128,-1,22
 490 617 490 617 466 617 c 0,23,24
 403 617 403 617 366 565 c 128,-1,25
 329 513 329 513 322 399 c 1,26,-1
 524 399 l 1,27,-1
 524 309 l 1,28,-1
 321 309 l 1,29,30
 325 188 325 188 361 131.5 c 128,-1,31
 397 75 397 75 463 75 c 0,32,33
 491 75 491 75 512.5 82 c 128,-1,34
 534 89 534 89 557 102 c 1,35,-1
 600 30 l 1,0,1
EndSplineSet
EndChar

StartChar: uni0466
Encoding: 1126 1126 335
Width: 600
GlyphClass: 2
Flags: W
AnchorPoint: "Anchor-3" 300 690 basechar 0
AnchorPoint: "Anchor-2" 300 0 basechar 0
LayerCount: 2
Fore
SplineSet
475 0 m 1,0,-1
 396 273 l 1,1,-1
 347 273 l 1,2,-1
 347 0 l 1,3,-1
 251 0 l 1,4,-1
 251 273 l 1,5,-1
 201 273 l 1,6,-1
 122 0 l 1,7,-1
 8 0 l 1,8,-1
 228 690 l 1,9,-1
 372 690 l 1,10,-1
 592 0 l 1,11,-1
 475 0 l 1,0,-1
226 361 m 1,12,-1
 370 361 l 1,13,-1
 298 609 l 1,14,-1
 226 361 l 1,12,-1
EndSplineSet
EndChar

StartChar: uni0468
Encoding: 1128 1128 336
Width: 600
GlyphClass: 2
Flags: W
AnchorPoint: "Anchor-3" 300 690 basechar 0
AnchorPoint: "Anchor-2" 300 0 basechar 0
LayerCount: 2
Fore
SplineSet
508 0 m 1,0,-1
 449 281 l 1,1,-1
 420 281 l 1,2,-1
 420 0 l 1,3,-1
 337 0 l 1,4,-1
 337 281 l 1,5,-1
 307 281 l 1,6,-1
 249 0 l 1,7,-1
 152 0 l 1,8,-1
 216 281 l 1,9,-1
 124 281 l 1,10,-1
 124 -1 l 1,11,-1
 23 -1 l 1,12,-1
 23 690 l 1,13,-1
 124 690 l 1,14,-1
 124 359 l 1,15,-1
 233 359 l 1,16,-1
 308 690 l 1,17,-1
 452 690 l 1,18,-1
 609 0 l 1,19,-1
 508 0 l 1,0,-1
324 359 m 1,20,-1
 433 359 l 1,21,-1
 378 620 l 1,22,-1
 324 359 l 1,20,-1
EndSplineSet
EndChar

StartChar: uni046A
Encoding: 1130 1130 337
Width: 600
GlyphClass: 2
Flags: W
AnchorPoint: "Anchor-3" 300 690 basechar 0
AnchorPoint: "Anchor-2" 300 0 basechar 0
LayerCount: 2
Fore
SplineSet
467 387 m 1,0,-1
 575 0 l 1,1,-1
 476 0 l 1,2,-1
 396 311 l 1,3,-1
 350 311 l 1,4,-1
 350 0 l 1,5,-1
 250 0 l 1,6,-1
 250 311 l 1,7,-1
 204 311 l 1,8,-1
 124 0 l 1,9,-1
 25 0 l 1,10,-1
 137 387 l 1,11,-1
 208 387 l 1,12,-1
 83 621 l 1,13,-1
 83 690 l 1,14,-1
 518 690 l 1,15,-1
 518 621 l 1,16,-1
 391 387 l 1,17,-1
 467 387 l 1,0,-1
189 616 m 1,18,-1
 302 387 l 1,19,-1
 415 616 l 1,20,-1
 189 616 l 1,18,-1
EndSplineSet
EndChar

StartChar: uni046C
Encoding: 1132 1132 338
Width: 600
GlyphClass: 2
Flags: W
AnchorPoint: "Anchor-3" 300 690 basechar 0
AnchorPoint: "Anchor-2" 300 0 basechar 0
LayerCount: 2
Fore
SplineSet
539 387 m 1,0,-1
 622 0 l 1,1,-1
 525 0 l 1,2,-1
 468 311 l 1,3,-1
 429 311 l 1,4,-1
 429 0 l 1,5,-1
 334 0 l 1,6,-1
 334 311 l 1,7,-1
 295 311 l 1,8,-1
 237 0 l 1,9,-1
 141 0 l 1,10,-1
 211 311 l 1,11,-1
 114 311 l 1,12,-1
 114 -1 l 1,13,-1
 13 -1 l 1,14,-1
 13 690 l 1,15,-1
 114 690 l 1,16,-1
 114 387 l 1,17,-1
 294 387 l 1,18,-1
 189 621 l 1,19,-1
 189 690 l 1,20,-1
 574 690 l 1,21,-1
 574 621 l 1,22,-1
 468 387 l 1,23,-1
 539 387 l 1,0,-1
478 618 m 1,24,-1
 287 618 l 1,25,-1
 383 387 l 1,26,-1
 478 618 l 1,24,-1
EndSplineSet
EndChar

StartChar: uni046E
Encoding: 1134 1134 339
Width: 600
GlyphClass: 2
Flags: W
AnchorPoint: "Anchor-3" 283 690 basechar 0
AnchorPoint: "Anchor-2" 0 0 basechar 0
LayerCount: 2
Fore
SplineSet
319 753 m 1,0,-1
 247 753 l 1,1,-1
 110 869 l 1,2,-1
 155 920 l 1,3,-1
 283 838 l 1,4,-1
 412 920 l 1,5,-1
 456 869 l 1,6,-1
 319 753 l 1,0,-1
469.5 328.5 m 128,-1,8
 526 278 526 278 526 184 c 0,9,10
 526 93 526 93 466.5 42.5 c 128,-1,11
 407 -8 407 -8 313 -24 c 0,12,13
 245 -36 245 -36 222 -47 c 128,-1,14
 199 -58 199 -58 199 -78 c 0,15,16
 199 -96 199 -96 216.5 -111.5 c 128,-1,17
 234 -127 234 -127 273 -148 c 1,18,-1
 232 -218 l 1,19,20
 85 -157 85 -157 85 -67 c 0,21,22
 85 -16 85 -16 123.5 13 c 128,-1,23
 162 42 162 42 249 57 c 0,24,25
 328 71 328 71 367 101 c 128,-1,26
 406 131 406 131 406 188 c 0,27,28
 406 247 406 247 373 274.5 c 128,-1,29
 340 302 340 302 272 302 c 2,30,-1
 159 302 l 1,31,-1
 159 376 l 1,32,-1
 360 599 l 1,33,-1
 74 599 l 1,34,-1
 74 690 l 1,35,-1
 491 690 l 1,36,-1
 491 601 l 1,37,-1
 284 380 l 1,38,-1
 302 380 l 2,39,7
 413 379 413 379 469.5 328.5 c 128,-1,8
EndSplineSet
EndChar

StartChar: uni0474
Encoding: 1140 1140 342
Width: 600
GlyphClass: 2
Flags: W
AnchorPoint: "Anchor-3" 292 690 basechar 0
AnchorPoint: "Anchor-2" 300 0 basechar 0
LayerCount: 2
Fore
SplineSet
543 618 m 0,1,2
 527 618 527 618 517 607.5 c 128,-1,3
 507 597 507 597 500 573 c 2,4,-1
 350 0 l 1,5,-1
 214 0 l 1,6,-1
 21 690 l 1,7,-1
 145 690 l 1,8,-1
 282 110 l 1,9,-1
 392 584 l 2,10,11
 407 648 407 648 439 676.5 c 128,-1,12
 471 705 471 705 526 705 c 0,13,14
 561 705 561 705 595 690 c 1,15,-1
 570 612 l 1,16,0
 552 618 552 618 543 618 c 0,1,2
EndSplineSet
EndChar

StartChar: uni0478
Encoding: 1144 1144 344
Width: 600
Flags: W
LayerCount: 2
Fore
SplineSet
2 344 m 0,1,2
 2 516 2 516 40.5 610 c 128,-1,3
 79 704 79 704 160 704 c 0,4,5
 243 704 243 704 280 612 c 128,-1,6
 317 520 317 520 317 345 c 256,7,8
 317 170 317 170 280 78.5 c 128,-1,9
 243 -13 243 -13 160 -13 c 0,10,0
 2 -13 2 -13 2 344 c 0,1,2
199.5 94.5 m 128,-1,12
 214 123 214 123 220 183 c 128,-1,13
 226 243 226 243 226 345 c 0,14,15
 226 496 226 496 211.5 560.5 c 128,-1,16
 197 625 197 625 160 625 c 0,17,18
 135 625 135 625 120.5 596 c 128,-1,19
 106 567 106 567 100 506.5 c 128,-1,20
 94 446 94 446 94 344 c 0,21,22
 94 194 94 194 109 130 c 128,-1,23
 124 66 124 66 160 66 c 0,24,11
 185 66 185 66 199.5 94.5 c 128,-1,12
332 -149 m 1,25,26
 378 -133 378 -133 403.5 -99 c 128,-1,27
 429 -65 429 -65 439 0 c 1,28,-1
 399 0 l 1,29,-1
 320 528 l 1,30,-1
 405 528 l 1,31,-1
 458 78 l 1,32,-1
 510 528 l 1,33,-1
 594 528 l 1,34,-1
 514 -2 l 2,35,36
 487 -177 487 -177 348 -216 c 1,37,-1
 332 -149 l 1,25,26
EndSplineSet
EndChar

StartChar: uni0492
Encoding: 1170 1170 345
Width: 600
GlyphClass: 2
Flags: W
AnchorPoint: "Anchor-3" 372 690 basechar 0
AnchorPoint: "Anchor-2" 206 0 basechar 0
LayerCount: 2
Fore
SplineSet
567 594 m 1,0,-1
 264 594 l 1,1,-1
 264 433 l 1,2,-1
 415 433 l 1,3,-1
 415 354 l 1,4,-1
 264 354 l 1,5,-1
 264 0 l 1,6,-1
 148 0 l 1,7,-1
 148 354 l 1,8,-1
 55 354 l 1,9,-1
 55 433 l 1,10,-1
 148 433 l 1,11,-1
 148 690 l 1,12,-1
 579 690 l 1,13,-1
 567 594 l 1,0,-1
EndSplineSet
EndChar

StartChar: uni0494
Encoding: 1172 1172 346
Width: 600
GlyphClass: 2
Flags: W
AnchorPoint: "Anchor-3" 300 690 basechar 0
AnchorPoint: "Anchor-2" 300 -208 basechar 0
LayerCount: 2
Fore
SplineSet
502 399 m 128,-1,1
 555 340 555 340 555 234 c 2,2,-1
 555 -48 l 2,3,4
 555 -131 555 -131 511.5 -174 c 128,-1,5
 468 -217 468 -217 389 -217 c 0,6,7
 321 -217 321 -217 268 -177 c 1,8,-1
 311 -107 l 1,9,10
 331 -118 331 -118 345.5 -123 c 128,-1,11
 360 -128 360 -128 381 -128 c 0,12,13
 439 -128 439 -128 439 -56 c 2,14,-1
 439 233 l 2,15,16
 439 299 439 299 411.5 331.5 c 128,-1,17
 384 364 384 364 326 364 c 0,18,19
 280 364 280 364 246.5 348 c 128,-1,20
 213 332 213 332 184 300 c 1,21,-1
 184 0 l 1,22,-1
 68 0 l 1,23,-1
 68 690 l 1,24,-1
 475 690 l 1,25,-1
 461 598 l 1,26,-1
 184 598 l 1,27,-1
 184 391 l 1,28,29
 253 458 253 458 353 458 c 0,30,0
 449 458 449 458 502 399 c 128,-1,1
EndSplineSet
EndChar

StartChar: uni0496
Encoding: 1174 1174 347
Width: 600
GlyphClass: 2
Flags: W
AnchorPoint: "Anchor-3" 300 690 basechar 0
AnchorPoint: "Anchor-2" 300 0 basechar 0
LayerCount: 2
Fore
SplineSet
563 91 m 1,0,-1
 610 91 l 1,1,-1
 610 -157 l 1,2,-1
 526 -157 l 1,3,-1
 509 0 l 1,4,-1
 485 0 l 1,5,-1
 391 324 l 1,6,-1
 343 324 l 1,7,-1
 343 0 l 1,8,-1
 257 0 l 1,9,-1
 257 324 l 1,10,-1
 208 324 l 1,11,-1
 113 0 l 1,12,-1
 8 0 l 1,13,-1
 125 370 l 1,14,-1
 21 690 l 1,15,-1
 124 690 l 1,16,-1
 209 399 l 1,17,-1
 257 399 l 1,18,-1
 257 690 l 1,19,-1
 343 690 l 1,20,-1
 343 399 l 1,21,-1
 391 399 l 1,22,-1
 477 690 l 1,23,-1
 579 690 l 1,24,-1
 475 370 l 1,25,-1
 563 91 l 1,0,-1
EndSplineSet
EndChar

StartChar: uni0498
Encoding: 1176 1176 348
Width: 600
GlyphClass: 2
Flags: W
AnchorPoint: "Anchor-3" 295 690 basechar 0
AnchorPoint: "Anchor-2" 291 0 basechar 0
LayerCount: 2
Fore
SplineSet
486.5 57 m 128,-1,1
 424 -1 424 -1 315 -11 c 1,2,-1
 315 -54 l 1,3,4
 363 -58 363 -58 387.5 -82.5 c 128,-1,5
 412 -107 412 -107 412 -143 c 0,6,7
 412 -191 412 -191 374 -219 c 128,-1,8
 336 -247 336 -247 279 -247 c 0,9,10
 248 -247 248 -247 219 -240 c 128,-1,11
 190 -233 190 -233 170 -221 c 1,12,-1
 200 -163 l 1,13,14
 234 -180 234 -180 266 -180 c 0,15,16
 323 -180 323 -180 323 -142 c 0,17,18
 323 -119 323 -119 301.5 -111 c 128,-1,19
 280 -103 280 -103 235 -103 c 1,20,-1
 243 -12 l 1,21,22
 177 -7 177 -7 121.5 18 c 128,-1,23
 66 43 66 43 24 85 c 1,24,-1
 90 147 l 1,25,26
 169 77 169 77 274 77 c 0,27,28
 347 77 347 77 388 110.5 c 128,-1,29
 429 144 429 144 429 203 c 0,30,31
 429 264 429 264 388.5 294 c 128,-1,32
 348 324 348 324 278 324 c 2,33,-1
 159 324 l 1,34,-1
 173 413 l 1,35,-1
 274 413 l 2,36,37
 333 413 333 413 371.5 439 c 128,-1,38
 410 465 410 465 410 516 c 0,39,40
 410 563 410 563 372.5 589 c 128,-1,41
 335 615 335 615 274 615 c 0,42,43
 223 615 223 615 180.5 599.5 c 128,-1,44
 138 584 138 584 100 553 c 1,45,-1
 40 617 l 1,46,47
 142 704 142 704 282 704 c 0,48,49
 356 704 356 704 411 681 c 128,-1,50
 466 658 466 658 496 616.5 c 128,-1,51
 526 575 526 575 526 522 c 0,52,53
 526 460 526 460 486 422 c 128,-1,54
 446 384 446 384 378 373 c 1,55,56
 453 366 453 366 501 321.5 c 128,-1,57
 549 277 549 277 549 202 c 0,58,0
 549 115 549 115 486.5 57 c 128,-1,1
EndSplineSet
EndChar

StartChar: uni049A
Encoding: 1178 1178 349
Width: 600
GlyphClass: 2
Flags: W
AnchorPoint: "Anchor-3" 321 690 basechar 0
AnchorPoint: "Anchor-2" 300 0 basechar 0
LayerCount: 2
Fore
SplineSet
538 91 m 1,0,-1
 595 91 l 1,1,-1
 595 -157 l 1,2,-1
 504 -157 l 1,3,-1
 488 0 l 1,4,-1
 462 0 l 1,5,-1
 268 317 l 1,6,-1
 194 317 l 1,7,-1
 194 0 l 1,8,-1
 79 0 l 1,9,-1
 79 690 l 1,10,-1
 194 690 l 1,11,-1
 194 407 l 1,12,-1
 268 407 l 1,13,-1
 457 690 l 1,14,-1
 576 690 l 1,15,-1
 365 370 l 1,16,-1
 538 91 l 1,0,-1
EndSplineSet
EndChar

StartChar: uni049C
Encoding: 1180 1180 350
Width: 600
GlyphClass: 2
Flags: W
AnchorPoint: "Anchor-3" 300 690 basechar 0
AnchorPoint: "Anchor-2" 300 0 basechar 0
LayerCount: 2
Fore
SplineSet
231 149 m 1,0,-1
 231 320 l 1,1,-1
 188 320 l 1,2,-1
 188 0 l 1,3,-1
 79 0 l 1,4,-1
 79 690 l 1,5,-1
 188 690 l 1,6,-1
 188 404 l 1,7,-1
 231 404 l 1,8,-1
 231 571 l 1,9,-1
 285 571 l 1,10,-1
 285 404 l 1,11,-1
 308 404 l 1,12,-1
 458 690 l 1,13,-1
 574 690 l 1,14,-1
 396 370 l 1,15,-1
 593 0 l 1,16,-1
 468 0 l 1,17,-1
 309 320 l 1,18,-1
 285 320 l 1,19,-1
 285 149 l 1,20,-1
 231 149 l 1,0,-1
EndSplineSet
EndChar

StartChar: uni049E
Encoding: 1182 1182 351
Width: 600
Flags: W
LayerCount: 2
Fore
SplineSet
381 370 m 1,0,-1
 591 0 l 1,1,-1
 458 0 l 1,2,-1
 284 317 l 1,3,-1
 211 317 l 1,4,-1
 211 0 l 1,5,-1
 95 0 l 1,6,-1
 95 527 l 1,7,-1
 27 527 l 1,8,-1
 27 607 l 1,9,-1
 95 607 l 1,10,-1
 95 690 l 1,11,-1
 211 690 l 1,12,-1
 211 607 l 1,13,-1
 314 607 l 1,14,-1
 314 527 l 1,15,-1
 211 527 l 1,16,-1
 211 407 l 1,17,-1
 284 407 l 1,18,-1
 454 690 l 1,19,-1
 572 690 l 1,20,-1
 381 370 l 1,0,-1
EndSplineSet
EndChar

StartChar: uni04A0
Encoding: 1184 1184 352
Width: 600
Flags: W
LayerCount: 2
Fore
SplineSet
295 317 m 1,0,-1
 230 317 l 1,1,-1
 230 0 l 1,2,-1
 118 0 l 1,3,-1
 118 597 l 1,4,-1
 7 597 l 1,5,-1
 7 690 l 1,6,-1
 230 690 l 1,7,-1
 230 406 l 1,8,-1
 295 406 l 1,9,-1
 465 690 l 1,10,-1
 583 690 l 1,11,-1
 390 370 l 1,12,-1
 601 0 l 1,13,-1
 470 0 l 1,14,-1
 295 317 l 1,0,-1
EndSplineSet
EndChar

StartChar: uni04A2
Encoding: 1186 1186 353
Width: 600
GlyphClass: 2
Flags: W
AnchorPoint: "Anchor-3" 300 690 basechar 0
AnchorPoint: "Anchor-2" 300 0 basechar 0
LayerCount: 2
Fore
SplineSet
529 91 m 1,0,-1
 586 91 l 1,1,-1
 586 -157 l 1,2,-1
 495 -157 l 1,3,-1
 479 0 l 1,4,-1
 413 0 l 1,5,-1
 413 314 l 1,6,-1
 187 314 l 1,7,-1
 187 0 l 1,8,-1
 71 0 l 1,9,-1
 71 690 l 1,10,-1
 187 690 l 1,11,-1
 187 409 l 1,12,-1
 413 409 l 1,13,-1
 413 690 l 1,14,-1
 529 690 l 1,15,-1
 529 91 l 1,0,-1
EndSplineSet
EndChar

StartChar: uni04A4
Encoding: 1188 1188 354
Width: 600
Flags: W
LayerCount: 2
Fore
SplineSet
610 690 m 1,0,-1
 597 597 l 1,1,-1
 469 597 l 1,2,-1
 469 0 l 1,3,-1
 353 0 l 1,4,-1
 353 313 l 1,5,-1
 170 313 l 1,6,-1
 170 0 l 1,7,-1
 55 0 l 1,8,-1
 55 690 l 1,9,-1
 170 690 l 1,10,-1
 170 410 l 1,11,-1
 353 410 l 1,12,-1
 353 690 l 1,13,-1
 610 690 l 1,0,-1
EndSplineSet
EndChar

StartChar: uni04A6
Encoding: 1190 1190 355
Width: 600
GlyphClass: 2
Flags: W
AnchorPoint: "Anchor-3" 300 690 basechar 0
AnchorPoint: "Anchor-2" 300 -208 basechar 0
LayerCount: 2
Fore
SplineSet
552.5 413 m 128,-1,1
 589 371 589 371 589 301 c 2,2,-1
 589 -53 l 2,3,4
 589 -131 589 -131 546 -174 c 128,-1,5
 503 -217 503 -217 434 -217 c 0,6,7
 366 -217 366 -217 313 -177 c 1,8,-1
 355 -111 l 1,9,10
 373 -122 373 -122 389 -127.5 c 128,-1,11
 405 -133 405 -133 426 -133 c 0,12,13
 484 -133 484 -133 484 -61 c 2,14,-1
 484 297 l 2,15,16
 484 366 484 366 426 366 c 0,17,18
 389 366 389 366 356 336 c 1,19,-1
 356 0 l 1,20,-1
 251 0 l 1,21,-1
 251 601 l 1,22,-1
 131 601 l 1,23,-1
 131 0 l 1,24,-1
 26 0 l 1,25,-1
 26 690 l 1,26,-1
 356 690 l 1,27,-1
 356 417 l 1,28,29
 397 455 397 455 453 455 c 0,30,0
 516 455 516 455 552.5 413 c 128,-1,1
EndSplineSet
EndChar

StartChar: uni0524
Encoding: 1316 1316 356
Width: 600
GlyphClass: 2
Flags: W
AnchorPoint: "Anchor-3" 300 690 basechar 0
AnchorPoint: "Anchor-2" 300 0 basechar 0
LayerCount: 2
Fore
SplineSet
529 91 m 1,0,-1
 586 91 l 1,1,-1
 586 -157 l 1,2,-1
 495 -157 l 1,3,-1
 479 0 l 1,4,-1
 413 0 l 1,5,-1
 413 596 l 1,6,-1
 187 596 l 1,7,-1
 187 0 l 1,8,-1
 71 0 l 1,9,-1
 71 690 l 1,10,-1
 529 690 l 1,11,-1
 529 91 l 1,0,-1
EndSplineSet
EndChar

StartChar: uni04A8
Encoding: 1192 1192 357
Width: 600
GlyphClass: 2
Flags: W
AnchorPoint: "Anchor-3" 300 690 basechar 0
AnchorPoint: "Anchor-2" 300 -208 basechar 0
LayerCount: 2
Fore
SplineSet
549.5 130.5 m 128,-1,1
 517 66 517 66 459 28 c 1,2,-1
 539 -81 l 1,3,-1
 473 -130 l 1,4,-1
 440 -86 l 2,5,6
 429 -72 429 -72 410.5 -47.5 c 128,-1,7
 392 -23 392 -23 380 -6 c 1,8,9
 345 -14 345 -14 311 -14 c 0,10,11
 227 -14 227 -14 163.5 27.5 c 128,-1,12
 100 69 100 69 65 150 c 128,-1,13
 30 231 30 231 30 345 c 0,14,15
 30 458 30 458 67 539.5 c 128,-1,16
 104 621 104 621 166.5 663 c 128,-1,17
 229 705 229 705 304 705 c 0,18,19
 366 705 366 705 410 687 c 128,-1,20
 454 669 454 669 499 632 c 1,21,-1
 442 563 l 1,22,23
 408 589 408 589 376 601.5 c 128,-1,24
 344 614 344 614 309 614 c 0,25,26
 240 614 240 614 196.5 549.5 c 128,-1,27
 153 485 153 485 153 345 c 0,28,29
 153 206 153 206 195.5 141 c 128,-1,30
 238 76 238 76 313 76 c 2,31,-1
 324 76 l 1,32,33
 294 126 294 126 278.5 170.5 c 128,-1,34
 263 215 263 215 263 261 c 0,35,36
 263 337 263 337 307 384 c 128,-1,37
 351 431 351 431 422 431 c 0,38,39
 495 431 495 431 538.5 386.5 c 128,-1,40
 582 342 582 342 582 265 c 0,41,0
 582 195 582 195 549.5 130.5 c 128,-1,1
372 182 m 128,-1,43
 385 143 385 143 410 101 c 1,44,45
 480 145 480 145 480 267 c 0,46,47
 480 351 480 351 421 351 c 0,48,49
 391 351 391 351 375 328 c 128,-1,50
 359 305 359 305 359 263 c 256,51,42
 359 221 359 221 372 182 c 128,-1,43
EndSplineSet
EndChar

StartChar: uni04AA
Encoding: 1194 1194 358
Width: 600
GlyphClass: 2
Flags: W
AnchorPoint: "Anchor-3" 364 690 basechar 0
AnchorPoint: "Anchor-2" 351 0 basechar 0
LayerCount: 2
Fore
SplineSet
474 -131 m 0,1,2
 474 -183 474 -183 437.5 -214.5 c 128,-1,3
 401 -246 401 -246 338 -246 c 0,4,5
 283 -246 283 -246 238 -221 c 1,6,-1
 264 -160 l 1,7,8
 298 -176 298 -176 331 -176 c 0,9,10
 359 -176 359 -176 373 -162 c 128,-1,11
 387 -148 387 -148 387 -123 c 0,12,13
 387 -58 387 -58 313 -10 c 1,14,15
 236 1 236 1 177 45.5 c 128,-1,16
 118 90 118 90 85 166.5 c 128,-1,17
 52 243 52 243 52 346 c 0,18,19
 52 458 52 458 92.5 539 c 128,-1,20
 133 620 133 620 203 662 c 128,-1,21
 273 704 273 704 358 704 c 0,22,23
 426 704 426 704 474 687 c 128,-1,24
 522 670 522 670 566 634 c 1,25,-1
 506 562 l 1,26,27
 443 613 443 613 363 613 c 0,28,29
 279 613 279 613 226 548.5 c 128,-1,30
 173 484 173 484 173 346 c 0,31,32
 173 210 173 210 225 145.5 c 128,-1,33
 277 81 277 81 364 81 c 0,34,35
 414 81 414 81 449.5 96.5 c 128,-1,36
 485 112 485 112 520 140 c 1,37,-1
 576 69 l 1,38,39
 505 0 505 0 398 -11 c 1,40,0
 474 -59 474 -59 474 -131 c 0,1,2
EndSplineSet
EndChar

StartChar: uni04AC
Encoding: 1196 1196 359
Width: 600
GlyphClass: 2
Flags: W
AnchorPoint: "Anchor-3" 299 690 basechar 0
AnchorPoint: "Anchor-2" 299 0 basechar 0
LayerCount: 2
Fore
SplineSet
556 596 m 1,0,-1
 357 596 l 1,1,-1
 357 91 l 1,2,-1
 414 91 l 1,3,-1
 414 -157 l 1,4,-1
 323 -157 l 1,5,-1
 307 0 l 1,6,-1
 241 0 l 1,7,-1
 241 596 l 1,8,-1
 33 596 l 1,9,-1
 33 690 l 1,10,-1
 568 690 l 1,11,-1
 556 596 l 1,0,-1
EndSplineSet
EndChar

StartChar: uni04B0
Encoding: 1200 1200 361
Width: 600
GlyphClass: 2
Flags: W
AnchorPoint: "Anchor-3" 302 690 basechar 0
AnchorPoint: "Anchor-2" 300 0 basechar 0
LayerCount: 2
Fore
SplineSet
589 690 m 1,0,-1
 382 309 l 1,1,-1
 482 309 l 1,2,-1
 482 232 l 1,3,-1
 358 232 l 1,4,-1
 358 0 l 1,5,-1
 242 0 l 1,6,-1
 242 232 l 1,7,-1
 118 232 l 1,8,-1
 118 309 l 1,9,-1
 217 309 l 1,10,-1
 11 690 l 1,11,-1
 139 690 l 1,12,-1
 302 363 l 1,13,-1
 467 690 l 1,14,-1
 589 690 l 1,0,-1
EndSplineSet
EndChar

StartChar: uni04B2
Encoding: 1202 1202 362
Width: 600
GlyphClass: 2
Flags: W
AnchorPoint: "Anchor-3" 300 690 basechar 0
AnchorPoint: "Anchor-2" 300 0 basechar 0
LayerCount: 2
Fore
SplineSet
528 91 m 1,0,-1
 584 91 l 1,1,-1
 584 -157 l 1,2,-1
 493 -157 l 1,3,-1
 477 0 l 1,4,-1
 451 0 l 1,5,-1
 298 293 l 1,6,-1
 144 0 l 1,7,-1
 21 0 l 1,8,-1
 229 367 l 1,9,-1
 38 690 l 1,10,-1
 167 690 l 1,11,-1
 300 442 l 1,12,-1
 435 690 l 1,13,-1
 558 690 l 1,14,-1
 367 373 l 1,15,-1
 528 91 l 1,0,-1
EndSplineSet
EndChar

StartChar: uni04B4
Encoding: 1204 1204 363
Width: 600
GlyphClass: 2
Flags: W
AnchorPoint: "Anchor-3" 300 690 basechar 0
AnchorPoint: "Anchor-2" 300 -208 basechar 0
LayerCount: 2
Fore
SplineSet
515 91 m 1,0,-1
 565 91 l 1,1,-1
 565 -157 l 1,2,-1
 480 -157 l 1,3,-1
 464 0 l 1,4,-1
 114 0 l 1,5,-1
 114 606 l 1,6,-1
 0 606 l 1,7,-1
 0 690 l 1,8,-1
 339 690 l 1,9,-1
 328 606 l 1,10,-1
 224 606 l 1,11,-1
 224 93 l 1,12,-1
 405 93 l 1,13,-1
 405 690 l 1,14,-1
 515 690 l 1,15,-1
 515 91 l 1,0,-1
EndSplineSet
EndChar

StartChar: uni04B6
Encoding: 1206 1206 364
Width: 600
GlyphClass: 2
Flags: W
AnchorPoint: "Anchor-3" 288 690 basechar 0
AnchorPoint: "Anchor-2" 300 0 basechar 0
LayerCount: 2
Fore
SplineSet
586 91 m 1,0,-1
 586 -157 l 1,1,-1
 495 -157 l 1,2,-1
 479 0 l 1,3,-1
 413 0 l 1,4,-1
 413 267 l 1,5,6
 372 238 372 238 334 224.5 c 128,-1,7
 296 211 296 211 247 211 c 0,8,9
 152 211 152 211 96.5 268.5 c 128,-1,10
 41 326 41 326 41 427 c 2,11,-1
 41 690 l 1,12,-1
 157 690 l 1,13,-1
 157 433 l 2,14,15
 157 366 157 366 187 335 c 128,-1,16
 217 304 217 304 278 304 c 0,17,18
 357 304 357 304 413 356 c 1,19,-1
 413 690 l 1,20,-1
 529 690 l 1,21,-1
 529 91 l 1,22,-1
 586 91 l 1,0,-1
EndSplineSet
EndChar

StartChar: uni04B8
Encoding: 1208 1208 365
Width: 600
GlyphClass: 2
Flags: W
AnchorPoint: "Anchor-3" 288 690 basechar 0
AnchorPoint: "Anchor-2" 300 0 basechar 0
LayerCount: 2
Fore
SplineSet
529 690 m 1,0,-1
 529 0 l 1,1,-1
 413 0 l 1,2,-1
 413 267 l 1,3,4
 364 232 364 232 321 220 c 1,5,-1
 321 121 l 1,6,-1
 260 121 l 1,7,-1
 260 211 l 1,8,-1
 247 211 l 2,9,10
 152 211 152 211 96.5 268.5 c 128,-1,11
 41 326 41 326 41 427 c 2,12,-1
 41 690 l 1,13,-1
 157 690 l 1,14,-1
 157 433 l 2,15,16
 157 371 157 371 182.5 340 c 128,-1,17
 208 309 208 309 260 305 c 1,18,-1
 260 544 l 1,19,-1
 321 544 l 1,20,-1
 321 308 l 1,21,22
 374 319 374 319 413 356 c 1,23,-1
 413 690 l 1,24,-1
 529 690 l 1,0,-1
EndSplineSet
EndChar

StartChar: uni04BA
Encoding: 1210 1210 366
Width: 600
GlyphClass: 2
Flags: W
AnchorPoint: "Anchor-3" 300 690 basechar 0
AnchorPoint: "Anchor-2" 300 0 basechar 0
LayerCount: 2
Fore
SplineSet
505 399 m 128,-1,1
 558 340 558 340 558 234 c 2,2,-1
 558 0 l 1,3,-1
 442 0 l 1,4,-1
 442 233 l 2,5,6
 442 299 442 299 414.5 331.5 c 128,-1,7
 387 364 387 364 329 364 c 0,8,9
 283 364 283 364 249.5 348 c 128,-1,10
 216 332 216 332 187 300 c 1,11,-1
 187 0 l 1,12,-1
 71 0 l 1,13,-1
 71 690 l 1,14,-1
 187 690 l 1,15,-1
 187 391 l 1,16,17
 256 458 256 458 356 458 c 0,18,0
 452 458 452 458 505 399 c 128,-1,1
EndSplineSet
EndChar

StartChar: uni0526
Encoding: 1318 1318 367
Width: 600
Flags: W
LayerCount: 2
Fore
SplineSet
602 91 m 1,0,-1
 602 -157 l 1,1,-1
 511 -157 l 1,2,-1
 495 0 l 1,3,-1
 431 0 l 1,4,-1
 431 233 l 2,5,6
 431 299 431 299 403 331.5 c 128,-1,7
 375 364 375 364 316 364 c 0,8,9
 240 364 240 364 187 301 c 1,10,-1
 187 0 l 1,11,-1
 71 0 l 1,12,-1
 71 690 l 1,13,-1
 187 690 l 1,14,-1
 187 394 l 1,15,16
 253 458 253 458 345 458 c 0,17,18
 441 458 441 458 494 399 c 128,-1,19
 547 340 547 340 547 234 c 2,20,-1
 547 91 l 1,21,-1
 602 91 l 1,0,-1
EndSplineSet
EndChar

StartChar: uni04BC
Encoding: 1212 1212 368
Width: 600
GlyphClass: 2
Flags: W
AnchorPoint: "Anchor-3" 300 690 basechar 0
AnchorPoint: "Anchor-2" 300 0 basechar 0
LayerCount: 2
Fore
SplineSet
567 300 m 1,1,-1
 244 300 l 1,2,3
 245 182 245 182 280.5 127 c 128,-1,4
 316 72 316 72 375 72 c 0,5,6
 411 72 411 72 437 83.5 c 128,-1,7
 463 95 463 95 494 117 c 1,8,-1
 542 54 l 1,9,10
 466 -13 466 -13 372 -13 c 0,11,12
 265 -13 265 -13 204 66.5 c 128,-1,13
 143 146 143 146 136 301 c 1,14,15
 70 302 70 302 34.5 337.5 c 128,-1,16
 -1 373 -1 373 -1 428 c 0,17,18
 -1 481 -1 481 34 531 c 1,19,-1
 101 502 l 1,20,21
 91 478 91 478 87 465 c 128,-1,22
 83 452 83 452 83 435 c 0,23,24
 83 384 83 384 133 384 c 2,25,-1
 136 384 l 1,26,27
 144 536 144 536 204 620 c 128,-1,28
 264 704 264 704 362 704 c 0,29,30
 463 704 463 704 516.5 614.5 c 128,-1,31
 570 525 570 525 570 357 c 0,32,0
 570 327 570 327 567 300 c 1,1,-1
467 384 m 1,33,34
 464 511 464 511 437.5 565 c 128,-1,35
 411 619 411 619 361 619 c 0,36,37
 309 619 309 619 279 563 c 128,-1,38
 249 507 249 507 244 384 c 1,39,-1
 467 384 l 1,33,34
EndSplineSet
EndChar

StartChar: uni04BE
Encoding: 1214 1214 369
Width: 600
GlyphClass: 2
Flags: W
AnchorPoint: "Anchor-3" 300 690 basechar 0
AnchorPoint: "Anchor-2" 300 0 basechar 0
LayerCount: 2
Fore
SplineSet
567 300 m 1,1,-1
 244 300 l 1,2,3
 245 182 245 182 280.5 127 c 128,-1,4
 316 72 316 72 375 72 c 0,5,6
 411 72 411 72 437 83.5 c 128,-1,7
 463 95 463 95 494 117 c 1,8,-1
 542 54 l 1,9,10
 499 16 499 16 452 0 c 0,11,12
 383 -28 383 -28 357.5 -54.5 c 128,-1,13
 332 -81 332 -81 332 -113 c 0,14,15
 332 -161 332 -161 388 -161 c 0,16,17
 416 -161 416 -161 447 -154 c 1,18,-1
 437 -231 l 1,19,20
 404 -238 404 -238 375 -238 c 0,21,22
 316 -238 316 -238 279 -208.5 c 128,-1,23
 242 -179 242 -179 242 -131 c 0,24,25
 242 -56 242 -56 322 -8 c 1,26,27
 237 9 237 9 189.5 87 c 128,-1,28
 142 165 142 165 136 301 c 1,29,30
 70 302 70 302 34.5 337.5 c 128,-1,31
 -1 373 -1 373 -1 428 c 0,32,33
 -1 481 -1 481 34 531 c 1,34,-1
 101 502 l 1,35,36
 91 478 91 478 87 465 c 128,-1,37
 83 452 83 452 83 435 c 0,38,39
 83 384 83 384 133 384 c 2,40,-1
 136 384 l 1,41,42
 144 536 144 536 204 620 c 128,-1,43
 264 704 264 704 362 704 c 0,44,45
 463 704 463 704 516.5 614.5 c 128,-1,46
 570 525 570 525 570 357 c 0,47,0
 570 327 570 327 567 300 c 1,1,-1
467 384 m 1,48,49
 464 511 464 511 437.5 565 c 128,-1,50
 411 619 411 619 361 619 c 0,51,52
 309 619 309 619 279 563 c 128,-1,53
 249 507 249 507 244 384 c 1,54,-1
 467 384 l 1,48,49
EndSplineSet
EndChar

StartChar: uni04C3
Encoding: 1219 1219 372
Width: 600
GlyphClass: 2
Flags: W
AnchorPoint: "Anchor-3" 300 690 basechar 0
AnchorPoint: "Anchor-2" 300 -208 basechar 0
LayerCount: 2
Fore
SplineSet
546 183 m 2,1,-1
 546 -48 l 2,2,3
 546 -131 546 -131 502.5 -174 c 128,-1,4
 459 -217 459 -217 380 -217 c 0,5,6
 312 -217 312 -217 259 -177 c 1,7,-1
 302 -107 l 1,8,9
 322 -118 322 -118 336.5 -123 c 128,-1,10
 351 -128 351 -128 372 -128 c 0,11,12
 430 -128 430 -128 430 -56 c 2,13,-1
 430 181 l 2,14,15
 430 244 430 244 403 274 c 128,-1,16
 376 304 376 304 318 304 c 2,17,-1
 187 304 l 1,18,-1
 187 0 l 1,19,-1
 71 0 l 1,20,-1
 71 690 l 1,21,-1
 187 690 l 1,22,-1
 187 395 l 1,23,-1
 273 395 l 1,24,-1
 437 690 l 1,25,-1
 555 690 l 1,26,-1
 380 392 l 1,27,0
 546 370 546 370 546 183 c 2,1,-1
EndSplineSet
EndChar

StartChar: uni04C5
Encoding: 1221 1221 373
Width: 600
Flags: W
LayerCount: 2
Fore
SplineSet
592 100 m 1,0,-1
 506 -157 l 1,1,-1
 413 -157 l 1,2,-1
 450 0 l 1,3,-1
 386 0 l 1,4,-1
 386 597 l 1,5,-1
 260 597 l 1,6,-1
 240 428 l 2,7,8
 223 267 223 267 201 184 c 128,-1,9
 179 101 179 101 147 61 c 128,-1,10
 115 21 115 21 56 -14 c 1,11,-1
 8 66 l 1,12,13
 40 91 40 91 58.5 120 c 128,-1,14
 77 149 77 149 94 218 c 128,-1,15
 111 287 111 287 126 419 c 2,16,-1
 158 690 l 1,17,-1
 502 690 l 1,18,-1
 502 100 l 1,19,-1
 592 100 l 1,0,-1
EndSplineSet
EndChar

StartChar: uni04C7
Encoding: 1223 1223 374
Width: 600
GlyphClass: 2
Flags: W
AnchorPoint: "Anchor-3" 300 690 basechar 0
AnchorPoint: "Anchor-2" 300 0 basechar 0
LayerCount: 2
Fore
SplineSet
529 690 m 1,0,-1
 529 -48 l 2,1,2
 529 -131 529 -131 485.5 -174 c 128,-1,3
 442 -217 442 -217 363 -217 c 0,4,5
 295 -217 295 -217 242 -177 c 1,6,-1
 285 -107 l 1,7,8
 305 -118 305 -118 319.5 -123 c 128,-1,9
 334 -128 334 -128 355 -128 c 0,10,11
 413 -128 413 -128 413 -56 c 2,12,-1
 413 314 l 1,13,-1
 187 314 l 1,14,-1
 187 0 l 1,15,-1
 71 0 l 1,16,-1
 71 690 l 1,17,-1
 187 690 l 1,18,-1
 187 409 l 1,19,-1
 413 409 l 1,20,-1
 413 690 l 1,21,-1
 529 690 l 1,0,-1
EndSplineSet
EndChar

StartChar: uni04C9
Encoding: 1225 1225 375
Width: 600
Flags: W
LayerCount: 2
Fore
SplineSet
495 100 m 1,0,-1
 585 100 l 1,1,-1
 499 -157 l 1,2,-1
 406 -157 l 1,3,-1
 443 0 l 1,4,-1
 379 0 l 1,5,-1
 379 313 l 1,6,-1
 177 313 l 1,7,-1
 177 0 l 1,8,-1
 61 0 l 1,9,-1
 61 690 l 1,10,-1
 177 690 l 1,11,-1
 177 410 l 1,12,-1
 379 410 l 1,13,-1
 379 690 l 1,14,-1
 495 690 l 1,15,-1
 495 100 l 1,0,-1
EndSplineSet
EndChar

StartChar: uni04CB
Encoding: 1227 1227 376
Width: 600
GlyphClass: 2
Flags: W
AnchorPoint: "Anchor-3" 288 690 basechar 0
AnchorPoint: "Anchor-2" 300 0 basechar 0
LayerCount: 2
Fore
SplineSet
529 690 m 1,0,-1
 529 0 l 1,1,-1
 413 0 l 1,2,-1
 413 267 l 1,3,4
 372 238 372 238 334 224.5 c 128,-1,5
 296 211 296 211 247 211 c 0,6,7
 152 211 152 211 96.5 268.5 c 128,-1,8
 41 326 41 326 41 427 c 2,9,-1
 41 690 l 1,10,-1
 157 690 l 1,11,-1
 157 433 l 2,12,13
 157 366 157 366 187 335 c 128,-1,14
 217 304 217 304 278 304 c 0,15,16
 357 304 357 304 413 356 c 1,17,-1
 413 690 l 1,18,-1
 529 690 l 1,0,-1
216 91 m 1,19,-1
 330 91 l 1,20,-1
 349 0 l 1,21,-1
 323 0 l 1,22,-1
 307 -157 l 1,23,-1
 216 -157 l 1,24,-1
 216 91 l 1,19,-1
EndSplineSet
EndChar

StartChar: uni04CD
Encoding: 1229 1229 377
Width: 600
Flags: W
LayerCount: 2
Fore
SplineSet
614 100 m 1,0,-1
 528 -157 l 1,1,-1
 441 -157 l 1,2,-1
 477 0 l 1,3,-1
 430 0 l 1,4,-1
 413 336 l 2,5,6
 410 407 410 407 410 469 c 0,7,8
 410 542 410 542 413 587 c 1,9,-1
 328 122 l 1,10,-1
 227 122 l 1,11,-1
 135 587 l 1,12,13
 138 533 138 533 138 435 c 0,14,15
 138 368 138 368 137 335 c 2,16,-1
 123 0 l 1,17,-1
 20 0 l 1,18,-1
 59 690 l 1,19,-1
 198 690 l 1,20,-1
 280 228 l 1,21,-1
 357 690 l 1,22,-1
 497 690 l 1,23,-1
 530 100 l 1,24,-1
 614 100 l 1,0,-1
EndSplineSet
EndChar

StartChar: uni04D8
Encoding: 1240 1240 382
Width: 600
GlyphClass: 2
Flags: W
AnchorPoint: "Anchor-3" 293 690 basechar 0
AnchorPoint: "Anchor-2" 300 0 basechar 0
LayerCount: 2
Fore
SplineSet
39 389 m 1,1,-1
 444 389 l 1,2,3
 440 507 440 507 399.5 561.5 c 128,-1,4
 359 616 359 616 285 616 c 0,5,6
 240 616 240 616 206.5 601.5 c 128,-1,7
 173 587 173 587 134 559 c 1,8,-1
 77 623 l 1,9,10
 123 662 123 662 175 683 c 128,-1,11
 227 704 227 704 293 704 c 0,12,13
 424 704 424 704 492.5 615 c 128,-1,14
 561 526 561 526 561 352 c 0,15,16
 561 237 561 237 529.5 155 c 128,-1,17
 498 73 498 73 438.5 30 c 128,-1,18
 379 -13 379 -13 297 -13 c 0,19,20
 171 -13 171 -13 103 76 c 128,-1,21
 35 165 35 165 35 333 c 0,22,0
 35 353 35 353 39 389 c 1,1,-1
401 130.5 m 128,-1,24
 438 186 438 186 444 303 c 1,25,-1
 146 303 l 1,26,27
 150 181 150 181 187.5 128 c 128,-1,28
 225 75 225 75 297 75 c 0,29,23
 364 75 364 75 401 130.5 c 128,-1,24
EndSplineSet
EndChar

StartChar: uni04E0
Encoding: 1248 1248 386
Width: 600
Flags: W
LayerCount: 2
Fore
SplineSet
484.5 350.5 m 128,-1,1
 541 300 541 300 541 208 c 0,2,3
 541 144 541 144 509.5 93.5 c 128,-1,4
 478 43 478 43 419.5 14.5 c 128,-1,5
 361 -14 361 -14 282 -14 c 0,6,7
 206 -14 206 -14 155.5 6 c 128,-1,8
 105 26 105 26 59 66 c 1,9,-1
 116 133 l 1,10,11
 157 103 157 103 193 89.5 c 128,-1,12
 229 76 229 76 280 76 c 0,13,14
 347 76 347 76 383.5 110 c 128,-1,15
 420 144 420 144 420 208 c 0,16,17
 420 268 420 268 385 295 c 128,-1,18
 350 322 350 322 283 322 c 2,19,-1
 172 322 l 1,20,-1
 172 394 l 1,21,-1
 380 599 l 1,22,-1
 91 599 l 1,23,-1
 91 690 l 1,24,-1
 509 690 l 1,25,-1
 509 601 l 1,26,-1
 302 401 l 1,27,-1
 315 401 l 2,28,0
 428 401 428 401 484.5 350.5 c 128,-1,1
EndSplineSet
EndChar

StartChar: uni04E8
Encoding: 1256 1256 390
Width: 600
GlyphClass: 2
Flags: W
AnchorPoint: "Anchor-3" 300 690 basechar 0
AnchorPoint: "Anchor-2" 300 0 basechar 0
LayerCount: 2
Fore
SplineSet
494.5 84 m 128,-1,1
 427 -13 427 -13 300 -13 c 256,2,3
 173 -13 173 -13 105.5 82.5 c 128,-1,4
 38 178 38 178 38 344 c 0,5,6
 38 508 38 508 105.5 606 c 128,-1,7
 173 704 173 704 300 704 c 256,8,9
 427 704 427 704 494.5 607.5 c 128,-1,10
 562 511 562 511 562 345 c 0,11,0
 562 181 562 181 494.5 84 c 128,-1,1
196.5 558.5 m 128,-1,13
 162 504 162 504 157 391 c 1,14,-1
 442 391 l 1,15,16
 437 503 437 503 403 558 c 128,-1,17
 369 613 369 613 300 613 c 256,18,12
 231 613 231 613 196.5 558.5 c 128,-1,13
406 135 m 128,-1,20
 440 193 440 193 443 312 c 1,21,-1
 156 312 l 1,22,23
 159 194 159 194 194 135.5 c 128,-1,24
 229 77 229 77 300 77 c 0,25,19
 372 77 372 77 406 135 c 128,-1,20
EndSplineSet
EndChar

StartChar: uni04F6
Encoding: 1270 1270 397
Width: 600
GlyphClass: 2
Flags: W
AnchorPoint: "Anchor-3" 343 690 basechar 0
AnchorPoint: "Anchor-2" 177 0 basechar 0
LayerCount: 2
Fore
SplineSet
538 594 m 1,0,-1
 235 594 l 1,1,-1
 235 91 l 1,2,-1
 297 91 l 1,3,-1
 297 -157 l 1,4,-1
 206 -157 l 1,5,-1
 190 0 l 1,6,-1
 119 0 l 1,7,-1
 119 690 l 1,8,-1
 550 690 l 1,9,-1
 538 594 l 1,0,-1
EndSplineSet
EndChar

StartChar: uni04FA
Encoding: 1274 1274 399
Width: 600
GlyphClass: 2
Flags: W
AnchorPoint: "Anchor-3" 394 690 basechar 0
AnchorPoint: "Anchor-2" 228 0 basechar 0
LayerCount: 2
Fore
SplineSet
286 594 m 1,0,-1
 286 433 l 1,1,-1
 437 433 l 1,2,-1
 437 354 l 1,3,-1
 286 354 l 1,4,-1
 286 91 l 1,5,-1
 350 91 l 1,6,-1
 350 -48 l 2,7,8
 350 -131 350 -131 306.5 -174 c 128,-1,9
 263 -217 263 -217 184 -217 c 0,10,11
 116 -217 116 -217 63 -177 c 1,12,-1
 106 -107 l 1,13,14
 126 -118 126 -118 140.5 -123 c 128,-1,15
 155 -128 155 -128 176 -128 c 0,16,17
 234 -128 234 -128 234 -56 c 2,18,-1
 234 0 l 1,19,-1
 170 0 l 1,20,-1
 170 354 l 1,21,-1
 77 354 l 1,22,-1
 77 433 l 1,23,-1
 170 433 l 1,24,-1
 170 690 l 1,25,-1
 601 690 l 1,26,-1
 589 594 l 1,27,-1
 286 594 l 1,0,-1
EndSplineSet
EndChar

StartChar: uni04FC
Encoding: 1276 1276 400
Width: 600
GlyphClass: 2
Flags: W
AnchorPoint: "Anchor-3" 288 690 basechar 0
AnchorPoint: "Anchor-2" 288 0 basechar 0
LayerCount: 2
Fore
SplineSet
589 91 m 1,0,-1
 589 -48 l 2,1,2
 589 -131 589 -131 545.5 -174 c 128,-1,3
 502 -217 502 -217 423 -217 c 0,4,5
 355 -217 355 -217 302 -177 c 1,6,-1
 345 -107 l 1,7,8
 365 -118 365 -118 379.5 -123 c 128,-1,9
 394 -128 394 -128 415 -128 c 0,10,11
 473 -128 473 -128 473 -56 c 2,12,-1
 473 0 l 1,13,-1
 439 0 l 1,14,-1
 286 293 l 1,15,-1
 132 0 l 1,16,-1
 9 0 l 1,17,-1
 217 367 l 1,18,-1
 26 690 l 1,19,-1
 155 690 l 1,20,-1
 288 442 l 1,21,-1
 423 690 l 1,22,-1
 546 690 l 1,23,-1
 355 373 l 1,24,-1
 516 91 l 1,25,-1
 589 91 l 1,0,-1
EndSplineSet
EndChar

StartChar: uni04FE
Encoding: 1278 1278 401
Width: 600
GlyphClass: 2
Flags: W
AnchorPoint: "Anchor-3" 300 690 basechar 0
AnchorPoint: "Anchor-2" 300 0 basechar 0
LayerCount: 2
Fore
SplineSet
393 327 m 1,0,-1
 580 0 l 1,1,-1
 451 0 l 1,2,-1
 298 293 l 1,3,-1
 144 0 l 1,4,-1
 21 0 l 1,5,-1
 206 327 l 1,6,-1
 32 327 l 1,7,-1
 32 408 l 1,8,-1
 205 408 l 1,9,-1
 38 690 l 1,10,-1
 167 690 l 1,11,-1
 300 442 l 1,12,-1
 435 690 l 1,13,-1
 558 690 l 1,14,-1
 388 408 l 1,15,-1
 568 408 l 1,16,-1
 568 327 l 1,17,-1
 393 327 l 1,0,-1
EndSplineSet
EndChar

StartChar: uni0500
Encoding: 1280 1280 402
Width: 600
GlyphClass: 2
Flags: W
AnchorPoint: "Anchor-3" 300 690 basechar 0
AnchorPoint: "Anchor-2" 300 0 basechar 0
LayerCount: 2
Fore
SplineSet
110.5 55 m 128,-1,1
 39 110 39 110 39 218 c 0,2,3
 39 322 39 322 111.5 380.5 c 128,-1,4
 184 439 184 439 310 439 c 2,5,-1
 405 439 l 1,6,-1
 405 690 l 1,7,-1
 521 690 l 1,8,-1
 521 0 l 1,9,-1
 302 0 l 2,10,0
 182 0 182 0 110.5 55 c 128,-1,1
405 89 m 1,11,-1
 405 352 l 1,12,-1
 311 352 l 2,13,14
 161 352 161 352 161 218 c 0,15,16
 161 149 161 149 199 119 c 128,-1,17
 237 89 237 89 307 89 c 2,18,-1
 405 89 l 1,11,-1
EndSplineSet
EndChar

StartChar: uni0502
Encoding: 1282 1282 403
Width: 600
GlyphClass: 2
Flags: W
AnchorPoint: "Anchor-3" 300 690 basechar 0
AnchorPoint: "Anchor-2" 300 0 basechar 0
LayerCount: 2
Fore
SplineSet
584 249 m 0,1,2
 584 116 584 116 539 50.5 c 128,-1,3
 494 -15 494 -15 414 -15 c 0,4,5
 372 -15 372 -15 340.5 4 c 128,-1,6
 309 23 309 23 290 58 c 1,7,8
 266 22 266 22 236 4 c 128,-1,9
 206 -14 206 -14 166 -14 c 0,10,11
 124 -14 124 -14 88 10 c 128,-1,12
 52 34 52 34 30.5 81.5 c 128,-1,13
 9 129 9 129 9 197 c 0,14,15
 9 308 9 308 66.5 370 c 128,-1,16
 124 432 124 432 225 432 c 2,17,-1
 268 432 l 1,18,-1
 268 690 l 1,19,-1
 369 690 l 1,20,-1
 369 149 l 2,21,22
 369 110 369 110 381 89.5 c 128,-1,23
 393 69 393 69 416 69 c 0,24,25
 483 69 483 69 483 247 c 0,26,27
 483 308 483 308 478 378 c 1,28,-1
 579 378 l 1,29,0
 584 313 584 313 584 249 c 0,1,2
230 86 m 128,-1,31
 249 103 249 103 268 140 c 1,32,-1
 268 352 l 1,33,-1
 226 352 l 2,34,35
 171 352 171 352 141 314 c 128,-1,36
 111 276 111 276 111 198 c 0,37,38
 111 131 111 131 131 100 c 128,-1,39
 151 69 151 69 185 69 c 0,40,30
 211 69 211 69 230 86 c 128,-1,31
EndSplineSet
EndChar

StartChar: uni0504
Encoding: 1284 1284 404
Width: 600
GlyphClass: 2
Flags: W
AnchorPoint: "Anchor-3" 300 690 basechar 0
AnchorPoint: "Anchor-2" 300 0 basechar 0
LayerCount: 2
Fore
SplineSet
578 255 m 0,1,2
 578 118 578 118 528.5 52.5 c 128,-1,3
 479 -13 479 -13 391 -13 c 0,4,5
 323 -13 323 -13 279 20 c 128,-1,6
 235 53 235 53 203 123 c 2,7,-1
 127 284 l 1,8,-1
 48 284 l 1,9,-1
 48 368 l 1,10,-1
 121 368 l 2,11,12
 190 368 190 368 225 397 c 128,-1,13
 260 426 260 426 260 490 c 0,14,15
 260 550 260 550 224 577 c 128,-1,16
 188 604 188 604 111 604 c 2,17,-1
 22 604 l 1,18,-1
 22 690 l 1,19,-1
 112 690 l 2,20,21
 245 690 245 690 313 639.5 c 128,-1,22
 381 589 381 589 381 490 c 0,23,24
 381 353 381 353 238 306 c 1,25,-1
 310 149 l 2,26,27
 328 108 328 108 346 91.5 c 128,-1,28
 364 75 364 75 391 75 c 0,29,30
 427 75 427 75 447 116 c 128,-1,31
 467 157 467 157 467 255 c 0,32,33
 467 310 467 310 462 380 c 1,34,-1
 573 380 l 1,35,0
 578 315 578 315 578 255 c 0,1,2
EndSplineSet
EndChar

StartChar: uni0506
Encoding: 1286 1286 405
Width: 600
GlyphClass: 2
Flags: W
AnchorPoint: "Anchor-3" 300 690 basechar 0
AnchorPoint: "Anchor-2" 300 -208 basechar 0
LayerCount: 2
Fore
SplineSet
559 91 m 1,0,-1
 559 -157 l 1,1,-1
 468 -157 l 1,2,-1
 452 0 l 1,3,-1
 410 0 l 1,4,-1
 236 284 l 1,5,-1
 96 284 l 1,6,-1
 96 369 l 1,7,-1
 246 369 l 2,8,9
 315 369 315 369 350 398 c 128,-1,10
 385 427 385 427 385 490 c 0,11,12
 385 550 385 550 350.5 577 c 128,-1,13
 316 604 316 604 244 604 c 2,14,-1
 67 604 l 1,15,-1
 67 690 l 1,16,-1
 237 690 l 2,17,18
 506 690 506 690 506 490 c 0,19,20
 506 418 506 418 463 370 c 128,-1,21
 420 322 420 322 349 300 c 1,22,-1
 486 91 l 1,23,-1
 559 91 l 1,0,-1
EndSplineSet
EndChar

StartChar: uni0508
Encoding: 1288 1288 406
Width: 600
GlyphClass: 2
Flags: W
AnchorPoint: "Anchor-3" 300 690 basechar 0
AnchorPoint: "Anchor-2" 300 0 basechar 0
LayerCount: 2
Fore
SplineSet
591 249 m 0,1,2
 591 116 591 116 545.5 50.5 c 128,-1,3
 500 -15 500 -15 420 -15 c 0,4,5
 356 -15 356 -15 315 28.5 c 128,-1,6
 274 72 274 72 274 155 c 2,7,-1
 274 605 l 1,8,-1
 195 605 l 1,9,-1
 181 388 l 2,10,11
 172 245 172 245 157 170 c 128,-1,12
 142 95 142 95 119.5 58 c 128,-1,13
 97 21 97 21 54 -14 c 1,14,-1
 1 59 l 1,15,16
 24 81 24 81 37.5 111 c 128,-1,17
 51 141 51 141 61.5 210 c 128,-1,18
 72 279 72 279 82 413 c 2,19,-1
 102 690 l 1,20,-1
 375 690 l 1,21,-1
 375 149 l 2,22,23
 375 110 375 110 387.5 89.5 c 128,-1,24
 400 69 400 69 423 69 c 0,25,26
 489 69 489 69 489 247 c 0,27,28
 489 308 489 308 484 378 c 1,29,-1
 586 378 l 1,30,0
 591 313 591 313 591 249 c 0,1,2
EndSplineSet
EndChar

StartChar: uni050A
Encoding: 1290 1290 407
Width: 600
GlyphClass: 2
Flags: W
AnchorPoint: "Anchor-3" 300 690 basechar 0
AnchorPoint: "Anchor-2" 300 0 basechar 0
LayerCount: 2
Fore
SplineSet
591 249 m 0,1,2
 591 116 591 116 545 50.5 c 128,-1,3
 499 -15 499 -15 418 -15 c 0,4,5
 353 -15 353 -15 311 28.5 c 128,-1,6
 269 72 269 72 269 155 c 2,7,-1
 269 313 l 1,8,-1
 146 313 l 1,9,-1
 146 0 l 1,10,-1
 42 0 l 1,11,-1
 42 690 l 1,12,-1
 146 690 l 1,13,-1
 146 402 l 1,14,-1
 269 402 l 1,15,-1
 269 690 l 1,16,-1
 373 690 l 1,17,-1
 373 149 l 2,18,19
 373 110 373 110 385.5 89.5 c 128,-1,20
 398 69 398 69 421 69 c 0,21,22
 451 69 451 69 469 111 c 128,-1,23
 487 153 487 153 487 247 c 0,24,25
 487 308 487 308 482 378 c 1,26,-1
 585 378 l 1,27,0
 591 320 591 320 591 249 c 0,1,2
EndSplineSet
EndChar

StartChar: uni050E
Encoding: 1294 1294 409
Width: 600
GlyphClass: 2
Flags: W
AnchorPoint: "Anchor-3" 300 690 basechar 0
AnchorPoint: "Anchor-2" 300 0 basechar 0
LayerCount: 2
Fore
SplineSet
572 252 m 0,1,2
 572 163 572 163 542.5 103.5 c 128,-1,3
 513 44 513 44 465 15.5 c 128,-1,4
 417 -13 417 -13 359 -13 c 0,5,6
 283 -13 283 -13 233.5 36.5 c 128,-1,7
 184 86 184 86 184 178 c 2,8,-1
 184 597 l 1,9,-1
 14 597 l 1,10,-1
 14 690 l 1,11,-1
 492 690 l 1,12,-1
 480 597 l 1,13,-1
 300 597 l 1,14,-1
 300 172 l 2,15,16
 300 73 300 73 363 73 c 0,17,18
 407 73 407 73 433.5 115 c 128,-1,19
 460 157 460 157 460 252 c 0,20,21
 460 311 460 311 455 379 c 1,22,-1
 567 379 l 1,23,0
 572 314 572 314 572 252 c 0,1,2
EndSplineSet
EndChar

StartChar: uni0510
Encoding: 1296 1296 410
Width: 600
Flags: W
LayerCount: 2
Fore
SplineSet
450 682.5 m 128,-1,1
 508 661 508 661 560 617 c 1,2,-1
 500 553 l 1,3,4
 461 584 461 584 419.5 599.5 c 128,-1,5
 378 615 378 615 327 615 c 0,6,7
 265 615 265 615 227.5 589 c 128,-1,8
 190 563 190 563 190 515 c 0,9,10
 190 465 190 465 228 439 c 128,-1,11
 266 413 266 413 326 413 c 2,12,-1
 441 413 l 1,13,-1
 428 324 l 1,14,-1
 322 324 l 2,15,16
 252 324 252 324 211.5 293.5 c 128,-1,17
 171 263 171 263 171 202 c 0,18,19
 171 144 171 144 212 110.5 c 128,-1,20
 253 77 253 77 325 77 c 0,21,22
 430 77 430 77 512 147 c 1,23,-1
 576 85 l 1,24,25
 529 37 529 37 463.5 12 c 128,-1,26
 398 -13 398 -13 320 -13 c 0,27,28
 238 -13 238 -13 177 14 c 128,-1,29
 116 41 116 41 83.5 89.5 c 128,-1,30
 51 138 51 138 51 200 c 0,31,32
 51 275 51 275 99 319.5 c 128,-1,33
 147 364 147 364 222 373 c 1,34,35
 154 383 154 383 114 420 c 128,-1,36
 74 457 74 457 74 517 c 0,37,38
 74 572 74 572 105.5 614.5 c 128,-1,39
 137 657 137 657 193 680.5 c 128,-1,40
 249 704 249 704 321 704 c 0,41,0
 392 704 392 704 450 682.5 c 128,-1,1
EndSplineSet
EndChar

StartChar: uni0512
Encoding: 1298 1298 411
Width: 600
GlyphClass: 2
Flags: W
AnchorPoint: "Anchor-3" 300 690 basechar 0
AnchorPoint: "Anchor-2" 300 0 basechar 0
LayerCount: 2
Fore
SplineSet
529 690 m 1,0,-1
 529 -48 l 2,1,2
 529 -131 529 -131 485.5 -174 c 128,-1,3
 442 -217 442 -217 363 -217 c 0,4,5
 295 -217 295 -217 242 -177 c 1,6,-1
 285 -107 l 1,7,8
 305 -118 305 -118 319.5 -123 c 128,-1,9
 334 -128 334 -128 355 -128 c 0,10,11
 413 -128 413 -128 413 -56 c 2,12,-1
 413 597 l 1,13,-1
 256 597 l 1,14,-1
 237 428 l 2,15,16
 219 267 219 267 197.5 184 c 128,-1,17
 176 101 176 101 144 61 c 128,-1,18
 112 21 112 21 53 -14 c 1,19,-1
 5 66 l 1,20,21
 37 91 37 91 55.5 120 c 128,-1,22
 74 149 74 149 91 218 c 128,-1,23
 108 287 108 287 123 419 c 2,24,-1
 155 690 l 1,25,-1
 529 690 l 1,0,-1
EndSplineSet
EndChar

StartChar: uni0514
Encoding: 1300 1300 412
Width: 600
GlyphClass: 2
Flags: W
AnchorPoint: "Anchor-3" 300 690 basechar 0
AnchorPoint: "Anchor-2" 300 0 basechar 0
LayerCount: 2
Fore
SplineSet
607 0 m 1,0,-1
 503 0 l 1,1,-1
 399 294 l 1,2,-1
 299 0 l 1,3,-1
 199 0 l 1,4,-1
 336 368 l 1,5,-1
 245 602 l 1,6,-1
 190 602 l 1,7,-1
 175 388 l 2,8,9
 166 245 166 245 151.5 170.5 c 128,-1,10
 137 96 137 96 114.5 58.5 c 128,-1,11
 92 21 92 21 49 -14 c 1,12,-1
 -4 59 l 1,13,14
 19 81 19 81 32.5 111 c 128,-1,15
 46 141 46 141 56.5 210 c 128,-1,16
 67 279 67 279 77 413 c 2,17,-1
 97 690 l 1,18,-1
 100 687 l 1,19,-1
 98 690 l 1,20,-1
 315 690 l 1,21,-1
 404 439 l 1,22,-1
 492 690 l 1,23,-1
 592 690 l 1,24,-1
 464 371 l 1,25,-1
 607 0 l 1,0,-1
EndSplineSet
EndChar

StartChar: uni0516
Encoding: 1302 1302 413
Width: 600
GlyphClass: 2
Flags: W
AnchorPoint: "Anchor-3" 300 690 basechar 0
AnchorPoint: "Anchor-2" 300 0 basechar 0
LayerCount: 2
Fore
SplineSet
479 0 m 1,0,-1
 337 314 l 1,1,2
 309 282 309 282 270 264 c 128,-1,3
 231 246 231 246 185 246 c 2,4,-1
 149 246 l 1,5,-1
 149 0 l 1,6,-1
 42 0 l 1,7,-1
 42 690 l 1,8,-1
 181 690 l 2,9,10
 280 690 280 690 336 633 c 128,-1,11
 392 576 392 576 393 475 c 1,12,-1
 489 690 l 1,13,-1
 592 690 l 1,14,-1
 433 359 l 1,15,-1
 596 0 l 1,16,-1
 479 0 l 1,0,-1
262.5 366 m 128,-1,18
 293 399 293 399 293 473 c 0,19,20
 293 539 293 539 264 572 c 128,-1,21
 235 605 235 605 183 605 c 2,22,-1
 149 605 l 1,23,-1
 149 333 l 1,24,-1
 179 333 l 2,25,17
 232 333 232 333 262.5 366 c 128,-1,18
EndSplineSet
EndChar

StartChar: uni0518
Encoding: 1304 1304 414
Width: 600
GlyphClass: 2
Flags: W
AnchorPoint: "Anchor-3" 300 690 basechar 0
AnchorPoint: "Anchor-2" 300 0 basechar 0
LayerCount: 2
Fore
SplineSet
598 87 m 1,0,-1
 598 0 l 1,1,-1
 286 0 l 1,2,-1
 286 267 l 1,3,-1
 231 267 l 1,4,-1
 127 0 l 1,5,-1
 5 0 l 1,6,-1
 132 291 l 1,7,8
 17 348 17 348 17 478 c 0,9,10
 17 542 17 542 47 590 c 128,-1,11
 77 638 77 638 132 664 c 128,-1,12
 187 690 187 690 260 690 c 2,13,-1
 592 690 l 1,14,-1
 580 603 l 1,15,-1
 396 603 l 1,16,-1
 396 394 l 1,17,-1
 546 394 l 1,18,-1
 546 307 l 1,19,-1
 396 307 l 1,20,-1
 396 87 l 1,21,-1
 598 87 l 1,0,-1
286 605 m 1,22,-1
 253 605 l 2,23,24
 196 605 196 605 164.5 573 c 128,-1,25
 133 541 133 541 133 478 c 256,26,27
 133 415 133 415 162 383.5 c 128,-1,28
 191 352 191 352 240 352 c 2,29,-1
 286 352 l 1,30,-1
 286 605 l 1,22,-1
EndSplineSet
EndChar

StartChar: uni051E
Encoding: 1310 1310 417
Width: 600
GlyphClass: 2
Flags: W
AnchorPoint: "Anchor-3" 317 690 basechar 0
AnchorPoint: "Anchor-2" 296 0 basechar 0
LayerCount: 2
Fore
SplineSet
361 370 m 1,0,-1
 591 0 l 1,1,-1
 458 0 l 1,2,-1
 264 317 l 1,3,-1
 190 317 l 1,4,-1
 190 0 l 1,5,-1
 75 0 l 1,6,-1
 75 690 l 1,7,-1
 190 690 l 1,8,-1
 190 407 l 1,9,-1
 264 407 l 1,10,-1
 343 525 l 1,11,-1
 233 588 l 1,12,-1
 271 655 l 1,13,-1
 386 589 l 1,14,-1
 453 690 l 1,15,-1
 572 690 l 1,16,-1
 473 540 l 1,17,-1
 577 480 l 1,18,-1
 538 413 l 1,19,-1
 430 475 l 1,20,-1
 361 370 l 1,0,-1
EndSplineSet
EndChar

StartChar: uni0520
Encoding: 1312 1312 418
Width: 600
GlyphClass: 2
Flags: W
AnchorPoint: "Anchor-3" 300 690 basechar 0
AnchorPoint: "Anchor-2" 300 -208 basechar 0
LayerCount: 2
Fore
SplineSet
548.5 414.5 m 128,-1,1
 582 374 582 374 582 308 c 2,2,-1
 582 -53 l 2,3,4
 582 -130 582 -130 539.5 -173.5 c 128,-1,5
 497 -217 497 -217 430 -217 c 256,6,7
 363 -217 363 -217 310 -177 c 1,8,-1
 351 -112 l 1,9,10
 369 -123 369 -123 385 -128.5 c 128,-1,11
 401 -134 401 -134 422 -134 c 0,12,13
 480 -134 480 -134 480 -63 c 2,14,-1
 480 297 l 2,15,16
 480 366 480 366 429 366 c 0,17,18
 395 366 395 366 363 337 c 1,19,-1
 363 0 l 1,20,-1
 262 0 l 1,21,-1
 262 605 l 1,22,-1
 183 605 l 1,23,-1
 168 388 l 2,24,25
 159 246 159 246 144.5 171 c 128,-1,26
 130 96 130 96 107.5 58.5 c 128,-1,27
 85 21 85 21 42 -14 c 1,28,-1
 -11 59 l 1,29,30
 12 81 12 81 25.5 111 c 128,-1,31
 39 141 39 141 49.5 210 c 128,-1,32
 60 279 60 279 70 413 c 2,33,-1
 90 690 l 1,34,-1
 363 690 l 1,35,-1
 363 417 l 1,36,37
 403 455 403 455 456 455 c 0,38,0
 515 455 515 455 548.5 414.5 c 128,-1,1
EndSplineSet
EndChar

StartChar: uni0522
Encoding: 1314 1314 419
Width: 600
GlyphClass: 2
Flags: W
AnchorPoint: "Anchor-3" 300 690 basechar 0
AnchorPoint: "Anchor-2" 300 -208 basechar 0
LayerCount: 2
Fore
SplineSet
552.5 413 m 128,-1,1
 589 371 589 371 589 301 c 2,2,-1
 589 -53 l 2,3,4
 589 -131 589 -131 546 -174 c 128,-1,5
 503 -217 503 -217 434 -217 c 0,6,7
 366 -217 366 -217 313 -177 c 1,8,-1
 355 -111 l 1,9,10
 373 -122 373 -122 389 -127.5 c 128,-1,11
 405 -133 405 -133 426 -133 c 0,12,13
 484 -133 484 -133 484 -61 c 2,14,-1
 484 297 l 2,15,16
 484 366 484 366 426 366 c 0,17,18
 389 366 389 366 356 336 c 1,19,-1
 356 0 l 1,20,-1
 253 0 l 1,21,-1
 253 313 l 1,22,-1
 129 313 l 1,23,-1
 129 0 l 1,24,-1
 25 0 l 1,25,-1
 25 690 l 1,26,-1
 129 690 l 1,27,-1
 129 402 l 1,28,-1
 253 402 l 1,29,-1
 253 690 l 1,30,-1
 356 690 l 1,31,-1
 356 417 l 1,32,33
 397 455 397 455 453 455 c 0,34,0
 516 455 516 455 552.5 413 c 128,-1,1
EndSplineSet
EndChar

StartChar: uni048C
Encoding: 1164 1164 420
Width: 600
GlyphClass: 2
Flags: W
AnchorPoint: "Anchor-3" 300 690 basechar 0
AnchorPoint: "Anchor-2" 300 0 basechar 0
LayerCount: 2
Fore
SplineSet
502 380.5 m 128,-1,1
 572 327 572 327 572 224 c 0,2,3
 572 112 572 112 500 56 c 128,-1,4
 428 0 428 0 308 0 c 2,5,-1
 110 0 l 1,6,-1
 110 527 l 1,7,-1
 30 527 l 1,8,-1
 30 601 l 1,9,-1
 110 601 l 1,10,-1
 110 690 l 1,11,-1
 226 690 l 1,12,-1
 226 601 l 1,13,-1
 353 601 l 1,14,-1
 353 527 l 1,15,-1
 226 527 l 1,16,-1
 226 434 l 1,17,-1
 312 434 l 2,18,0
 432 434 432 434 502 380.5 c 128,-1,1
451 223 m 0,20,21
 451 347 451 347 310 347 c 2,22,-1
 226 347 l 1,23,-1
 226 89 l 1,24,-1
 310 89 l 2,25,19
 451 89 451 89 451 223 c 0,20,21
EndSplineSet
EndChar

StartChar: uni048E
Encoding: 1166 1166 421
Width: 600
GlyphClass: 2
Flags: W
AnchorPoint: "Anchor-3" 300 690 basechar 0
AnchorPoint: "Anchor-2" 300 0 basechar 0
LayerCount: 2
Fore
SplineSet
539 366 m 128,-1,1
 514 320 514 320 469 291 c 1,2,-1
 544 168 l 1,3,-1
 465 168 l 1,4,-1
 407 262 l 1,5,6
 354 246 354 246 295 246 c 2,7,-1
 211 246 l 1,8,-1
 211 0 l 1,9,-1
 96 0 l 1,10,-1
 96 690 l 1,11,-1
 287 690 l 2,12,13
 420 690 420 690 492 635.5 c 128,-1,14
 564 581 564 581 564 472 c 0,15,0
 564 412 564 412 539 366 c 128,-1,1
360 340 m 1,17,-1
 275 479 l 1,18,-1
 354 479 l 1,19,-1
 418 374 l 1,20,21
 446 406 446 406 446 471 c 0,22,23
 446 603 446 603 298 603 c 2,24,-1
 211 603 l 1,25,-1
 211 334 l 1,26,-1
 299 334 l 2,27,16
 333 334 333 334 360 340 c 1,17,-1
EndSplineSet
EndChar

StartChar: uni0431
Encoding: 1073 1073 423
Width: 600
GlyphClass: 2
Flags: W
AnchorPoint: "Anchor-3" 300 740 basechar 0
AnchorPoint: "Anchor-2" 300 0 basechar 0
LayerCount: 2
Fore
SplineSet
441.5 465.5 m 128,-1,1
 486 436 486 436 511 380.5 c 128,-1,2
 536 325 536 325 536 249 c 0,3,4
 536 165 536 165 506 106 c 128,-1,5
 476 47 476 47 422.5 17 c 128,-1,6
 369 -13 369 -13 299 -13 c 0,7,8
 189 -13 189 -13 126 62.5 c 128,-1,9
 63 138 63 138 63 293 c 0,10,11
 63 407 63 407 80.5 481 c 128,-1,12
 98 555 98 555 141.5 602.5 c 128,-1,13
 185 650 185 650 264 676 c 0,14,15
 325 696 325 696 361 711.5 c 128,-1,16
 397 727 397 727 438 753 c 1,17,-1
 482 675 l 1,18,19
 448 653 448 653 409.5 635.5 c 128,-1,20
 371 618 371 618 315 598 c 0,21,22
 269 582 269 582 242 562 c 128,-1,23
 215 542 215 542 199 505.5 c 128,-1,24
 183 469 183 469 177 406 c 1,25,26
 204 449 204 449 245.5 472 c 128,-1,27
 287 495 287 495 339 495 c 0,28,0
 397 495 397 495 441.5 465.5 c 128,-1,1
387 110.5 m 128,-1,30
 419 149 419 149 419 247 c 0,31,32
 419 334 419 334 392 372 c 128,-1,33
 365 410 365 410 313 410 c 0,34,35
 274 410 274 410 239 387 c 128,-1,36
 204 364 204 364 180 322 c 1,37,-1
 180 258 l 2,38,39
 180 168 180 168 211 120 c 128,-1,40
 242 72 242 72 299 72 c 0,41,29
 355 72 355 72 387 110.5 c 128,-1,30
EndSplineSet
EndChar

StartChar: uni0432
Encoding: 1074 1074 424
Width: 600
Flags: W
LayerCount: 2
Fore
SplineSet
542 157 m 0,1,2
 542 78 542 78 476.5 39 c 128,-1,3
 411 0 411 0 310 0 c 2,4,-1
 99 0 l 1,5,-1
 99 522 l 1,6,7
 204 542 204 542 293 542 c 0,8,9
 395 542 395 542 455.5 505.5 c 128,-1,10
 516 469 516 469 516 403 c 0,11,12
 516 359 516 359 490 330.5 c 128,-1,13
 464 302 464 302 408 288 c 1,14,0
 542 273 542 273 542 157 c 0,1,2
211 456 m 1,16,-1
 211 316 l 1,17,-1
 304 316 l 2,18,19
 353 316 353 316 378.5 333.5 c 128,-1,20
 404 351 404 351 404 390 c 0,21,22
 404 428 404 428 377 445 c 128,-1,23
 350 462 350 462 293 462 c 0,24,15
 250 462 250 462 211 456 c 1,16,-1
391.5 98.5 m 128,-1,26
 426 115 426 115 426 162 c 0,27,28
 426 244 426 244 311 244 c 2,29,-1
 211 244 l 1,30,-1
 211 82 l 1,31,-1
 298 82 l 2,32,25
 357 82 357 82 391.5 98.5 c 128,-1,26
EndSplineSet
EndChar

StartChar: uni0433
Encoding: 1075 1075 425
Width: 600
GlyphClass: 2
Flags: W
AnchorPoint: "Anchor-3" 339 528 basechar 0
AnchorPoint: "Anchor-2" 200 0 basechar 0
LayerCount: 2
Fore
SplineSet
256 0 m 1,0,-1
 144 0 l 1,1,-1
 144 528 l 1,2,-1
 530 528 l 1,3,-1
 517 438 l 1,4,-1
 256 438 l 1,5,-1
 256 0 l 1,0,-1
EndSplineSet
EndChar

StartChar: uni0491
Encoding: 1169 1169 427
Width: 600
GlyphClass: 2
Flags: W
AnchorPoint: "Anchor-3" 339 528 basechar 0
AnchorPoint: "Anchor-2" 200 0 basechar 0
LayerCount: 2
Fore
SplineSet
422 668 m 1,0,-1
 530 668 l 1,1,-1
 530 528 l 1,2,-1
 517 438 l 1,3,-1
 256 438 l 1,4,-1
 256 0 l 1,5,-1
 144 0 l 1,6,-1
 144 528 l 1,7,-1
 422 528 l 1,8,-1
 422 668 l 1,0,-1
EndSplineSet
EndChar

StartChar: uni0434
Encoding: 1076 1076 428
Width: 600
GlyphClass: 2
Flags: W
AnchorPoint: "Anchor-3" 300 528 basechar 0
AnchorPoint: "Anchor-2" 300 -208 basechar 0
LayerCount: 2
Fore
SplineSet
550 87 m 1,0,-1
 550 -157 l 1,1,-1
 461 -157 l 1,2,-1
 445 0 l 1,3,-1
 126 0 l 1,4,-1
 110 -157 l 1,5,-1
 21 -157 l 1,6,-1
 21 87 l 1,7,-1
 59 87 l 1,8,9
 82 107 82 107 96 136 c 128,-1,10
 110 165 110 165 119.5 217 c 128,-1,11
 129 269 129 269 136 358 c 2,12,-1
 148 528 l 1,13,-1
 506 528 l 1,14,-1
 506 87 l 1,15,-1
 550 87 l 1,0,-1
397 444 m 1,16,-1
 248 444 l 1,17,-1
 243 364 l 2,18,19
 236 271 236 271 226 219 c 128,-1,20
 216 167 216 167 199.5 138 c 128,-1,21
 183 109 183 109 153 87 c 1,22,-1
 397 87 l 1,23,-1
 397 444 l 1,16,-1
EndSplineSet
EndChar

StartChar: uni0435
Encoding: 1077 1077 429
Width: 600
GlyphClass: 2
Flags: W
AnchorPoint: "Anchor-3" 309 528 basechar 0
AnchorPoint: "Anchor-2" 300 0 basechar 0
LayerCount: 2
Fore
SplineSet
226.5 112.5 m 128,-1,1
 266 74 266 74 326 74 c 0,2,3
 363 74 363 74 396.5 85.5 c 128,-1,4
 430 97 430 97 465 120 c 1,5,-1
 513 52 l 1,6,7
 476 21 476 21 426 4 c 128,-1,8
 376 -13 376 -13 321 -13 c 0,9,10
 200 -13 200 -13 133 62.5 c 128,-1,11
 66 138 66 138 66 264 c 0,12,13
 66 343 66 343 95 406.5 c 128,-1,14
 124 470 124 470 179 506 c 128,-1,15
 234 542 234 542 307 542 c 0,16,17
 412 542 412 542 473.5 471.5 c 128,-1,18
 535 401 535 401 535 278 c 0,19,20
 535 248 535 248 532 228 c 1,21,-1
 182 228 l 1,22,0
 187 151 187 151 226.5 112.5 c 128,-1,1
220 420 m 128,-1,24
 186 381 186 381 181 304 c 1,25,-1
 426 304 l 1,26,27
 424 379 424 379 394 419 c 128,-1,28
 364 459 364 459 308 459 c 0,29,23
 254 459 254 459 220 420 c 128,-1,24
EndSplineSet
EndChar

StartChar: uni0436
Encoding: 1078 1078 432
Width: 600
GlyphClass: 2
Flags: W
AnchorPoint: "Anchor-3" 300 528 basechar 0
AnchorPoint: "Anchor-2" 300 0 basechar 0
LayerCount: 2
Fore
SplineSet
257 0 m 1,0,-1
 257 241 l 1,1,-1
 212 241 l 1,2,-1
 115 0 l 1,3,-1
 10 0 l 1,4,-1
 132 284 l 1,5,-1
 17 528 l 1,6,-1
 123 528 l 1,7,-1
 211 315 l 1,8,-1
 257 315 l 1,9,-1
 257 528 l 1,10,-1
 343 528 l 1,11,-1
 343 315 l 1,12,-1
 389 315 l 1,13,-1
 481 528 l 1,14,-1
 583 528 l 1,15,-1
 468 284 l 1,16,-1
 590 0 l 1,17,-1
 485 0 l 1,18,-1
 387 241 l 1,19,-1
 343 241 l 1,20,-1
 343 0 l 1,21,-1
 257 0 l 1,0,-1
EndSplineSet
EndChar

StartChar: uni0437
Encoding: 1079 1079 433
Width: 600
GlyphClass: 2
Flags: W
AnchorPoint: "Anchor-3" 291 527 basechar 0
AnchorPoint: "Anchor-2" 299 0 basechar 0
LayerCount: 2
Fore
SplineSet
278 315 m 2,0,1
 326 315 326 315 353.5 334.5 c 128,-1,2
 381 354 381 354 381 387 c 0,3,4
 381 458 381 458 270 458 c 0,5,6
 230 458 230 458 188.5 447 c 128,-1,7
 147 436 147 436 112 415 c 1,8,-1
 62 478 l 1,9,10
 104 509 104 509 160 525.5 c 128,-1,11
 216 542 216 542 276 542 c 0,12,13
 373 542 373 542 434.5 504 c 128,-1,14
 496 466 496 466 496 397 c 0,15,16
 496 312 496 312 381 281 c 1,17,18
 442 277 442 277 483 245 c 128,-1,19
 524 213 524 213 524 156 c 0,20,21
 524 75 524 75 455 31 c 128,-1,22
 386 -13 386 -13 274 -13 c 0,23,24
 134 -13 134 -13 43 59 c 1,25,-1
 94 127 l 1,26,27
 135 100 135 100 178 86 c 128,-1,28
 221 72 221 72 275 72 c 0,29,30
 339 72 339 72 372.5 95 c 128,-1,31
 406 118 406 118 406 158 c 0,32,33
 406 196 406 196 375.5 215 c 128,-1,34
 345 234 345 234 286 234 c 2,35,-1
 176 234 l 1,36,-1
 183 315 l 1,37,-1
 278 315 l 2,0,1
EndSplineSet
EndChar

StartChar: uni0438
Encoding: 1080 1080 434
Width: 600
GlyphClass: 2
Flags: W
AnchorPoint: "Anchor-3" 300 528 basechar 0
AnchorPoint: "Anchor-2" 300 0 basechar 0
LayerCount: 2
Fore
SplineSet
511 0 m 1,0,-1
 403 0 l 1,1,-1
 403 217 l 2,2,3
 403 280 403 280 408 335.5 c 128,-1,4
 413 391 413 391 418 414 c 1,5,-1
 214 0 l 1,6,-1
 89 0 l 1,7,-1
 89 528 l 1,8,-1
 197 528 l 1,9,-1
 197 310 l 2,10,11
 197 252 197 252 192.5 195 c 128,-1,12
 188 138 188 138 182 116 c 1,13,-1
 384 528 l 1,14,-1
 511 528 l 1,15,-1
 511 0 l 1,0,-1
EndSplineSet
EndChar

StartChar: uni048B
Encoding: 1163 1163 437
Width: 600
Flags: W
LayerCount: 2
Fore
SplineSet
177 669.5 m 128,-1,1
 135 705 135 705 129 762 c 1,2,-1
 197 776 l 1,3,4
 216 715 216 715 285 715 c 0,5,6
 358 715 358 715 375 776 c 1,7,-1
 444 762 l 1,8,9
 438 705 438 705 395 669.5 c 128,-1,10
 352 634 352 634 285 634 c 0,11,0
 219 634 219 634 177 669.5 c 128,-1,1
578 94 m 1,12,-1
 499 -157 l 1,13,-1
 408 -157 l 1,14,-1
 445 0 l 1,15,-1
 385 0 l 1,16,-1
 385 217 l 2,17,18
 385 333 385 333 399 424 c 1,19,-1
 207 0 l 1,20,-1
 82 0 l 1,21,-1
 82 528 l 1,22,-1
 190 528 l 1,23,-1
 190 310 l 2,24,25
 190 250 190 250 184.5 193.5 c 128,-1,26
 179 137 179 137 171 102 c 1,27,-1
 367 528 l 1,28,-1
 492 528 l 1,29,-1
 492 94 l 1,30,-1
 578 94 l 1,12,-1
EndSplineSet
EndChar

StartChar: uni043A
Encoding: 1082 1082 438
Width: 600
GlyphClass: 2
Flags: W
AnchorPoint: "Anchor-3" 320 528 basechar 0
AnchorPoint: "Anchor-2" 300 0 basechar 0
LayerCount: 2
Fore
SplineSet
93 0 m 1,0,-1
 93 528 l 1,1,-1
 205 528 l 1,2,-1
 205 319 l 1,3,-1
 298 319 l 1,4,-1
 436 528 l 1,5,-1
 553 528 l 1,6,-1
 387 284 l 1,7,-1
 576 0 l 1,8,-1
 449 0 l 1,9,-1
 296 237 l 1,10,-1
 205 237 l 1,11,-1
 205 0 l 1,12,-1
 93 0 l 1,0,-1
EndSplineSet
EndChar

StartChar: uni043B
Encoding: 1083 1083 440
Width: 600
GlyphClass: 2
Flags: W
AnchorPoint: "Anchor-3" 300 528 basechar 0
AnchorPoint: "Anchor-2" 300 0 basechar 0
LayerCount: 2
Fore
SplineSet
517 0 m 1,0,-1
 405 0 l 1,1,-1
 405 441 l 1,2,-1
 239 441 l 1,3,-1
 231 330 l 2,4,5
 222 210 222 210 206.5 146.5 c 128,-1,6
 191 83 191 83 162.5 49 c 128,-1,7
 134 15 134 15 79 -14 c 1,8,-1
 31 57 l 1,9,10
 60 75 60 75 76.5 98.5 c 128,-1,11
 93 122 93 122 104.5 174 c 128,-1,12
 116 226 116 226 124 325 c 2,13,-1
 139 528 l 1,14,-1
 517 528 l 1,15,-1
 517 0 l 1,0,-1
EndSplineSet
EndChar

StartChar: uni043C
Encoding: 1084 1084 441
Width: 600
GlyphClass: 2
Flags: W
AnchorPoint: "Anchor-3" 300 528 basechar 0
AnchorPoint: "Anchor-2" 300 0 basechar 0
LayerCount: 2
Fore
SplineSet
566 0 m 1,0,-1
 463 0 l 1,1,-1
 447 228 l 2,2,3
 444 288 444 288 444 351 c 0,4,5
 444 397 444 397 445 422 c 1,6,-1
 441 422 l 1,7,-1
 349 87 l 1,8,-1
 254 87 l 1,9,-1
 152 422 l 1,10,-1
 148 422 l 1,11,12
 150 397 150 397 150 345 c 0,13,14
 150 284 150 284 147 227 c 2,15,-1
 136 0 l 1,16,-1
 34 0 l 1,17,-1
 71 528 l 1,18,-1
 204 528 l 1,19,-1
 303 181 l 1,20,-1
 392 528 l 1,21,-1
 528 528 l 1,22,-1
 566 0 l 1,0,-1
EndSplineSet
EndChar

StartChar: uni043D
Encoding: 1085 1085 442
Width: 600
Flags: W
LayerCount: 2
Fore
SplineSet
399 0 m 1,0,-1
 399 226 l 1,1,-1
 201 226 l 1,2,-1
 201 0 l 1,3,-1
 89 0 l 1,4,-1
 89 528 l 1,5,-1
 201 528 l 1,6,-1
 201 313 l 1,7,-1
 399 313 l 1,8,-1
 399 528 l 1,9,-1
 511 528 l 1,10,-1
 511 0 l 1,11,-1
 399 0 l 1,0,-1
EndSplineSet
EndChar

StartChar: uni043E
Encoding: 1086 1086 443
Width: 600
GlyphClass: 2
Flags: W
AnchorPoint: "Anchor-3" 300 528 basechar 0
AnchorPoint: "Anchor-2" 300 0 basechar 0
LayerCount: 2
Fore
SplineSet
477 467.5 m 128,-1,1
 539 393 539 393 539 265 c 256,2,3
 539 137 539 137 476 62 c 128,-1,4
 413 -13 413 -13 300 -13 c 0,5,6
 186 -13 186 -13 123.5 60.5 c 128,-1,7
 61 134 61 134 61 264 c 0,8,9
 61 390 61 390 124.5 466 c 128,-1,10
 188 542 188 542 301 542 c 0,11,0
 415 542 415 542 477 467.5 c 128,-1,1
209.5 408 m 128,-1,13
 179 361 179 361 179 264 c 0,14,15
 179 166 179 166 209 119.5 c 128,-1,16
 239 73 239 73 300 73 c 256,17,18
 361 73 361 73 391 120 c 128,-1,19
 421 167 421 167 421 265 c 0,20,21
 421 362 421 362 391 408.5 c 128,-1,22
 361 455 361 455 301 455 c 0,23,12
 240 455 240 455 209.5 408 c 128,-1,13
EndSplineSet
EndChar

StartChar: uni043F
Encoding: 1087 1087 444
Width: 600
GlyphClass: 2
Flags: W
AnchorPoint: "Anchor-3" 300 528 basechar 0
AnchorPoint: "Anchor-2" 300 0 basechar 0
LayerCount: 2
Fore
SplineSet
400 0 m 1,0,-1
 400 441 l 1,1,-1
 200 441 l 1,2,-1
 200 0 l 1,3,-1
 89 0 l 1,4,-1
 89 528 l 1,5,-1
 511 528 l 1,6,-1
 511 0 l 1,7,-1
 400 0 l 1,0,-1
EndSplineSet
EndChar

StartChar: uni0442
Encoding: 1090 1090 447
Width: 600
GlyphClass: 2
Flags: W
AnchorPoint: "Anchor-3" 300 528 basechar 0
AnchorPoint: "Anchor-2" 300 0 basechar 0
LayerCount: 2
Fore
SplineSet
549 528 m 1,0,-1
 536 441 l 1,1,-1
 356 441 l 1,2,-1
 356 0 l 1,3,-1
 244 0 l 1,4,-1
 244 441 l 1,5,-1
 57 441 l 1,6,-1
 57 528 l 1,7,-1
 549 528 l 1,0,-1
EndSplineSet
EndChar

StartChar: uni0443
Encoding: 1091 1091 448
Width: 600
GlyphClass: 2
Flags: W
AnchorPoint: "Anchor-3" 300 528 basechar 0
AnchorPoint: "Anchor-2" 0 0 basechar 0
LayerCount: 2
Fore
SplineSet
369 -2 m 2,0,1
 337 -98 337 -98 276.5 -152.5 c 128,-1,2
 216 -207 216 -207 110 -216 c 1,3,-1
 96 -132 l 1,4,5
 148 -124 148 -124 180 -107.5 c 128,-1,6
 212 -91 212 -91 231 -66 c 128,-1,7
 250 -41 250 -41 265 0 c 1,8,-1
 227 0 l 1,9,-1
 49 528 l 1,10,-1
 168 528 l 1,11,-1
 301 78 l 1,12,-1
 436 528 l 1,13,-1
 551 528 l 1,14,-1
 369 -2 l 2,0,1
EndSplineSet
EndChar

StartChar: uni0444
Encoding: 1092 1092 450
Width: 600
GlyphClass: 2
Flags: W
AnchorPoint: "Anchor-3" 300 740 basechar 0
AnchorPoint: "Anchor-2" 300 -208 basechar 0
LayerCount: 2
Fore
SplineSet
345 741 m 1,0,-1
 345 490 l 1,1,2
 384 542 384 542 443 542 c 0,3,4
 519 542 519 542 548 472 c 128,-1,5
 577 402 577 402 577 264 c 0,6,7
 577 134 577 134 540.5 60.5 c 128,-1,8
 504 -13 504 -13 433 -13 c 0,9,10
 382 -13 382 -13 345 39 c 1,11,-1
 345 -204 l 1,12,-1
 255 -216 l 1,13,-1
 255 39 l 1,14,15
 218 -13 218 -13 165 -13 c 0,16,17
 95 -13 95 -13 59 60.5 c 128,-1,18
 23 134 23 134 23 264 c 0,19,20
 23 399 23 399 55 470.5 c 128,-1,21
 87 542 87 542 163 542 c 0,22,23
 190 542 190 542 212.5 530 c 128,-1,24
 235 518 235 518 255 492 c 1,25,-1
 255 753 l 1,26,-1
 345 741 l 1,0,-1
144.5 415 m 128,-1,28
 130 370 130 370 130 264 c 256,29,30
 130 158 130 158 144.5 113 c 128,-1,31
 159 68 159 68 193 68 c 0,32,33
 210 68 210 68 222.5 78 c 128,-1,34
 235 88 235 88 255 112 c 1,35,-1
 255 419 l 1,36,37
 238 441 238 441 225 450.5 c 128,-1,38
 212 460 212 460 193 460 c 0,39,27
 159 460 159 460 144.5 415 c 128,-1,28
377.5 450.5 m 128,-1,41
 362 441 362 441 345 419 c 1,42,-1
 345 112 l 1,43,44
 362 89 362 89 375.5 78.5 c 128,-1,45
 389 68 389 68 407 68 c 0,46,47
 440 68 440 68 455 113.5 c 128,-1,48
 470 159 470 159 470 264 c 0,49,50
 470 372 470 372 457.5 416 c 128,-1,51
 445 460 445 460 413 460 c 0,52,40
 393 460 393 460 377.5 450.5 c 128,-1,41
EndSplineSet
EndChar

StartChar: uni0447
Encoding: 1095 1095 452
Width: 600
GlyphClass: 2
Flags: W
AnchorPoint: "Anchor-3" 287 528 basechar 0
AnchorPoint: "Anchor-2" 300 0 basechar 0
LayerCount: 2
Fore
SplineSet
503 0 m 1,0,-1
 391 0 l 1,1,-1
 391 213 l 1,2,3
 361 187 361 187 319.5 172.5 c 128,-1,4
 278 158 278 158 231 158 c 0,5,6
 153 158 153 158 112 200 c 128,-1,7
 71 242 71 242 71 317 c 2,8,-1
 71 528 l 1,9,-1
 183 528 l 1,10,-1
 183 330 l 2,11,12
 183 284 183 284 203.5 263.5 c 128,-1,13
 224 243 224 243 266 243 c 0,14,15
 300 243 300 243 335 257 c 128,-1,16
 370 271 370 271 391 294 c 1,17,-1
 391 528 l 1,18,-1
 503 528 l 1,19,-1
 503 0 l 1,0,-1
EndSplineSet
EndChar

StartChar: uni0446
Encoding: 1094 1094 453
Width: 600
GlyphClass: 2
Flags: W
AnchorPoint: "Anchor-3" 0 0 basechar 0
AnchorPoint: "Anchor-2" 291 0 basechar 0
LayerCount: 2
Fore
SplineSet
502 87 m 1,0,-1
 579 87 l 1,1,-1
 579 -157 l 1,2,-1
 490 -157 l 1,3,-1
 474 0 l 1,4,-1
 80 0 l 1,5,-1
 80 528 l 1,6,-1
 191 528 l 1,7,-1
 191 88 l 1,8,-1
 391 88 l 1,9,-1
 391 528 l 1,10,-1
 502 528 l 1,11,-1
 502 87 l 1,0,-1
EndSplineSet
EndChar

StartChar: uni0448
Encoding: 1096 1096 454
Width: 600
GlyphClass: 2
Flags: W
AnchorPoint: "Anchor-3" 300 528 basechar 0
AnchorPoint: "Anchor-2" 300 0 basechar 0
LayerCount: 2
Fore
SplineSet
560 528 m 1,0,-1
 560 0 l 1,1,-1
 40 0 l 1,2,-1
 40 528 l 1,3,-1
 140 528 l 1,4,-1
 140 88 l 1,5,-1
 254 88 l 1,6,-1
 254 528 l 1,7,-1
 346 528 l 1,8,-1
 346 88 l 1,9,-1
 460 88 l 1,10,-1
 460 528 l 1,11,-1
 560 528 l 1,0,-1
EndSplineSet
EndChar

StartChar: uni0449
Encoding: 1097 1097 455
Width: 600
GlyphClass: 2
Flags: W
AnchorPoint: "Anchor-3" 300 528 basechar 0
AnchorPoint: "Anchor-2" 300 0 basechar 0
LayerCount: 2
Fore
SplineSet
560 87 m 1,0,-1
 624 87 l 1,1,-1
 624 -157 l 1,2,-1
 535 -157 l 1,3,-1
 519 0 l 1,4,-1
 40 0 l 1,5,-1
 40 528 l 1,6,-1
 140 528 l 1,7,-1
 140 88 l 1,8,-1
 254 88 l 1,9,-1
 254 528 l 1,10,-1
 346 528 l 1,11,-1
 346 88 l 1,12,-1
 460 88 l 1,13,-1
 460 528 l 1,14,-1
 560 528 l 1,15,-1
 560 87 l 1,0,-1
EndSplineSet
EndChar

StartChar: uni045F
Encoding: 1119 1119 456
Width: 600
GlyphClass: 2
Flags: W
AnchorPoint: "Anchor-3" 0 0 basechar 0
AnchorPoint: "Anchor-2" 300 0 basechar 0
LayerCount: 2
Fore
SplineSet
511 528 m 1,0,-1
 511 0 l 1,1,-1
 352 0 l 1,2,-1
 352 -157 l 1,3,-1
 263 -157 l 1,4,-1
 247 0 l 1,5,-1
 89 0 l 1,6,-1
 89 528 l 1,7,-1
 200 528 l 1,8,-1
 200 88 l 1,9,-1
 400 88 l 1,10,-1
 400 528 l 1,11,-1
 511 528 l 1,0,-1
EndSplineSet
EndChar

StartChar: uni044C
Encoding: 1100 1100 457
Width: 600
GlyphClass: 2
Flags: W
AnchorPoint: "Anchor-3" 300 528 basechar 0
AnchorPoint: "Anchor-2" 300 0 basechar 0
LayerCount: 2
Fore
SplineSet
224 365 m 1,0,-1
 309 365 l 2,1,2
 431 365 431 365 486.5 319 c 128,-1,3
 542 273 542 273 542 184 c 0,4,5
 542 90 542 90 480.5 45 c 128,-1,6
 419 0 419 0 322 0 c 2,7,-1
 112 0 l 1,8,-1
 112 528 l 1,9,-1
 224 528 l 1,10,-1
 224 365 l 1,0,-1
224 285 m 1,11,-1
 224 83 l 1,12,-1
 317 83 l 2,13,14
 369 83 369 83 396.5 106 c 128,-1,15
 424 129 424 129 424 185 c 0,16,17
 424 237 424 237 398 261 c 128,-1,18
 372 285 372 285 309 285 c 2,19,-1
 224 285 l 1,11,-1
EndSplineSet
EndChar

StartChar: uni044A
Encoding: 1098 1098 458
Width: 600
Flags: W
LayerCount: 2
Fore
SplineSet
255 365 m 1,0,-1
 309 365 l 2,1,2
 555 365 555 365 555 185 c 0,3,4
 555 89 555 89 492 44.5 c 128,-1,5
 429 0 429 0 316 0 c 2,6,-1
 143 0 l 1,7,-1
 143 445 l 1,8,-1
 26 445 l 1,9,-1
 26 528 l 1,10,-1
 255 528 l 1,11,-1
 255 365 l 1,0,-1
255 284 m 1,12,-1
 255 83 l 1,13,-1
 317 83 l 2,14,15
 375 83 375 83 406 105.5 c 128,-1,16
 437 128 437 128 437 186 c 0,17,18
 437 238 437 238 406.5 261 c 128,-1,19
 376 284 376 284 316 284 c 2,20,-1
 255 284 l 1,12,-1
EndSplineSet
EndChar

StartChar: uni044B
Encoding: 1099 1099 459
Width: 600
GlyphClass: 2
Flags: W
AnchorPoint: "Anchor-3" 300 528 basechar 0
AnchorPoint: "Anchor-2" 300 0 basechar 0
LayerCount: 2
Fore
SplineSet
149 361 m 1,0,-1
 175 361 l 2,1,2
 403 361 403 361 403 184 c 0,3,4
 403 91 403 91 344.5 45.5 c 128,-1,5
 286 0 286 0 181 0 c 2,6,-1
 48 0 l 1,7,-1
 48 528 l 1,8,-1
 149 528 l 1,9,-1
 149 361 l 1,0,-1
552 528 m 1,10,-1
 552 0 l 1,11,-1
 450 0 l 1,12,-1
 450 528 l 1,13,-1
 552 528 l 1,10,-1
149 286 m 1,14,-1
 149 78 l 1,15,-1
 182 78 l 2,16,17
 238 78 238 78 266.5 102 c 128,-1,18
 295 126 295 126 295 185 c 0,19,20
 295 239 295 239 267.5 262.5 c 128,-1,21
 240 286 240 286 180 286 c 2,22,-1
 149 286 l 1,14,-1
EndSplineSet
EndChar

StartChar: uni0459
Encoding: 1113 1113 460
Width: 600
GlyphClass: 2
Flags: W
AnchorPoint: "Anchor-3" 300 528 basechar 0
AnchorPoint: "Anchor-2" 300 0 basechar 0
LayerCount: 2
Fore
SplineSet
370 360 m 1,0,-1
 382 360 l 2,1,2
 596 360 596 360 596 183 c 0,3,4
 596 93 596 93 540.5 46.5 c 128,-1,5
 485 0 485 0 387 0 c 2,6,-1
 271 0 l 1,7,-1
 271 447 l 1,8,-1
 183 447 l 1,9,-1
 178 321 l 2,10,11
 173 207 173 207 158.5 144.5 c 128,-1,12
 144 82 144 82 116.5 48.5 c 128,-1,13
 89 15 89 15 37 -14 c 1,14,-1
 -1 58 l 1,15,16
 22 76 22 76 36.5 99 c 128,-1,17
 51 122 51 122 61.5 174 c 128,-1,18
 72 226 72 226 77 321 c 2,19,-1
 87 528 l 1,20,-1
 370 528 l 1,21,-1
 370 360 l 1,0,-1
370 285 m 1,22,-1
 370 77 l 1,23,-1
 386 77 l 2,24,25
 439 77 439 77 464 100.5 c 128,-1,26
 489 124 489 124 489 184 c 0,27,28
 489 239 489 239 465 262 c 128,-1,29
 441 285 441 285 385 285 c 2,30,-1
 370 285 l 1,22,-1
EndSplineSet
EndChar

StartChar: uni045A
Encoding: 1114 1114 461
Width: 600
GlyphClass: 2
Flags: W
AnchorPoint: "Anchor-3" 300 528 basechar 0
AnchorPoint: "Anchor-2" 300 0 basechar 0
LayerCount: 2
Fore
SplineSet
373 334 m 1,0,-1
 385 334 l 2,1,2
 599 334 599 334 599 168 c 0,3,4
 599 81 599 81 543 40.5 c 128,-1,5
 487 0 487 0 385 0 c 2,6,-1
 274 0 l 1,7,-1
 274 258 l 1,8,-1
 158 258 l 1,9,-1
 158 0 l 1,10,-1
 57 0 l 1,11,-1
 57 528 l 1,12,-1
 158 528 l 1,13,-1
 158 334 l 1,14,-1
 274 334 l 1,15,-1
 274 528 l 1,16,-1
 373 528 l 1,17,-1
 373 334 l 1,0,-1
373 260 m 1,18,-1
 373 78 l 1,19,-1
 386 78 l 2,20,21
 442 78 442 78 467.5 96.5 c 128,-1,22
 493 115 493 115 493 169 c 0,23,24
 493 218 493 218 468.5 239 c 128,-1,25
 444 260 444 260 389 260 c 2,26,-1
 373 260 l 1,18,-1
EndSplineSet
EndChar

StartChar: uni0454
Encoding: 1108 1108 463
Width: 600
GlyphClass: 2
Flags: W
AnchorPoint: "Anchor-3" 300 528 basechar 0
AnchorPoint: "Anchor-2" 300 0 basechar 0
LayerCount: 2
Fore
SplineSet
525 481 m 1,1,-1
 475 413 l 1,2,3
 412 456 412 456 344 456 c 0,4,5
 284 456 284 456 245.5 419 c 128,-1,6
 207 382 207 382 198 310 c 1,7,-1
 427 310 l 1,8,-1
 427 231 l 1,9,-1
 198 231 l 1,10,11
 204 151 204 151 243 112.5 c 128,-1,12
 282 74 282 74 344 74 c 0,13,14
 381 74 381 74 412.5 84.5 c 128,-1,15
 444 95 444 95 476 117 c 1,16,-1
 525 49 l 1,17,18
 489 19 489 19 440 3 c 128,-1,19
 391 -13 391 -13 341 -13 c 0,20,21
 219 -13 219 -13 151 61 c 128,-1,22
 83 135 83 135 83 261 c 0,23,24
 83 342 83 342 114 405.5 c 128,-1,25
 145 469 145 469 203.5 505.5 c 128,-1,26
 262 542 262 542 341 542 c 0,27,0
 449 542 449 542 525 481 c 1,1,-1
EndSplineSet
EndChar

StartChar: uni044D
Encoding: 1101 1101 464
Width: 600
GlyphClass: 2
Flags: W
AnchorPoint: "Anchor-3" 297 528 basechar 0
AnchorPoint: "Anchor-2" 300 0 basechar 0
LayerCount: 2
Fore
SplineSet
461.5 467.5 m 128,-1,1
 525 393 525 393 525 265 c 0,2,3
 525 138 525 138 458 62.5 c 128,-1,4
 391 -13 391 -13 269 -13 c 0,5,6
 216 -13 216 -13 168 3.5 c 128,-1,7
 120 20 120 20 83 51 c 1,8,-1
 135 118 l 1,9,10
 165 95 165 95 197 84.5 c 128,-1,11
 229 74 229 74 267 74 c 0,12,13
 398 74 398 74 411 231 c 1,14,-1
 182 231 l 1,15,-1
 182 310 l 1,16,-1
 409 310 l 1,17,18
 396 456 396 456 272 456 c 0,19,20
 198 456 198 456 139 413 c 1,21,-1
 88 480 l 1,22,23
 167 542 167 542 278 542 c 0,24,0
 398 542 398 542 461.5 467.5 c 128,-1,1
EndSplineSet
EndChar

StartChar: uni044E
Encoding: 1102 1102 469
Width: 600
GlyphClass: 2
Flags: W
AnchorPoint: "Anchor-3" 300 528 basechar 0
AnchorPoint: "Anchor-2" 300 0 basechar 0
LayerCount: 2
Fore
SplineSet
529.5 470 m 128,-1,1
 575 398 575 398 575 265 c 0,2,3
 575 133 575 133 530 60 c 128,-1,4
 485 -13 485 -13 390 -13 c 0,5,6
 302 -13 302 -13 258 50.5 c 128,-1,7
 214 114 214 114 208 227 c 1,8,-1
 148 227 l 1,9,-1
 148 0 l 1,10,-1
 47 0 l 1,11,-1
 47 528 l 1,12,-1
 148 528 l 1,13,-1
 148 311 l 1,14,-1
 208 311 l 1,15,16
 215 421 215 421 259.5 481.5 c 128,-1,17
 304 542 304 542 390 542 c 0,18,0
 484 542 484 542 529.5 470 c 128,-1,1
328.5 415 m 128,-1,20
 312 370 312 370 312 264 c 0,21,22
 312 162 312 162 328.5 115.5 c 128,-1,23
 345 69 345 69 390 69 c 0,24,25
 436 69 436 69 452 115.5 c 128,-1,26
 468 162 468 162 468 265 c 256,27,28
 468 368 468 368 451 414 c 128,-1,29
 434 460 434 460 390 460 c 0,30,19
 345 460 345 460 328.5 415 c 128,-1,20
EndSplineSet
EndChar

StartChar: uni044F
Encoding: 1103 1103 470
Width: 600
GlyphClass: 2
Flags: W
AnchorPoint: "Anchor-3" 300 528 basechar 0
AnchorPoint: "Anchor-2" 300 0 basechar 0
LayerCount: 2
Fore
SplineSet
501 528 m 1,0,-1
 501 0 l 1,1,-1
 389 0 l 1,2,-1
 389 197 l 1,3,-1
 270 197 l 1,4,-1
 163 0 l 1,5,-1
 40 0 l 1,6,-1
 167 222 l 1,7,8
 122 243 122 243 98.5 278.5 c 128,-1,9
 75 314 75 314 75 362 c 0,10,11
 75 441 75 441 133.5 484.5 c 128,-1,12
 192 528 192 528 301 528 c 2,13,-1
 501 528 l 1,0,-1
389 275 m 1,14,-1
 389 449 l 1,15,-1
 299 449 l 2,16,17
 245 449 245 449 218.5 428 c 128,-1,18
 192 407 192 407 192 364 c 0,19,20
 192 318 192 318 217.5 296.5 c 128,-1,21
 243 275 243 275 298 275 c 2,22,-1
 389 275 l 1,14,-1
EndSplineSet
EndChar

StartChar: uni0452
Encoding: 1106 1106 471
Width: 600
GlyphClass: 2
Flags: W
AnchorPoint: "Anchor-3" 300 740 basechar 0
AnchorPoint: "Anchor-2" 300 -208 basechar 0
LayerCount: 2
Fore
SplineSet
201 673 m 1,0,-1
 359 673 l 1,1,-1
 359 596 l 1,2,-1
 201 596 l 1,3,-1
 201 465 l 1,4,5
 232 502 232 502 275 522 c 128,-1,6
 318 542 318 542 365 542 c 0,7,8
 438 542 438 542 475 501.5 c 128,-1,9
 512 461 512 461 512 385 c 2,10,-1
 512 47 l 2,11,12
 512 -32 512 -32 492.5 -81 c 128,-1,13
 473 -130 473 -130 436 -159 c 128,-1,14
 399 -188 399 -188 336 -215 c 1,15,-1
 295 -133 l 1,16,17
 334 -115 334 -115 355.5 -98 c 128,-1,18
 377 -81 377 -81 388.5 -50.5 c 128,-1,19
 400 -20 400 -20 400 31 c 2,20,-1
 400 375 l 2,21,22
 400 418 400 418 381.5 437 c 128,-1,23
 363 456 363 456 324 456 c 0,24,25
 289 456 289 456 256.5 433.5 c 128,-1,26
 224 411 224 411 201 378 c 1,27,-1
 201 0 l 1,28,-1
 89 0 l 1,29,-1
 89 596 l 1,30,-1
 15 596 l 1,31,-1
 15 673 l 1,32,-1
 89 673 l 1,33,-1
 89 739 l 1,34,-1
 201 751 l 1,35,-1
 201 673 l 1,0,-1
EndSplineSet
EndChar

StartChar: uni0463
Encoding: 1123 1123 473
Width: 600
GlyphClass: 2
Flags: W
AnchorPoint: "Anchor-3" 184 652 basechar 0
AnchorPoint: "Anchor-2" 300 0 basechar 0
LayerCount: 2
Fore
SplineSet
240 540 m 1,0,-1
 373 540 l 1,1,-1
 361 463 l 1,2,-1
 240 463 l 1,3,-1
 240 361 l 1,4,-1
 302 361 l 2,5,6
 548 361 548 361 548 182 c 0,7,8
 548 88 548 88 485.5 44 c 128,-1,9
 423 0 423 0 311 0 c 2,10,-1
 128 0 l 1,11,-1
 128 463 l 1,12,-1
 50 463 l 1,13,-1
 50 540 l 1,14,-1
 128 540 l 1,15,-1
 128 650 l 1,16,-1
 240 662 l 1,17,-1
 240 540 l 1,0,-1
240 280 m 1,18,-1
 240 83 l 1,19,-1
 310 83 l 2,20,21
 368 83 368 83 399 105 c 128,-1,22
 430 127 430 127 430 183 c 0,23,24
 430 234 430 234 399.5 257 c 128,-1,25
 369 280 369 280 309 280 c 2,26,-1
 240 280 l 1,18,-1
EndSplineSet
EndChar

StartChar: uni0465
Encoding: 1125 1125 474
Width: 600
GlyphClass: 2
Flags: W
AnchorPoint: "Anchor-3" 300 528 basechar 0
AnchorPoint: "Anchor-2" 300 0 basechar 0
LayerCount: 2
Fore
SplineSet
485 79.5 m 128,-1,1
 506 89 506 89 527 107 c 1,2,-1
 579 49 l 1,3,4
 549 19 549 19 511.5 3 c 128,-1,5
 474 -13 474 -13 436 -13 c 0,6,7
 342 -13 342 -13 286.5 51 c 128,-1,8
 231 115 231 115 223 227 c 1,9,-1
 166 227 l 1,10,-1
 166 0 l 1,11,-1
 63 0 l 1,12,-1
 63 528 l 1,13,-1
 166 528 l 1,14,-1
 166 311 l 1,15,-1
 225 311 l 1,16,17
 236 416 236 416 291 479 c 128,-1,18
 346 542 346 542 439 542 c 0,19,20
 518 542 518 542 581 485 c 1,21,-1
 530 426 l 1,22,23
 508 443 508 443 487 451.5 c 128,-1,24
 466 460 466 460 440 460 c 0,25,26
 390 460 390 460 363 422.5 c 128,-1,27
 336 385 336 385 328 310 c 1,28,-1
 506 310 l 1,29,-1
 506 231 l 1,30,-1
 327 231 l 1,31,32
 330 148 330 148 359.5 109 c 128,-1,33
 389 70 389 70 437 70 c 0,34,0
 464 70 464 70 485 79.5 c 128,-1,1
EndSplineSet
EndChar

StartChar: uni0467
Encoding: 1127 1127 475
Width: 600
GlyphClass: 2
Flags: W
AnchorPoint: "Anchor-3" 300 528 basechar 0
AnchorPoint: "Anchor-2" 300 0 basechar 0
LayerCount: 2
Fore
SplineSet
463 0 m 1,0,-1
 393 196 l 1,1,-1
 342 196 l 1,2,-1
 342 0 l 1,3,-1
 255 0 l 1,4,-1
 255 196 l 1,5,-1
 205 196 l 1,6,-1
 136 0 l 1,7,-1
 29 0 l 1,8,-1
 233 528 l 1,9,-1
 369 528 l 1,10,-1
 572 0 l 1,11,-1
 463 0 l 1,0,-1
233 276 m 1,12,-1
 364 276 l 1,13,-1
 298 459 l 1,14,-1
 233 276 l 1,12,-1
EndSplineSet
EndChar

StartChar: uni0469
Encoding: 1129 1129 476
Width: 600
GlyphClass: 2
Flags: W
AnchorPoint: "Anchor-3" 300 528 basechar 0
AnchorPoint: "Anchor-2" 300 0 basechar 0
LayerCount: 2
Fore
SplineSet
511 0 m 1,0,-1
 458 195 l 1,1,-1
 423 195 l 1,2,-1
 423 0 l 1,3,-1
 345 0 l 1,4,-1
 345 195 l 1,5,-1
 314 195 l 1,6,-1
 261 0 l 1,7,-1
 168 0 l 1,8,-1
 225 195 l 1,9,-1
 136 195 l 1,10,-1
 136 0 l 1,11,-1
 38 0 l 1,12,-1
 38 528 l 1,13,-1
 136 528 l 1,14,-1
 136 274 l 1,15,-1
 248 274 l 1,16,-1
 322 528 l 1,17,-1
 450 528 l 1,18,-1
 605 0 l 1,19,-1
 511 0 l 1,0,-1
335 274 m 1,20,-1
 436 274 l 1,21,-1
 385 460 l 1,22,-1
 335 274 l 1,20,-1
EndSplineSet
EndChar

StartChar: uni046B
Encoding: 1131 1131 477
Width: 600
GlyphClass: 2
Flags: W
AnchorPoint: "Anchor-3" 300 528 basechar 0
AnchorPoint: "Anchor-2" 300 0 basechar 0
LayerCount: 2
Fore
SplineSet
478 300 m 1,0,-1
 585 0 l 1,1,-1
 487 0 l 1,2,-1
 415 221 l 1,3,-1
 351 221 l 1,4,-1
 351 0 l 1,5,-1
 250 0 l 1,6,-1
 250 221 l 1,7,-1
 186 221 l 1,8,-1
 115 0 l 1,9,-1
 16 0 l 1,10,-1
 123 300 l 1,11,-1
 207 300 l 1,12,-1
 90 472 l 1,13,-1
 90 528 l 1,14,-1
 504 528 l 1,15,-1
 504 472 l 1,16,-1
 387 300 l 1,17,-1
 478 300 l 1,0,-1
202 454 m 1,18,-1
 299 300 l 1,19,-1
 395 454 l 1,20,-1
 202 454 l 1,18,-1
EndSplineSet
EndChar

StartChar: uni046D
Encoding: 1133 1133 478
Width: 600
GlyphClass: 2
Flags: W
AnchorPoint: "Anchor-3" 300 528 basechar 0
AnchorPoint: "Anchor-2" 300 0 basechar 0
LayerCount: 2
Fore
SplineSet
529 301 m 1,0,-1
 620 0 l 1,1,-1
 525 0 l 1,2,-1
 467 222 l 1,3,-1
 432 222 l 1,4,-1
 432 0 l 1,5,-1
 341 0 l 1,6,-1
 341 222 l 1,7,-1
 305 222 l 1,8,-1
 246 0 l 1,9,-1
 152 0 l 1,10,-1
 220 222 l 1,11,-1
 119 222 l 1,12,-1
 119 0 l 1,13,-1
 21 0 l 1,14,-1
 21 528 l 1,15,-1
 119 528 l 1,16,-1
 119 301 l 1,17,-1
 298 301 l 1,18,-1
 196 472 l 1,19,-1
 196 528 l 1,20,-1
 569 528 l 1,21,-1
 569 472 l 1,22,-1
 467 301 l 1,23,-1
 529 301 l 1,0,-1
300 457 m 1,24,-1
 385 301 l 1,25,-1
 467 457 l 1,26,-1
 300 457 l 1,24,-1
EndSplineSet
EndChar

StartChar: uni046F
Encoding: 1135 1135 479
Width: 600
GlyphClass: 2
Flags: W
AnchorPoint: "Anchor-3" 288 528 basechar 0
AnchorPoint: "Anchor-2" 0 0 basechar 0
LayerCount: 2
Fore
SplineSet
416 799 m 1,0,-1
 461 749 l 1,1,-1
 324 622 l 1,2,-1
 252 622 l 1,3,-1
 115 749 l 1,4,-1
 161 799 l 1,5,-1
 289 707 l 1,6,-1
 416 799 l 1,0,-1
111.5 -155 m 128,-1,8
 77 -120 77 -120 77 -75 c 0,9,10
 77 -24 77 -24 117.5 5.5 c 128,-1,11
 158 35 158 35 250 50 c 0,12,13
 309 59 309 59 342 69 c 128,-1,14
 375 79 375 79 390 95 c 128,-1,15
 405 111 405 111 405 138 c 0,16,17
 405 173 405 173 386 188.5 c 128,-1,18
 367 204 367 204 329 204 c 2,19,-1
 161 204 l 1,20,-1
 161 278 l 1,21,-1
 357 441 l 1,22,-1
 79 441 l 1,23,-1
 79 528 l 1,24,-1
 496 528 l 1,25,-1
 496 446 l 1,26,-1
 290 283 l 1,27,-1
 350 283 l 2,28,29
 433 283 433 283 479 246 c 128,-1,30
 525 209 525 209 525 137 c 0,31,32
 525 63 525 63 472 24.5 c 128,-1,33
 419 -14 419 -14 318 -30 c 0,34,35
 264 -39 264 -39 237 -46.5 c 128,-1,36
 210 -54 210 -54 200 -62.5 c 128,-1,37
 190 -71 190 -71 190 -85 c 0,38,39
 190 -102 190 -102 205.5 -117 c 128,-1,40
 221 -132 221 -132 252 -148 c 1,41,-1
 215 -219 l 1,42,7
 146 -190 146 -190 111.5 -155 c 128,-1,8
EndSplineSet
EndChar

StartChar: uni0475
Encoding: 1141 1141 482
Width: 600
GlyphClass: 2
Flags: W
AnchorPoint: "Anchor-3" 297 528 basechar 0
AnchorPoint: "Anchor-2" 300 0 basechar 0
LayerCount: 2
Fore
SplineSet
43 528 m 1,0,-1
 164 528 l 1,1,-1
 289 94 l 1,2,-1
 392 456 l 2,3,4
 409 521 409 521 437.5 548 c 128,-1,5
 466 575 466 575 518 575 c 0,6,7
 550 575 550 575 591 559 c 1,8,-1
 564 481 l 1,9,10
 552 487 552 487 536 487 c 256,11,12
 520 487 520 487 511 477.5 c 128,-1,13
 502 468 502 468 495 445 c 2,14,-1
 355 0 l 1,15,-1
 221 0 l 1,16,-1
 43 528 l 1,0,-1
EndSplineSet
EndChar

StartChar: uni0479
Encoding: 1145 1145 484
Width: 600
Flags: W
LayerCount: 2
Fore
SplineSet
37.5 59.5 m 128,-1,1
 -2 132 -2 132 -2 264 c 0,2,3
 -2 392 -2 392 38 467 c 128,-1,4
 78 542 78 542 156 542 c 0,5,6
 237 542 237 542 275.5 469 c 128,-1,7
 314 396 314 396 314 265 c 256,8,9
 314 134 314 134 275 60.5 c 128,-1,10
 236 -13 236 -13 156 -13 c 0,11,0
 77 -13 77 -13 37.5 59.5 c 128,-1,1
288 -149 m 1,12,13
 356 -132 356 -132 390 -99.5 c 128,-1,14
 424 -67 424 -67 438 0 c 1,15,-1
 396 0 l 1,16,-1
 310 528 l 1,17,-1
 403 528 l 1,18,-1
 460 78 l 1,19,-1
 518 528 l 1,20,-1
 608 528 l 1,21,-1
 521 4 l 2,22,23
 504 -97 504 -97 449 -150.5 c 128,-1,24
 394 -204 394 -204 304 -216 c 1,25,-1
 288 -149 l 1,12,13
208 107 m 128,-1,27
 223 155 223 155 223 265 c 256,28,29
 223 375 223 375 208 422.5 c 128,-1,30
 193 470 193 470 156 470 c 256,31,32
 119 470 119 470 104 422 c 128,-1,33
 89 374 89 374 89 264 c 256,34,35
 89 154 89 154 104 106.5 c 128,-1,36
 119 59 119 59 156 59 c 256,37,26
 193 59 193 59 208 107 c 128,-1,27
EndSplineSet
EndChar

StartChar: uni0493
Encoding: 1171 1171 485
Width: 600
GlyphClass: 2
Flags: W
AnchorPoint: "Anchor-3" 368 528 basechar 0
AnchorPoint: "Anchor-2" 229 0 basechar 0
LayerCount: 2
Fore
SplineSet
546 438 m 1,0,-1
 285 438 l 1,1,-1
 285 306 l 1,2,-1
 407 306 l 1,3,-1
 407 227 l 1,4,-1
 285 227 l 1,5,-1
 285 0 l 1,6,-1
 173 0 l 1,7,-1
 173 227 l 1,8,-1
 86 227 l 1,9,-1
 86 306 l 1,10,-1
 173 306 l 1,11,-1
 173 528 l 1,12,-1
 559 528 l 1,13,-1
 546 438 l 1,0,-1
EndSplineSet
EndChar

StartChar: uni0495
Encoding: 1173 1173 486
Width: 600
GlyphClass: 2
Flags: W
AnchorPoint: "Anchor-3" 300 528 basechar 0
AnchorPoint: "Anchor-2" 300 -208 basechar 0
LayerCount: 2
Fore
SplineSet
471 306 m 128,-1,1
 512 264 512 264 512 187 c 2,2,-1
 512 -48 l 2,3,4
 512 -130 512 -130 468.5 -173.5 c 128,-1,5
 425 -217 425 -217 348 -217 c 0,6,7
 280 -217 280 -217 227 -177 c 1,8,-1
 270 -110 l 1,9,10
 292 -121 292 -121 305.5 -125.5 c 128,-1,11
 319 -130 319 -130 340 -130 c 0,12,13
 400 -130 400 -130 400 -58 c 2,14,-1
 400 179 l 2,15,16
 400 223 400 223 381.5 243 c 128,-1,17
 363 263 363 263 328 263 c 0,18,19
 291 263 291 263 262.5 244 c 128,-1,20
 234 225 234 225 206 190 c 1,21,-1
 206 0 l 1,22,-1
 94 0 l 1,23,-1
 94 528 l 1,24,-1
 440 528 l 1,25,-1
 425 443 l 1,26,-1
 206 443 l 1,27,-1
 206 275 l 1,28,29
 235 308 235 308 274.5 328 c 128,-1,30
 314 348 314 348 361 348 c 0,31,0
 430 348 430 348 471 306 c 128,-1,1
EndSplineSet
EndChar

StartChar: uni0497
Encoding: 1175 1175 487
Width: 600
Flags: W
LayerCount: 2
Fore
SplineSet
548 87 m 1,0,-1
 607 87 l 1,1,-1
 607 -157 l 1,2,-1
 532 -157 l 1,3,-1
 515 0 l 1,4,-1
 478 0 l 1,5,-1
 387 241 l 1,6,-1
 343 241 l 1,7,-1
 343 0 l 1,8,-1
 257 0 l 1,9,-1
 257 241 l 1,10,-1
 212 241 l 1,11,-1
 122 0 l 1,12,-1
 17 0 l 1,13,-1
 132 284 l 1,14,-1
 24 528 l 1,15,-1
 129 528 l 1,16,-1
 211 315 l 1,17,-1
 257 315 l 1,18,-1
 257 528 l 1,19,-1
 343 528 l 1,20,-1
 343 315 l 1,21,-1
 389 315 l 1,22,-1
 474 528 l 1,23,-1
 576 528 l 1,24,-1
 468 284 l 1,25,-1
 548 87 l 1,0,-1
EndSplineSet
EndChar

StartChar: uni0499
Encoding: 1177 1177 488
Width: 600
GlyphClass: 2
Flags: W
AnchorPoint: "Anchor-3" 291 527 basechar 0
AnchorPoint: "Anchor-2" 299 0 basechar 0
LayerCount: 2
Fore
SplineSet
469.5 41.5 m 128,-1,1
 415 -2 415 -2 323 -11 c 1,2,-1
 323 -54 l 1,3,4
 371 -58 371 -58 395.5 -82.5 c 128,-1,5
 420 -107 420 -107 420 -143 c 0,6,7
 420 -191 420 -191 382 -219 c 128,-1,8
 344 -247 344 -247 287 -247 c 0,9,10
 256 -247 256 -247 227 -240 c 128,-1,11
 198 -233 198 -233 178 -221 c 1,12,-1
 208 -163 l 1,13,14
 242 -180 242 -180 274 -180 c 0,15,16
 331 -180 331 -180 331 -142 c 0,17,18
 331 -119 331 -119 309.5 -111 c 128,-1,19
 288 -103 288 -103 243 -103 c 1,20,-1
 251 -12 l 1,21,22
 126 -7 126 -7 43 59 c 1,23,-1
 94 127 l 1,24,25
 135 100 135 100 178 86 c 128,-1,26
 221 72 221 72 275 72 c 0,27,28
 339 72 339 72 372.5 95 c 128,-1,29
 406 118 406 118 406 158 c 0,30,31
 406 196 406 196 375.5 215 c 128,-1,32
 345 234 345 234 286 234 c 2,33,-1
 176 234 l 1,34,-1
 183 315 l 1,35,-1
 278 315 l 2,36,37
 326 315 326 315 353.5 334.5 c 128,-1,38
 381 354 381 354 381 387 c 0,39,40
 381 458 381 458 270 458 c 0,41,42
 230 458 230 458 188.5 447 c 128,-1,43
 147 436 147 436 112 415 c 1,44,-1
 62 478 l 1,45,46
 104 509 104 509 160 525.5 c 128,-1,47
 216 542 216 542 276 542 c 0,48,49
 373 542 373 542 434.5 504 c 128,-1,50
 496 466 496 466 496 397 c 0,51,52
 496 312 496 312 381 281 c 1,53,54
 442 277 442 277 483 245 c 128,-1,55
 524 213 524 213 524 156 c 0,56,0
 524 85 524 85 469.5 41.5 c 128,-1,1
EndSplineSet
EndChar

StartChar: uni049B
Encoding: 1179 1179 489
Width: 600
GlyphClass: 2
Flags: W
AnchorPoint: "Anchor-3" 320 528 basechar 0
AnchorPoint: "Anchor-2" 300 0 basechar 0
LayerCount: 2
Fore
SplineSet
518 87 m 1,0,-1
 591 87 l 1,1,-1
 591 -157 l 1,2,-1
 502 -157 l 1,3,-1
 486 0 l 1,4,-1
 449 0 l 1,5,-1
 296 237 l 1,6,-1
 205 237 l 1,7,-1
 205 0 l 1,8,-1
 93 0 l 1,9,-1
 93 528 l 1,10,-1
 205 528 l 1,11,-1
 205 319 l 1,12,-1
 298 319 l 1,13,-1
 436 528 l 1,14,-1
 553 528 l 1,15,-1
 387 284 l 1,16,-1
 518 87 l 1,0,-1
EndSplineSet
EndChar

StartChar: uni049D
Encoding: 1181 1181 490
Width: 600
GlyphClass: 2
Flags: W
AnchorPoint: "Anchor-3" 300 528 basechar 0
AnchorPoint: "Anchor-2" 300 0 basechar 0
LayerCount: 2
Fore
SplineSet
93 0 m 1,0,-1
 93 528 l 1,1,-1
 203 528 l 1,2,-1
 203 316 l 1,3,-1
 244 316 l 1,4,-1
 244 431 l 1,5,-1
 292 431 l 1,6,-1
 292 316 l 1,7,-1
 316 316 l 1,8,-1
 441 528 l 1,9,-1
 553 528 l 1,10,-1
 405 284 l 1,11,-1
 576 0 l 1,12,-1
 456 0 l 1,13,-1
 316 240 l 1,14,-1
 292 240 l 1,15,-1
 292 119 l 1,16,-1
 244 119 l 1,17,-1
 244 240 l 1,18,-1
 203 240 l 1,19,-1
 203 0 l 1,20,-1
 93 0 l 1,0,-1
EndSplineSet
EndChar

StartChar: uni049F
Encoding: 1183 1183 491
Width: 600
Flags: W
LayerCount: 2
Fore
SplineSet
383 284 m 1,0,-1
 571 0 l 1,1,-1
 444 0 l 1,2,-1
 291 237 l 1,3,-1
 220 237 l 1,4,-1
 220 0 l 1,5,-1
 108 0 l 1,6,-1
 108 566 l 1,7,-1
 29 566 l 1,8,-1
 29 643 l 1,9,-1
 108 643 l 1,10,-1
 108 740 l 1,11,-1
 220 753 l 1,12,-1
 220 643 l 1,13,-1
 359 643 l 1,14,-1
 359 566 l 1,15,-1
 220 566 l 1,16,-1
 220 319 l 1,17,-1
 293 319 l 1,18,-1
 431 528 l 1,19,-1
 548 528 l 1,20,-1
 383 284 l 1,0,-1
EndSplineSet
EndChar

StartChar: uni04A1
Encoding: 1185 1185 492
Width: 600
Flags: W
LayerCount: 2
Fore
SplineSet
407 284 m 1,0,-1
 592 0 l 1,1,-1
 466 0 l 1,2,-1
 315 237 l 1,3,-1
 234 237 l 1,4,-1
 234 0 l 1,5,-1
 122 0 l 1,6,-1
 122 445 l 1,7,-1
 5 445 l 1,8,-1
 5 528 l 1,9,-1
 234 528 l 1,10,-1
 234 319 l 1,11,-1
 318 319 l 1,12,-1
 453 528 l 1,13,-1
 570 528 l 1,14,-1
 407 284 l 1,0,-1
EndSplineSet
EndChar

StartChar: uni04A3
Encoding: 1187 1187 493
Width: 600
Flags: W
LayerCount: 2
Fore
SplineSet
495 87 m 1,0,-1
 572 87 l 1,1,-1
 572 -157 l 1,2,-1
 483 -157 l 1,3,-1
 467 0 l 1,4,-1
 383 0 l 1,5,-1
 383 226 l 1,6,-1
 185 226 l 1,7,-1
 185 0 l 1,8,-1
 73 0 l 1,9,-1
 73 528 l 1,10,-1
 185 528 l 1,11,-1
 185 313 l 1,12,-1
 383 313 l 1,13,-1
 383 528 l 1,14,-1
 495 528 l 1,15,-1
 495 87 l 1,0,-1
EndSplineSet
EndChar

StartChar: uni04A5
Encoding: 1189 1189 494
Width: 600
Flags: W
LayerCount: 2
Fore
SplineSet
604 528 m 1,0,-1
 590 441 l 1,1,-1
 464 441 l 1,2,-1
 464 0 l 1,3,-1
 352 0 l 1,4,-1
 352 226 l 1,5,-1
 184 226 l 1,6,-1
 184 0 l 1,7,-1
 72 0 l 1,8,-1
 72 528 l 1,9,-1
 184 528 l 1,10,-1
 184 313 l 1,11,-1
 352 313 l 1,12,-1
 352 528 l 1,13,-1
 604 528 l 1,0,-1
EndSplineSet
EndChar

StartChar: uni0525
Encoding: 1317 1317 495
Width: 600
GlyphClass: 2
Flags: W
AnchorPoint: "Anchor-3" 292 528 basechar 0
AnchorPoint: "Anchor-2" 292 0 basechar 0
LayerCount: 2
Fore
SplineSet
503 87 m 1,0,-1
 581 87 l 1,1,-1
 581 -157 l 1,2,-1
 492 -157 l 1,3,-1
 476 0 l 1,4,-1
 392 0 l 1,5,-1
 392 441 l 1,6,-1
 192 441 l 1,7,-1
 192 0 l 1,8,-1
 81 0 l 1,9,-1
 81 528 l 1,10,-1
 503 528 l 1,11,-1
 503 87 l 1,0,-1
EndSplineSet
EndChar

StartChar: uni04A7
Encoding: 1191 1191 496
Width: 600
GlyphClass: 2
Flags: W
AnchorPoint: "Anchor-3" 300 528 basechar 0
AnchorPoint: "Anchor-2" 300 -208 basechar 0
LayerCount: 2
Fore
SplineSet
563 308.5 m 128,-1,1
 599 269 599 269 599 203 c 2,2,-1
 599 -51 l 2,3,4
 599 -131 599 -131 556.5 -174 c 128,-1,5
 514 -217 514 -217 441 -217 c 0,6,7
 374 -217 374 -217 321 -177 c 1,8,-1
 363 -112 l 1,9,10
 382 -123 382 -123 397 -128 c 128,-1,11
 412 -133 412 -133 434 -133 c 0,12,13
 494 -133 494 -133 494 -64 c 2,14,-1
 494 199 l 2,15,16
 494 231 494 231 480 248 c 128,-1,17
 466 265 466 265 439 265 c 0,18,19
 398 265 398 265 366 236 c 1,20,-1
 366 0 l 1,21,-1
 260 0 l 1,22,-1
 260 443 l 1,23,-1
 130 443 l 1,24,-1
 130 0 l 1,25,-1
 24 0 l 1,26,-1
 24 528 l 1,27,-1
 366 528 l 1,28,-1
 366 311 l 1,29,30
 408 348 408 348 469 348 c 0,31,0
 527 348 527 348 563 308.5 c 128,-1,1
EndSplineSet
EndChar

StartChar: uni04A9
Encoding: 1193 1193 497
Width: 600
GlyphClass: 2
Flags: W
AnchorPoint: "Anchor-3" 300 528 basechar 0
AnchorPoint: "Anchor-2" 300 -208 basechar 0
LayerCount: 2
Fore
SplineSet
530.5 108.5 m 128,-1,1
 501 57 501 57 448 25 c 1,2,3
 473 -9 473 -9 532 -82 c 1,4,-1
 472 -130 l 1,5,6
 414 -61 414 -61 371 -5 c 1,7,8
 336 -13 336 -13 301 -13 c 0,9,10
 185 -13 185 -13 118.5 60 c 128,-1,11
 52 133 52 133 52 260 c 0,12,13
 52 343 52 343 81.5 407 c 128,-1,14
 111 471 111 471 166.5 506.5 c 128,-1,15
 222 542 222 542 296 542 c 0,16,17
 366 542 366 542 422 511 c 1,18,-1
 381 432 l 1,19,20
 344 452 344 452 301 452 c 0,21,22
 240 452 240 452 205.5 404.5 c 128,-1,23
 171 357 171 357 171 261 c 256,24,25
 171 165 171 165 206 121 c 128,-1,26
 241 77 241 77 307 77 c 2,27,-1
 315 77 l 1,28,29
 269 152 269 152 269 216 c 0,30,31
 269 279 269 279 308.5 320 c 128,-1,32
 348 361 348 361 415 361 c 0,33,34
 480 361 480 361 520 322 c 128,-1,35
 560 283 560 283 560 216 c 0,36,0
 560 160 560 160 530.5 108.5 c 128,-1,1
399 97 m 1,38,39
 432 115 432 115 448.5 146.5 c 128,-1,40
 465 178 465 178 465 220 c 0,41,42
 465 252 465 252 452 269 c 128,-1,43
 439 286 439 286 415 286 c 0,44,45
 389 286 389 286 375.5 267.5 c 128,-1,46
 362 249 362 249 362 216 c 0,47,37
 362 162 362 162 399 97 c 1,38,39
EndSplineSet
EndChar

StartChar: uni04AB
Encoding: 1195 1195 498
Width: 600
GlyphClass: 2
Flags: W
AnchorPoint: "Anchor-3" 344 518 basechar 0
AnchorPoint: "Anchor-2" 339 0 basechar 0
LayerCount: 2
Fore
SplineSet
525 52 m 1,0,1
 498 29 498 29 461.5 13 c 128,-1,2
 425 -3 425 -3 384 -10 c 1,3,4
 462 -58 462 -58 462 -131 c 0,5,6
 462 -183 462 -183 425.5 -214.5 c 128,-1,7
 389 -246 389 -246 326 -246 c 0,8,9
 271 -246 271 -246 226 -221 c 1,10,-1
 252 -160 l 1,11,12
 286 -176 286 -176 319 -176 c 0,13,14
 347 -176 347 -176 361 -162 c 128,-1,15
 375 -148 375 -148 375 -123 c 0,16,17
 375 -59 375 -59 302 -11 c 1,18,19
 198 1 198 1 140.5 73.5 c 128,-1,20
 83 146 83 146 83 261 c 0,21,22
 83 342 83 342 114 405.5 c 128,-1,23
 145 469 145 469 203.5 505.5 c 128,-1,24
 262 542 262 542 342 542 c 0,25,26
 447 542 447 542 525 478 c 1,27,-1
 473 408 l 1,28,29
 409 452 409 452 344 452 c 0,30,31
 278 452 278 452 240 404.5 c 128,-1,32
 202 357 202 357 202 261 c 0,33,34
 202 167 202 167 240 123 c 128,-1,35
 278 79 278 79 344 79 c 0,36,37
 407 79 407 79 474 124 c 1,38,-1
 525 52 l 1,0,1
EndSplineSet
EndChar

StartChar: uni04AD
Encoding: 1197 1197 499
Width: 600
GlyphClass: 2
Flags: W
AnchorPoint: "Anchor-3" 300 528 basechar 0
AnchorPoint: "Anchor-2" 300 0 basechar 0
LayerCount: 2
Fore
SplineSet
536 441 m 1,0,-1
 356 441 l 1,1,-1
 356 87 l 1,2,-1
 433 87 l 1,3,-1
 433 -157 l 1,4,-1
 344 -157 l 1,5,-1
 328 0 l 1,6,-1
 244 0 l 1,7,-1
 244 441 l 1,8,-1
 57 441 l 1,9,-1
 57 528 l 1,10,-1
 549 528 l 1,11,-1
 536 441 l 1,0,-1
EndSplineSet
EndChar

StartChar: uni04AF
Encoding: 1199 1199 500
Width: 600
GlyphClass: 2
Flags: W
AnchorPoint: "Anchor-3" 300 528 basechar 0
AnchorPoint: "Anchor-2" 300 -208 basechar 0
LayerCount: 2
Fore
SplineSet
245 -216 m 1,0,-1
 245 12 l 1,1,-1
 45 528 l 1,2,-1
 165 528 l 1,3,-1
 302 112 l 1,4,-1
 440 528 l 1,5,-1
 555 528 l 1,6,-1
 355 12 l 1,7,-1
 355 -203 l 1,8,-1
 245 -216 l 1,0,-1
EndSplineSet
EndChar

StartChar: uni04B1
Encoding: 1201 1201 501
Width: 600
GlyphClass: 2
Flags: W
AnchorPoint: "Anchor-3" 300 528 basechar 0
AnchorPoint: "Anchor-2" 300 -208 basechar 0
LayerCount: 2
Fore
SplineSet
555 528 m 1,0,-1
 378 72 l 1,1,-1
 456 72 l 1,2,-1
 456 -4 l 1,3,-1
 355 -4 l 1,4,-1
 355 -203 l 1,5,-1
 245 -216 l 1,6,-1
 245 -4 l 1,7,-1
 144 -4 l 1,8,-1
 144 72 l 1,9,-1
 222 72 l 1,10,-1
 45 528 l 1,11,-1
 165 528 l 1,12,-1
 302 112 l 1,13,-1
 440 528 l 1,14,-1
 555 528 l 1,0,-1
EndSplineSet
EndChar

StartChar: uni04B3
Encoding: 1203 1203 502
Width: 600
GlyphClass: 2
Flags: W
AnchorPoint: "Anchor-3" 300 528 basechar 0
AnchorPoint: "Anchor-2" 300 0 basechar 0
LayerCount: 2
Fore
SplineSet
426 0 m 1,0,-1
 296 216 l 1,1,-1
 219 87 l 1,2,-1
 352 87 l 1,3,-1
 352 -157 l 1,4,-1
 263 -157 l 1,5,-1
 247 0 l 1,6,-1
 210 0 l 1,7,-1
 205 63 l 1,8,-1
 167 0 l 1,9,-1
 43 0 l 1,10,-1
 233 278 l 1,11,-1
 64 528 l 1,12,-1
 193 528 l 1,13,-1
 301 342 l 1,14,-1
 409 528 l 1,15,-1
 532 528 l 1,16,-1
 367 283 l 1,17,-1
 557 0 l 1,18,-1
 426 0 l 1,0,-1
EndSplineSet
EndChar

StartChar: uni04B5
Encoding: 1205 1205 503
Width: 600
GlyphClass: 2
Flags: W
AnchorPoint: "Anchor-3" 300 528 basechar 0
AnchorPoint: "Anchor-2" 300 -208 basechar 0
LayerCount: 2
Fore
SplineSet
499 87 m 1,0,-1
 559 87 l 1,1,-1
 559 -157 l 1,2,-1
 473 -157 l 1,3,-1
 456 0 l 1,4,-1
 110 0 l 1,5,-1
 110 448 l 1,6,-1
 0 448 l 1,7,-1
 0 528 l 1,8,-1
 333 528 l 1,9,-1
 318 448 l 1,10,-1
 219 448 l 1,11,-1
 219 88 l 1,12,-1
 390 88 l 1,13,-1
 390 528 l 1,14,-1
 499 528 l 1,15,-1
 499 87 l 1,0,-1
EndSplineSet
EndChar

